<?xml version="1.0" encoding="utf-8"?>
<!-- Generator: Adobe Illustrator 22.0.1, SVG Export Plug-In . SVG Version: 6.00 Build 0)  -->
<svg version="1.1" id="Layer_1" xmlns="http://www.w3.org/2000/svg" xmlns:xlink="http://www.w3.org/1999/xlink" x="0px" y="0px"
	 viewBox="0 0 47.1 48" style="enable-background:new 0 0 47.1 48;" xml:space="preserve">
<style type="text/css">
	.st0{display:none;}
	.st1{display:inline;fill:#D24A43;}
	.st2{display:none;fill:#D24A43;}
	.st3{display:inline;}
	.st4{fill:#D24A43;}
	.st5{display:inline;fill:#FFFFFF;}
	.st6{display:none;fill:#090E0D;}
	.st7{fill:#BF1E2E;}
</style>
<g class="st0">
	<path class="st1" d="M201.7,17.1c0-0.2,0-0.5,0-0.7c0-3.3-2.7-6-6-6s-6,2.7-6,6c0,0.2,0,0.5,0,0.7c-2.8,1.9-4.6,5.1-4.6,8.7
		c0,2.5,0.9,4.7,2.3,6.5c0.6,0.8,1.6,1.3,2.7,1.3h11.2c1,0,2-0.5,2.7-1.3c1.4-1.8,2.3-4,2.3-6.5C206.2,22.2,204.4,19,201.7,17.1
		L201.7,17.1z M195.7,12.7c1.9,0,3.4,1.4,3.7,3.2c-1.1-0.4-2.4-0.7-3.7-0.7s-2.5,0.2-3.7,0.7C192.3,14.1,193.9,12.7,195.7,12.7
		L195.7,12.7z M195,27.7c-0.1,0.2-0.4,0.4-0.6,0.4c-0.2,0-0.5-0.1-0.6-0.3l-0.9-1.5l-0.4,0.4v0.7c0,0.4-0.3,0.7-0.7,0.7
		s-0.7-0.3-0.7-0.7v-5.1c0-0.4,0.3-0.7,0.7-0.7s0.7,0.3,0.7,0.7v3.2l1-1.6c0.1-0.2,0.3-0.3,0.6-0.3c0.2,0,0.4,0.1,0.5,0.3
		c0.1,0.2,0.1,0.5-0.1,0.6l-0.7,0.8L195,27C195.1,27.2,195.1,27.5,195,27.7L195,27.7z M200.3,25v2.5c0,0.9-0.2,1.6-0.7,2
		s-1.2,0.6-1.8,0.6c-0.4,0-0.8,0-1.1-0.1s-0.5-0.4-0.4-0.7c0-0.1,0.1-0.2,0.2-0.3c0.1-0.1,0.3-0.1,0.4,0c0.2,0.1,0.5,0.1,0.8,0.1
		c0.7,0,1.2-0.4,1.2-1.2v-0.3l0,0c-0.3,0.4-0.7,0.6-1.2,0.6c-1.1,0-1.9-0.9-1.9-2.2c0-1.4,0.9-2.4,2-2.4c0.6,0,1,0.3,1.2,0.6l0,0
		c0-0.3,0.3-0.5,0.6-0.5h0.1c0.2,0,0.3,0.1,0.4,0.2c0.1,0.1,0.2,0.3,0.2,0.4C200.3,24.4,200.3,24.7,200.3,25L200.3,25z"/>
	<path class="st1" d="M198.1,24.6c-0.5,0-0.9,0.5-0.9,1.3c0,0.7,0.3,1.2,0.9,1.2c0.4,0,0.6-0.2,0.7-0.6c0-0.1,0-0.2,0-0.4v-0.7
		c0-0.1,0-0.2,0-0.3C198.8,24.8,198.5,24.6,198.1,24.6L198.1,24.6z"/>
</g>
<path class="st2" d="M195.5,45c-12.2,0-22.1-9.9-22.1-22.1s9.9-22.1,22.1-22.1c12.2,0,22.1,9.9,22.1,22.1S207.7,45,195.5,45z
	 M195.5,1.8c-11.6,0-21.1,9.5-21.1,21.1S183.8,44,195.5,44c11.6,0,21.1-9.5,21.1-21.1S207.1,1.8,195.5,1.8z"/>
<path class="st2" d="M249.5,45c-12.2,0-22.1-9.9-22.1-22.1s9.9-22.1,22.1-22.1s22.1,9.9,22.1,22.1S261.7,45,249.5,45z M249.5,1.8
	c-11.6,0-21.1,9.5-21.1,21.1S237.8,44,249.5,44c11.6,0,21.1-9.5,21.1-21.1S261.1,1.8,249.5,1.8z"/>
<path class="st2" d="M140.2,45.6c-12.2,0-22.1-9.9-22.1-22.1S128,1.4,140.2,1.4s22.1,9.9,22.1,22.1S152.4,45.6,140.2,45.6z
	 M140.2,2.4c-11.6,0-21.1,9.5-21.1,21.1s9.5,21.1,21.1,21.1c11.6,0,21.1-9.5,21.1-21.1C161.3,11.8,151.8,2.4,140.2,2.4z"/>
<g class="st0">
	<g class="st3">
		<path class="st4" d="M247.8,30.9h-4.7c-0.9,0-1.6-0.7-1.6-1.6V14.7c0-0.9,0.7-1.6,1.6-1.6h11.4c0.9,0,1.6,0.7,1.6,1.6V27l2.1-2.5
			V13.1c0-1.2-0.9-2.1-2.1-2.1h-14.8c-1.1,0-2,0.9-2,2.1V31c0,1.2,0.9,2.1,2.1,2.1h8.3l-1-0.8C248.3,31.8,248,31.4,247.8,30.9
			L247.8,30.9z"/>
		<path class="st4" d="M253.6,15.8h-9.5c-0.6,0-1.1,0.5-1.1,1.1s0.5,1.1,1.1,1.1h9.5c0.6,0,1-0.5,1-1.1
			C254.7,16.2,254.2,15.8,253.6,15.8L253.6,15.8z"/>
		<path class="st4" d="M253.6,19.3h-9.5c-0.6,0-1.1,0.5-1.1,1.1s0.5,1.1,1.1,1.1h9.5c0.6,0,1-0.5,1-1.1
			C254.7,19.7,254.2,19.3,253.6,19.3L253.6,19.3z"/>
		<path class="st4" d="M253.6,22.8h-9.5c-0.6,0-1.1,0.4-1.1,1s0.5,1,1.1,1h9.5c0.6,0,1-0.4,1-1C254.7,23.2,254.2,22.8,253.6,22.8
			L253.6,22.8z"/>
		<path class="st4" d="M243.1,27.2c0,0.6,0.5,1,1.1,1h3.5c0.1-0.4,0.4-0.8,0.7-1.2c0.3-0.4,0.7-0.7,1.1-0.9h-5.3
			C243.6,26.1,243.1,26.6,243.1,27.2L243.1,27.2z"/>
		<path class="st4" d="M253.6,26.1h-0.8c0.3,0.1,0.5,0.3,0.7,0.5l1.1,0.9c0-0.1,0.1-0.2,0.1-0.4C254.7,26.6,254.2,26.1,253.6,26.1
			L253.6,26.1z"/>
		<path class="st4" d="M264,23.3c-0.8-0.7-1.9-0.6-2.6,0.2l-6.1,7.1l-3-2.6c-0.8-0.7-1.9-0.6-2.6,0.2c-0.7,0.8-0.6,1.9,0.2,2.6
			l4.4,3.8c0.3,0.3,0.8,0.4,1.2,0.4h0.1c0.5,0,0.9-0.3,1.3-0.6l7.3-8.5C264.9,25.1,264.8,24,264,23.3L264,23.3z"/>
	</g>
</g>
<g class="st0">
	<path class="st3" d="M198.9,108.7c-2.4-2.4-6.3-2.4-8.6,0c-1.2,1.2-1.8,2.7-1.8,4.3s0.6,3.2,1.8,4.3c0.6,0.6,1.3,1,2,1.3
		c-0.3,0.4-0.5,0.6-0.7,0.8c-0.9,0.6-1.7,1.4-2.3,2.3c-0.1-0.5-0.2-0.9-0.4-1.4c-0.8-1.9-2.3-3.2-4.3-3.7l-0.7-0.2
		c0-0.1,0-0.1,0-0.2c-0.8-3.4-3.7-6-7.2-6.5c-0.3,0-0.6,0.2-0.7,0.5c0,0.3,0.2,0.6,0.5,0.7c3,0.4,5.5,2.6,6.1,5.5
		c0.3,1.3,0.6,2.5,0.9,3.4c0.1,0.3,0.3,0.4,0.6,0.4c0.1,0,0.1,0,0.2,0c0.3-0.1,0.5-0.5,0.4-0.8c-0.2-0.5-0.4-1.1-0.5-1.8h0.1
		c1.6,0.4,2.8,1.4,3.4,2.9c0.6,1.5,0.5,3.1-0.3,4.4l-0.1,0.1c-0.2,0.3-0.1,0.7,0.2,0.8c0.1,0.1,0.2,0.1,0.3,0.1
		c0.2,0,0.4-0.1,0.5-0.3l0.1-0.1c0.3-0.5,0.6-1.1,0.7-1.7c0.7-1.4,1.8-2.7,3.1-3.7c0.4-0.3,0.9-0.8,1.2-1.4c0.3,0.1,0.7,0.1,1,0.1
		c0.4,0,0.8,0,1.2-0.1c-0.5,1.8-0.9,3.4-1.3,4.8c-0.8,3.1-2.8,7.1-4.7,8.1c-0.4,0.2-0.7,0.3-1,0.2c-8.8-4-10.6-8.2-10.9-9.8
		c-0.1-0.3-0.4-0.5-0.7-0.5c-1.5-0.4-2.8-1.3-3.6-2.6c-0.9-1.3-1.2-2.9-0.9-4.5c0.1-0.3-0.1-0.7-0.5-0.7c-0.3-0.1-0.7,0.1-0.7,0.5
		c-0.4,1.9,0,3.8,1,5.4c1,1.5,2.5,2.6,4.2,3.1c0.3,1,1,2.4,2.4,4.1c2,2.3,5.1,4.4,9.1,6.2l0,0c0.2,0.1,0.5,0.1,0.7,0.1
		c0.4,0,0.8-0.1,1.3-0.3c1.3-0.7,2.5-2.4,3.2-3.7c0.9-1.6,1.6-3.5,2.1-5.2c0.4-1.5,0.9-3.4,1.5-5.5c0.6-0.3,1.2-0.7,1.7-1.2
		C201.2,114.9,201.2,111,198.9,108.7L198.9,108.7z M194.5,117.9c-1.3,0-2.5-0.5-3.5-1.4c-0.9-0.9-1.4-2.1-1.4-3.5
		c0-1.3,0.5-2.5,1.4-3.5c1-1,2.2-1.4,3.5-1.4s2.5,0.5,3.5,1.4c1.9,1.9,1.9,5,0,6.9C197.1,117.3,195.9,117.9,194.5,117.9L194.5,117.9
		z"/>
	<path class="st3" d="M193.4,111.8c-0.6,0.6-0.6,1.6,0,2.3c0.3,0.3,0.7,0.5,1.1,0.5c0.4,0,0.8-0.2,1.1-0.5c0.6-0.6,0.6-1.6,0-2.3
		C195.1,111.2,194,111.2,193.4,111.8L193.4,111.8z M194.8,113.2c-0.1,0.1-0.4,0.1-0.5,0s-0.1-0.4,0-0.5s0.2-0.1,0.3-0.1
		s0.2,0,0.3,0.1C195,112.8,195,113.1,194.8,113.2L194.8,113.2z"/>
	<path class="st3" d="M194.5,117.3L194.5,117.3c-2.4,0-4.3-2-4.3-4.3l0,0c0-2.4,2-4.3,4.3-4.3l0,0c2.4,0,4.3,2,4.3,4.3l0,0
		C198.9,115.4,196.9,117.3,194.5,117.3z"/>
	<path class="st5" d="M195.7,113c0,0.6-0.5,1.1-1.1,1.1s-1.1-0.5-1.1-1.1s0.5-1.1,1.1-1.1C195.2,111.8,195.7,112.3,195.7,113z"/>
</g>
<path class="st6" d="M199.6,82.6h-1v-2.5c0-0.8-0.7-1.5-1.5-1.5h-2c-0.8,0-1.5,0.7-1.5,1.5V84h-1.2l-0.1-0.3
	c-0.5-1.3-1.8-2.2-3.2-2.2l0,0c-0.2-0.6-0.7-1-1.4-1c-0.4,0-0.7,0.1-1,0.4c-0.3-0.2-0.6-0.4-1-0.4s-0.7,0.1-1,0.4
	c-0.3-0.2-0.6-0.4-1-0.4s-0.7,0.1-1,0.4c-0.3-0.2-0.6-0.4-1-0.4c-0.8,0-1.5,0.7-1.5,1.5v2h-1.5v-3.9c0-0.8-0.7-1.5-1.5-1.5h-2
	c-0.8,0-1.5,0.7-1.5,1.5v2.5h-1c-0.8,0-1.5,0.7-1.5,1.5V89c0,0.8,0.7,1.5,1.5,1.5h1V93c0,0.8,0.7,1.5,1.5,1.5h2
	c0.8,0,1.5-0.7,1.5-1.5v-4h1.1l0.4,1.2c0,0.1,0,0.1,0.1,0.2l1.3,1.7l-0.8,8.8c0,0.4,0.1,0.7,0.3,1s0.6,0.4,0.9,0.4h6.7
	c0.4,0,0.7-0.2,0.9-0.4c0.2-0.3,0.4-0.6,0.3-1l-0.9-8.6c0-0.1,0-0.2,0.1-0.2l2.7-2.3c0.2-0.2,0.4-0.5,0.5-0.8h1.1v4
	c0,0.8,0.7,1.5,1.5,1.5h2c0.8,0,1.5-0.7,1.5-1.5v-2.5h1c0.8,0,1.5-0.7,1.5-1.5v-4.9C201.1,83.3,200.4,82.6,199.6,82.6z M187.8,81.6
	c0.3,0,0.5,0.2,0.5,0.5v2.5V85c0,0.2-0.1,0.4-0.2,0.5l0,0H188h-0.1h-0.1h-0.1c0,0-0.1,0-0.1-0.1c0,0,0,0-0.1,0l-0.1-0.1l0,0
	c0-0.1,0-0.1,0-0.2v-3C187.3,81.9,187.5,81.6,187.8,81.6z M185.8,81.6c0.3,0,0.5,0.2,0.5,0.5v3c0,0.3-0.2,0.5-0.5,0.5
	s-0.5-0.2-0.5-0.5v-3C185.3,81.9,185.5,81.6,185.8,81.6z M183.8,81.6c0.3,0,0.5,0.2,0.5,0.5v3c0,0.3-0.2,0.5-0.5,0.5
	s-0.5-0.2-0.5-0.5v-3C183.3,81.9,183.5,81.6,183.8,81.6z M181.4,82.1c0-0.3,0.2-0.5,0.5-0.5s0.5,0.2,0.5,0.5v3c0,0.1,0,0.1,0,0.2
	l0,0c0,0,0,0.1-0.1,0.1c0,0,0,0-0.1,0c0,0-0.1,0-0.1,0.1H182h-0.1h-0.1h-0.1l0,0c-0.1-0.1-0.2-0.3-0.2-0.5v-0.4L181.4,82.1
	L181.4,82.1z M188.7,91.3c-0.3,0.3-0.5,0.7-0.4,1.1l0.9,8.6c0,0.1,0,0.2-0.1,0.2c0,0-0.1,0.1-0.2,0.1h-6.7c-0.1,0-0.2-0.1-0.2-0.1
	s-0.1-0.1-0.1-0.2l0.9-9c0-0.1,0-0.2-0.1-0.3l-1.4-1.8L181,89h7.5c0.3,0,0.5-0.1,0.7-0.3l0.7-0.7c0.2-0.2,0.3-0.4,0.3-0.7v-1.8
	c0-0.6-0.4-1.2-1-1.4v-1.6c1,0,1.9,0.6,2.2,1.6l0.2,0.5v0.1v3.7c0,0.2-0.1,0.4-0.3,0.6L188.7,91.3z"/>
<path class="st0" d="M232.7,88.3c-0.1-0.2-0.1-0.1-0.2-0.3c-0.3-1.2-0.2-2.6-1.1-3.9c-1.4-2.2-5-5.7-6.4-6.3c-0.1,0-0.1,0-0.2-0.1
	c0-0.3-0.2-0.7-0.7-0.9c-1.4-0.7-3-1.4-3.9-1c-0.5,0.2-0.9-0.2-1.1,0.3c-0.1,0.3-0.7,0.9-0.6,1.6c0,0.2,0.4,1.1,0.8,1.3
	c0.1,0.2-0.5-0.1-0.2,0.6c0.4,0.7,3.5-0.6,4.2,0.2c0.7,1.1,0.8,4.6,2.1,6.8c-0.2,0-1.5-2-3.8-1.4s-2.9,2.5-2.9,2.5
	c-2.2-2.1-5.8-0.6-6.3,1.4v9.4h2.2l0.8-1.5c1.5-0.6,2.6-3,3.8-4.5c1.6,0.2,4.1-0.2,5.1-0.3c0.9-0.1,4.3-1.1,5.3-1.4
	C232.1,89.8,233.3,89.9,232.7,88.3L232.7,88.3z"/>
<path class="st2" d="M149.6,22.7c0.1-0.6,0.1-1.1-0.1-1.7c0.2-0.3,0.3-0.6,0.4-1c0.3-1.5-0.3-2.9-1.5-3.7c0.1-1.1-0.4-2.2-1.2-2.9
	c0.7-0.7,1.5-1.1,2.2-0.8c0.5,0.2,0.8,0.6,1,1.3c0.5-0.1,1-0.1,1.4,0.2s0.7,0.7,0.8,1.2c0.1,0.7,0,1.6-0.5,2.3
	c0.3,0.3,0.5,0.8,0.6,1.3c0.1,0.9-0.2,1.8-0.8,2.6c-0.1,0.1-0.1,0.2-0.2,0.3c0.3,0.3,0.5,0.8,0.6,1.3c0.1,0.8-0.2,1.7-0.8,2.4
	c-0.3,0.3-0.6,0.6-1,0.8c0,0.5-0.2,1-0.5,1.4c-0.5,0.6-1.2,0.9-1.9,0.8c-1.3,1.6-2.6,2.3-4.4,2.8c2.4-1.9,3.8-3.7,4.5-6.6
	C148.8,24.4,149.4,23.6,149.6,22.7L149.6,22.7z"/>
<path class="st2" d="M135.6,17c0.3-1.3,1.3-2.4,2.5-2.7c0.4-1.1,1.5-1.8,2.6-1.7c0-0.1,0.1-0.2,0.1-0.3c0.3-0.6,1-1,1.7-1
	c0.5,0,0.8,0.2,1.1,0.6c0.3-0.1,0.7-0.2,1.1-0.1c0.9,0.2,1.6,1.1,1.5,2.1c1,0.4,1.6,1.6,1.4,2.8c0,0.1,0,0.1,0,0.2
	c1.2,0.5,1.9,1.8,1.6,3.2c-0.1,0.4-0.2,0.8-0.5,1.1c0.3,0.5,0.4,1,0.2,1.6c-0.2,0.8-0.8,1.5-1.5,1.7c-0.6,3.1-2.1,4.8-4.7,6.9
	l-0.1,0.1l0,0c-0.4,0.3-0.9,0.4-1.4,0.3c-0.1,0-0.2,0-0.3-0.1l0.2-0.2c1.1-1.6,1.8-3.1,2.4-4.4c1-0.1,1.5-0.8,1.5-0.8
	c0.1-0.1,0.1-0.4,0-0.5s-0.4-0.1-0.5,0.1c0,0-0.3,0.3-0.7,0.5c0.3-0.9,0.5-1.7,0.6-2.4v-0.1c0.2-1.1,0.2-2,0.1-2.8
	c1.2-0.5,1.6-1.7,1.7-2.4c0-0.2-0.1-0.4-0.3-0.4s-0.3,0.1-0.4,0.3c0,0.1-0.1,1.2-1.1,1.7c0-0.1,0-0.2-0.1-0.3
	c-0.5-2-1.5-3.2-1.9-3.6c0.1-0.7-0.2-1.4-0.2-1.4c-0.1-0.2-0.3-0.2-0.4-0.2c-0.2,0.1-0.2,0.3-0.2,0.5c0.1,0.1,0.1,0.4,0.1,0.7
	c-0.7-0.2-1.6,0-1.6,0.1c-0.2,0.1-0.3,0.3-0.2,0.4c0,0.1,0.1,0.2,0.2,0.2c0.1,0,0.1,0,0.2,0c0.3-0.1,1-0.3,1.4,0.1
	c0.1,0.1,0.6,0.5,1.1,1.3c-1.3-0.4-2.3-0.2-2.3-0.1c-0.2,0-0.3,0.2-0.3,0.4c0,0.1,0.1,0.2,0.3,0.3h0.1c0,0,1.2-0.3,2.6,0.4
	c0.2,0.5,0.4,1.1,0.5,1.7v0.1V21c0.1,0.6,0.1,1.2,0.1,1.9c-0.6-0.6-1.6-0.9-1.6-0.9l0,0c-0.2,0-0.4,0.1-0.4,0.3
	c0,0.2,0.1,0.4,0.3,0.4c0,0,1.4,0.3,1.6,1.2c-0.1,0.8-0.4,1.8-0.8,2.8l0,0c-0.5,1.3-1.3,2.8-2.4,4.4l-0.2,0.3
	c-0.2-0.2-0.4-0.4-0.5-0.6c-0.2-0.4-0.1-0.9,0.1-1.3c1-1.7,1.2-3.1,0.8-4.1c-0.6-1.4-2.2-1.9-3.2-2.1c-0.5-0.1-0.8-0.1-0.8-0.1h-0.3
	v-0.4c0,0,0.1-1.2,0.9-1.8l0.1-0.1c-0.2-0.1-0.3-0.2-0.5-0.3C135.9,19.6,135.3,18.3,135.6,17L135.6,17z"/>
<path class="st6" d="M155.1,100c-0.3,1.3-0.8,2.6-1.7,3.7h-1.5l0,0c-0.1-0.2-0.2-0.5-0.3-0.7c0,0,0-0.1-0.1-0.1
	c-0.1-0.2-0.2-0.4-0.4-0.6c0,0,0,0,0-0.1c-0.3-0.5-0.7-0.9-1.1-1.3C151.3,99.6,153.3,99.2,155.1,100L155.1,100z"/>
<path class="st6" d="M141.7,101.2C141.8,101.2,141.8,101.1,141.7,101.2c0.3-0.2,0.5-0.3,0.8-0.4c0.1,0,0.1,0,0.2-0.1
	c0.2-0.1,0.4-0.2,0.7-0.2c0.1,0,0.2,0,0.2,0c0.2,0,0.4-0.1,0.6-0.1c0.1,0,0.2,0,0.3,0c0.2,0,0.4,0,0.6,0c0.1,0,0.2,0,0.2,0
	c0.2,0,0.5,0,0.7,0.1c0.1,0,0.1,0,0.2,0c0.3,0.1,0.5,0.1,0.8,0.2h0.1c0.3,0.1,0.5,0.2,0.8,0.3c0.3,0.1,0.5,0.3,0.8,0.5
	c0.2,0.2,0.4,0.3,0.6,0.5l0.1,0.1c0.2,0.2,0.4,0.4,0.5,0.6l0.1,0.1c0.2,0.3,0.3,0.5,0.5,0.8h-11
	C139.9,102.6,140.7,101.8,141.7,101.2L141.7,101.2z"/>
<path class="st6" d="M150.2,93.4c1-0.1,1.9,0.5,2.2,1.4s0,2-0.8,2.5c0,0,0,0-0.1,0l-7,6.2c-0.8-0.4-1.7-0.6-2.7-0.7l0,0
	c0.1-0.1,0.1-0.2,0.2-0.3c0-0.1,0.1-0.2,0.1-0.2c0.1-0.2,0.1-0.3,0.2-0.5c0-0.1,0.1-0.2,0.1-0.3c0-0.1,0-0.1,0.1-0.2
	c0-0.1,0.1-0.2,0.1-0.4l0,0l1.2-1.4l1.1,1.1c0.3,0.3,0.7,0.3,1,0s0.3-0.7,0-1l-1.1-1.1l1.3-1.5l0.9,0.9c0.3,0.3,0.7,0.3,1,0
	s0.3-0.7,0-1l-0.9-0.9l1-1.1l1,1c0.3,0.3,0.7,0.3,1,0s0.3-0.7,0-1l-1-1C149.4,93.7,149.8,93.5,150.2,93.4z"/>
<path class="st6" d="M144.9,96.7c0,0.1-0.1,0.3-0.1,0.4s0,0.1-0.1,0.2c-0.1,0.2-0.1,0.3-0.2,0.5c0,0,0,0.1-0.1,0.1
	c-0.1,0.2-0.2,0.4-0.3,0.5c0,0,0,0.1-0.1,0.1c-0.1,0.2-0.2,0.3-0.3,0.5c-0.3,0-0.6,0.1-1,0.2l0,0c-1.9,0.5-3.5,1.8-4.4,3.5
	c0,0,0,0.1-0.1,0.1c-0.1,0.3-0.3,0.5-0.4,0.8l0,0h-1.3c0-0.1,0-0.2-0.1-0.2v-0.1c0-0.2,0-0.5-0.1-0.7c0,0,0,0,0-0.1
	c0-1,0.3-2,0.9-2.9c0,0,0,0,0-0.1c0.3-0.5,0.7-0.9,1.1-1.3c1.8-1.5,3.9-2.6,6.1-3.3C145,95.5,145,96.1,144.9,96.7L144.9,96.7z"/>
<path class="st6" d="M132.7,92.8c2.6,0,4.7,2.1,4.8,4.6c0,0,0,0.1-0.1,0.1c-0.2,0.2-0.3,0.3-0.5,0.5c0,0.1-0.1,0.1-0.1,0.2
	c-0.1,0.2-0.3,0.4-0.4,0.5c0,0.1-0.1,0.1-0.1,0.2c-0.1,0.1-0.1,0.2-0.2,0.2c-0.5,0.9-0.8,1.8-0.9,2.8l0,0c0,0.2,0,0.5,0,0.7v0.1
	c0,0.2,0,0.4,0.1,0.7v0.1h-0.9c0-0.1-0.1-0.1-0.1-0.2c-0.1-0.1-0.1-0.2-0.2-0.3c-0.1-0.1-0.2-0.3-0.2-0.4c-0.1-0.1-0.1-0.2-0.2-0.3
	c-0.1-0.1-0.2-0.2-0.3-0.4c-0.1-0.1-0.2-0.2-0.3-0.3c-0.1-0.1-0.2-0.2-0.4-0.3c-0.1-0.1-0.2-0.2-0.3-0.2c-0.1-0.1-0.3-0.2-0.4-0.3
	c-0.1-0.1-0.2-0.1-0.3-0.2s-0.3-0.1-0.5-0.2c-0.1,0-0.2-0.1-0.3-0.1c-0.2-0.1-0.4-0.1-0.5-0.1s-0.2,0-0.3-0.1
	c-0.3,0-0.6-0.1-0.9-0.1c-0.1,0-0.2,0-0.3,0c-0.1-0.1-0.2-0.3-0.3-0.4s-0.1-0.2-0.2-0.2c-0.1-0.2-0.3-0.4-0.4-0.5
	c-0.5-1.5-0.2-3,0.6-4.3C129.7,93.5,131.1,92.8,132.7,92.8L132.7,92.8z"/>
<path class="st6" d="M125.8,103.6c0-0.1,0.1-0.2,0.2-0.2c0.1-0.1,0.1-0.1,0.2-0.2s0.1-0.1,0.2-0.2s0.1-0.1,0.2-0.2s0.1-0.1,0.2-0.2
	s0.2-0.1,0.2-0.2c0.1,0,0.1-0.1,0.2-0.1c0.1-0.1,0.2-0.1,0.3-0.2c0.1,0,0.1-0.1,0.2-0.1c0.2-0.1,0.3-0.1,0.5-0.2l0,0
	c0.2-0.1,0.4-0.1,0.6-0.1c0.1,0,0.1,0,0.2,0c0.3,0,0.7,0,1,0c0.1,0,0.1,0,0.2,0c0.1,0,0.3,0.1,0.4,0.1c0.1,0,0.1,0,0.2,0.1
	c0.1,0,0.2,0.1,0.4,0.2c0.1,0,0.1,0.1,0.2,0.1c0.1,0.1,0.3,0.2,0.4,0.2l0.1,0.1c0.2,0.1,0.3,0.2,0.4,0.4l0.1,0.1
	c0.1,0.1,0.2,0.2,0.3,0.4c0,0.1,0.1,0.1,0.1,0.2s0.1,0.1,0.1,0.2L125.8,103.6C125.8,103.7,125.8,103.6,125.8,103.6z"/>
<path class="st6" d="M123.5,97.5c0.5,0,1.9,0.2,3.5,2.3c0.1,0.2,0.2,0.3,0.4,0.5c0,0.1,0.1,0.1,0.1,0.2c0,0,0,0,0,0.1h-0.1
	c-0.2,0.1-0.4,0.2-0.6,0.3c-0.1,0-0.1,0.1-0.2,0.1c-0.5,0.2-0.9,0.6-1.2,0.9l-0.1,0.1c-0.2,0.2-0.3,0.4-0.5,0.6l0,0
	c-0.1,0.2-0.3,0.4-0.4,0.7c0,0.1-0.1,0.1-0.1,0.2s-0.1,0.2-0.1,0.2h-1.3C122.1,101.7,122.3,99.3,123.5,97.5L123.5,97.5z"/>
<path class="st6" d="M157.5,105.6c-1.9,4.6-5.2,8.4-9.4,11h-1.8c-0.4,0-0.7,0.3-0.7,0.7c0,0.4,0.3,0.7,0.7,0.7h1.4v0.8
	c0,0.3-0.3,0.6-0.6,0.6h-16.5c-0.3,0-0.6-0.3-0.6-0.6V118h8.2c0.4,0,0.7-0.3,0.7-0.7c0-0.4-0.3-0.7-0.7-0.7h-8.6
	c-4.2-2.6-7.5-6.4-9.4-11L120,105h37.8L157.5,105.6z"/>
<path class="st6" d="M136.1,88.7c-1.4,0-2.6,0.7-3.4,1.8c-0.8-1.1-2-1.8-3.4-1.8c-0.4,0-0.7,0.3-0.7,0.7s0.3,0.7,0.7,0.7
	c1.5,0,2.7,1.2,2.7,2.7c0,0.4,0.3,0.7,0.7,0.7s0.7-0.3,0.7-0.7c0-1.5,1.2-2.7,2.7-2.7c0.4,0,0.7-0.3,0.7-0.7S136.4,88.7,136.1,88.7
	L136.1,88.7z"/>
<path class="st6" d="M153.9,94.1l-1-0.3l1.3-1.3c0.3-0.3,0.3-0.7,0-1s-0.7-0.3-1,0l-1.3,1.3l-0.3-1c-0.1-0.4-0.5-0.5-0.9-0.4
	s-0.5,0.5-0.4,0.9l0.7,2l0,0l0,0c0,0,0,0,0,0.1c0,0,0,0.1,0.1,0.1l0,0l0,0l0,0c0.1,0,0.1,0.1,0.2,0.1l0,0l0,0l0,0l0,0l2,0.7
	c0.4,0.1,0.7-0.1,0.9-0.4C154.4,94.6,154.2,94.3,153.9,94.1L153.9,94.1z"/>
<path class="st2" d="M129.8,24.6c-1.1-0.4-2.3-0.6-3.5-0.5c-0.7,0-0.8,1,0,0.9c1.1-0.1,2.2,0.1,3.2,0.5c0.3-0.4,0.6-0.7,0.8-0.9
	c0.3-0.2,0.7-0.5,1.2-0.7c0-0.1-0.1-0.1-0.2-0.2c-1.9-1.1-2.8-2.8-3.7-4.5c-0.3-0.5-1.3-0.1-1,0.5c0.4,0.8,0.9,1.6,1.4,2.4
	c-0.7-0.6-1.3-1.3-1.9-2c-0.4-0.5-1.4,0-1,0.5C126.4,22.1,127.9,23.5,129.8,24.6L129.8,24.6z"/>
<path class="st2" d="M129.8,25.7c-0.4,0.5-0.7,1.2-0.7,1.8c0,0.5,0.3,1,0.8,1.3l0.6,0.3c0.1-1,0.4-1.9,1.3-2.7
	c0.5-0.4,1.3,0.2,0.8,0.7c-0.8,0.7-1,1.7-1,2.6l1.3,0.8c0.2-0.8,0.5-1.5,1.3-2.2c0.5-0.4,1.3,0.2,0.8,0.7c-0.7,0.6-0.9,1.4-1,2.2
	l1.3,0.8c0.2-0.6,0.5-1.2,1.1-1.8c0.5-0.4,1.3,0.2,0.8,0.7c-0.6,0.5-0.8,1.1-0.9,1.7l6.3,3.7c0.4,0.3,0.8,0.4,1.2,0.4
	c0.5,0,1-0.2,1.2-0.6c0.3-0.4,0.1-1-0.4-1.4l-9.1-10.6c-0.4-0.4-0.9-0.5-1.5-0.5c-0.9,0-2.4-1.2-3.1-0.8c-0.4,0.2-0.2,2-0.4,2.2
	C130.3,25,130.1,25.3,129.8,25.7L129.8,25.7z"/>
<path class="st2" d="M81.2,45C69,45,59.1,35.1,59.1,22.9S69,0.8,81.2,0.8s22.1,9.9,22.1,22.1S93.4,45,81.2,45z M81.2,1.8
	c-11.6,0-21.1,9.5-21.1,21.1S69.6,44,81.2,44s21.1-9.5,21.1-21.1S92.9,1.8,81.2,1.8z"/>
<path class="st7" d="M23.4,45.6c-12.2,0-22.1-9.9-22.1-22.1S11.2,1.4,23.4,1.4s22.1,9.9,22.1,22.1S35.6,45.6,23.4,45.6z M23.4,2.4
	c-11.6,0-21.1,9.5-21.1,21.1s9.5,21.1,21.1,21.1s21.1-9.5,21.1-21.1C44.5,11.8,35,2.4,23.4,2.4z"/>
<g>
	<path class="st7" d="M33.4,16.8c-1.6-0.2-5.3-2.7-8-1.8s-2.5,1.5-3.8,2c-1.3,0.4-1.6-0.2-4.2,0.6c-2.7,0.9-4.3,5.1-5.4,6.2
		c0,0-1.1,1.1-0.7,2.4c0.4,1.3,1.8,0.9,1.8,0.9c4.7-1.5,6.2-3.5,6.2-3.5s2.4,0.7,4.4,0s3.6-2.7,3.6-2.7s2.4,0.7,7.1-0.9
		c0,0,1.3-0.5,0.9-1.8C35,17.1,33.4,16.8,33.4,16.8"/>
	<path class="st7" d="M32.7,21.5c-4,1.3-3.1,4-7.8,5.5s-5.6-1.1-9.6,0.2c-1.3,0.4-1.8,1.3-1.6,2c0.7,2,6,6.9,13.3,4.5
		c7.4-2.4,8.7-9.5,8.1-11.5C35,21.5,34.1,21.1,32.7,21.5"/>
</g>
<g class="st0">
	<path class="st3" d="M21.5,94.4c2,0.4,2.9,1.4,3.1,2.7c0,1.2-0.9,2.6-1.6,3.4c-1.5,1.8-4,3.7-6.5,3.5c-2-0.1-2.1-2.3-2.1-2
		c0,0.9,0.5,1.8,1.4,2.2c0.8,0.4,1.9,0.2,2.7,0c0.7-0.2,1.4-0.5,2.1-0.9c-0.4,0.3-0.8,0.7-1.2,1c-1.7,1.2-3.4,1.3-4.9,2.2
		c-2.8,1.5-3.2,4.6-3.2,4.6s0.6-3.2,6.1-4.5h0.2c-1.8,2-2.4,4.3,0.8,8.3c-2.1-6.5,4-8.6,6.9-11.3C29.8,99.6,28.7,94,21.5,94.4z"/>
	<path class="st3" d="M32.3,106.9c1.1,0.3,1.8,0.3,3.2-0.1l-0.5-0.1c-0.7-0.1-0.8-0.2-1.5-0.4c-2.3-0.9-2.9-4-3.6-6.1
		C29.5,99,29,97.9,28.4,97c-0.2-0.2-0.7-0.7-0.7-0.7c1.1,1.8,1.3,2.9,0.8,5.6c-0.6,2.9,2.1,3.8,0.5,4.5c-1.2,0.5-0.8,0.6-0.5,1.2
		c0.1,0.4-0.1,0.5-0.6,0.7c0.3,0.8,0.3,0.7-0.4,0.9c-0.7,0.3,0.4,1.8-1.1,1.9c-1,0-1.8-0.7-3-0.4c-2.3,3.9,3.3,4.7,6.3,8.7
		c-0.2-2-3.2-4.1-0.8-6.7c-0.2,2.5,0.4,5.4,3,6.5c-0.3-0.6-0.8-1.1-1.1-1.8c-0.4-1-0.6-2.2-0.6-3.3c0.2-4.9,0.3,2.9,5.3,2.5
		c-1.3-0.8-2-1.3-2.4-3.2c-0.6-3.2-0.8-3.5-1.7-4.7c0.2,0.3,1.6,0.7,2.8,1.9c1.3,1.4,1,2.1,1.3,3.8C36.6,108.6,32.7,109,32.3,106.9
		L32.3,106.9z"/>
	<path class="st3" d="M11.1,106.3c0,0,0.7-0.3,0.9-0.6c0.3-0.3-0.2-0.6-0.8,0.3C11.2,106.1,11.1,106.2,11.1,106.3z"/>
</g>
<g class="st0">
	<g class="st3">
		<path d="M83.9,99.5l-4.6,5.5c-1.3-0.7-2.7-1.1-4.3-1.1c-1.5,0-3,0.4-4.3,1.1l-4.5-5.5v13.9c0,0.4,0,0.7,0,1.1
			c0,5.3,2.2,9.9,5.3,11.8c-1.7-2.3-3.3-4.7-2.6-7.1c4-0.2,4.4-0.2,4.4-0.2l1.4,1.2l1.7-1.2c2.9,0,4.3,0.1,4.3,0.1
			c0.2,1.5-0.1,4.7-2.6,7.2c3.1-1.9,5.3-6.5,5.3-11.9c0-0.4,0-0.7,0-1.1L83.9,99.5z M73.1,115.2c-0.4,0.2-1.4,0.7-1.8,0.9
			c-0.4,0.1-1,0.2-1.3,0c-0.2-0.2-1-0.9-1.1-1.1c-0.2-0.2-0.3-1.5,0.6-1.4s3.4,1.1,3.5,1.1C73.2,114.7,73.5,115,73.1,115.2
			L73.1,115.2z M81.1,114.9c-0.2,0.2-0.9,0.9-1.1,1.1s-0.8,0.1-1.3,0c-0.4-0.1-1.4-0.7-1.8-0.9c-0.4-0.2-0.1-0.5,0.1-0.6
			s2.6-1.1,3.5-1.1C81.4,113.4,81.3,114.8,81.1,114.9L81.1,114.9z"/>
	</g>
</g>
<g class="st0">
	<path class="st1" d="M83.6,27.6c0-0.2-0.2-0.4-0.4-0.3c0,0-1,0.3-1.8,0.3s-1.8-0.3-1.8-0.3c-0.2-0.1-0.4,0.1-0.4,0.3v1.2
		c0,0.2,0.2,0.4,0.4,0.4h3.5c0.2,0,0.4-0.2,0.4-0.4v-1.2H83.6z"/>
	<path class="st1" d="M87.6,12.3c0-0.5-0.4-0.8-0.8-0.8H76c-0.5,0-0.8,0.4-0.8,0.8v6.8c0,2.1,0.6,4,1.8,5.4c1.1,1.4,2.7,2.2,4.5,2.2
		c1.7,0,3.3-0.8,4.5-2.2c1.1-1.4,1.8-3.3,1.8-5.4v-6.8H87.6z"/>
	<path class="st1" d="M74.4,20.7c-1.1-0.4-1.6-1.4-1.6-3V14h1.5v-1.6H72c-0.5,0-0.8,0.4-0.8,0.8v4.5c0,2.7,1.3,4.4,3.7,4.8
		C74.7,21.9,74.5,21.3,74.4,20.7L74.4,20.7z"/>
	<path class="st1" d="M76,30.4c-0.5,0-0.8,0.4-0.8,0.8v4.1c0,0.5,0.4,0.8,0.8,0.8h10.8c0.5,0,0.8-0.4,0.8-0.8v-4.1
		c0-0.5-0.4-0.8-0.8-0.8H76z"/>
	<path class="st1" d="M90.9,12.4h-2.3V14h1.5v3.7c0,1.6-0.5,2.6-1.6,3c-0.1,0.6-0.2,1.2-0.4,1.8c2.4-0.4,3.7-2.1,3.7-4.8v-4.5
		C91.7,12.8,91.3,12.4,90.9,12.4L90.9,12.4z"/>
</g>
</svg>
