<?xml version="1.0" encoding="utf-8"?>
<!-- Generator: Adobe Illustrator 22.0.1, SVG Export Plug-In . SVG Version: 6.00 Build 0)  -->
<svg version="1.1" id="Layer_1" xmlns="http://www.w3.org/2000/svg" xmlns:xlink="http://www.w3.org/1999/xlink" x="0px" y="0px"
	 viewBox="0 0 47.3 46.5" style="enable-background:new 0 0 47.3 46.5;" xml:space="preserve">
<style type="text/css">
	.st0{display:none;}
	.st1{display:inline;fill:#D24A43;}
	.st2{display:none;fill:#D24A43;}
	.st3{display:inline;}
	.st4{fill:#D24A43;}
	.st5{display:inline;fill:#FFFFFF;}
	.st6{display:none;fill:#090E0D;}
	.st7{fill:#BF1E2E;}
</style>
<g class="st0">
	<path class="st1" d="M144.2,17.1c0-0.2,0-0.5,0-0.7c0-3.3-2.7-6-6-6s-6,2.7-6,6c0,0.2,0,0.5,0,0.7c-2.8,1.9-4.6,5.1-4.6,8.7
		c0,2.5,0.9,4.7,2.3,6.5c0.6,0.8,1.6,1.3,2.7,1.3h11.2c1,0,2-0.5,2.7-1.3c1.4-1.8,2.3-4,2.3-6.5C148.7,22.2,146.9,19,144.2,17.1
		L144.2,17.1z M138.2,12.7c1.9,0,3.4,1.4,3.7,3.2c-1.1-0.4-2.4-0.7-3.7-0.7s-2.5,0.2-3.7,0.7C134.8,14.1,136.4,12.7,138.2,12.7
		L138.2,12.7z M137.5,27.7c-0.1,0.2-0.4,0.4-0.6,0.4c-0.2,0-0.5-0.1-0.6-0.3l-0.9-1.5l-0.4,0.4v0.7c0,0.4-0.3,0.7-0.7,0.7
		s-0.7-0.3-0.7-0.7v-5.1c0-0.4,0.3-0.7,0.7-0.7s0.7,0.3,0.7,0.7v3.2l1-1.6c0.1-0.2,0.3-0.3,0.6-0.3c0.2,0,0.4,0.1,0.5,0.3
		c0.1,0.2,0.1,0.5-0.1,0.6l-0.7,0.8l1.1,1.6C137.6,27.2,137.6,27.5,137.5,27.7L137.5,27.7z M142.8,25v2.5c0,0.9-0.2,1.6-0.7,2
		s-1.2,0.6-1.8,0.6c-0.4,0-0.8,0-1.1-0.1s-0.5-0.4-0.4-0.7c0-0.1,0.1-0.2,0.2-0.3c0.1-0.1,0.3-0.1,0.4,0c0.2,0.1,0.5,0.1,0.8,0.1
		c0.7,0,1.2-0.4,1.2-1.2v-0.3l0,0c-0.3,0.4-0.7,0.6-1.2,0.6c-1.1,0-1.9-0.9-1.9-2.2c0-1.4,0.9-2.4,2-2.4c0.6,0,1,0.3,1.2,0.6l0,0
		c0-0.3,0.3-0.5,0.6-0.5h0.1c0.2,0,0.3,0.1,0.4,0.2c0.1,0.1,0.2,0.3,0.2,0.4C142.8,24.4,142.8,24.7,142.8,25L142.8,25z"/>
	<path class="st1" d="M140.6,24.6c-0.5,0-0.9,0.5-0.9,1.3c0,0.7,0.3,1.2,0.9,1.2c0.4,0,0.6-0.2,0.7-0.6c0-0.1,0-0.2,0-0.4v-0.7
		c0-0.1,0-0.2,0-0.3C141.3,24.8,141,24.6,140.6,24.6L140.6,24.6z"/>
</g>
<path class="st2" d="M138,45c-12.2,0-22.1-9.9-22.1-22.1S125.8,0.8,138,0.8s22.1,9.9,22.1,22.1S150.2,45,138,45z M138,1.8
	c-11.6,0-21.1,9.5-21.1,21.1S126.3,44,138,44c11.6,0,21.1-9.5,21.1-21.1S149.6,1.8,138,1.8z"/>
<path class="st2" d="M192,45c-12.2,0-22.1-9.9-22.1-22.1S179.8,0.8,192,0.8s22.1,9.9,22.1,22.1S204.2,45,192,45z M192,1.8
	c-11.6,0-21.1,9.5-21.1,21.1S180.3,44,192,44c11.6,0,21.1-9.5,21.1-21.1S203.6,1.8,192,1.8z"/>
<path class="st2" d="M82.7,45.6c-12.2,0-22.1-9.9-22.1-22.1S70.5,1.4,82.7,1.4s22.1,9.9,22.1,22.1S94.9,45.6,82.7,45.6z M82.7,2.4
	c-11.6,0-21.1,9.5-21.1,21.1s9.5,21.1,21.1,21.1s21.1-9.5,21.1-21.1C103.8,11.8,94.3,2.4,82.7,2.4z"/>
<g class="st0">
	<g class="st3">
		<path class="st4" d="M190.3,30.9h-4.7c-0.9,0-1.6-0.7-1.6-1.6V14.7c0-0.9,0.7-1.6,1.6-1.6H197c0.9,0,1.6,0.7,1.6,1.6V27l2.1-2.5
			V13.1c0-1.2-0.9-2.1-2.1-2.1h-14.8c-1.1,0-2,0.9-2,2.1V31c0,1.2,0.9,2.1,2.1,2.1h8.3l-1-0.8C190.8,31.8,190.5,31.4,190.3,30.9
			L190.3,30.9z"/>
		<path class="st4" d="M196.1,15.8h-9.5c-0.6,0-1.1,0.5-1.1,1.1s0.5,1.1,1.1,1.1h9.5c0.6,0,1-0.5,1-1.1
			C197.2,16.2,196.7,15.8,196.1,15.8L196.1,15.8z"/>
		<path class="st4" d="M196.1,19.3h-9.5c-0.6,0-1.1,0.5-1.1,1.1s0.5,1.1,1.1,1.1h9.5c0.6,0,1-0.5,1-1.1
			C197.2,19.7,196.7,19.3,196.1,19.3L196.1,19.3z"/>
		<path class="st4" d="M196.1,22.8h-9.5c-0.6,0-1.1,0.4-1.1,1s0.5,1,1.1,1h9.5c0.6,0,1-0.4,1-1C197.2,23.2,196.7,22.8,196.1,22.8
			L196.1,22.8z"/>
		<path class="st4" d="M185.6,27.2c0,0.6,0.5,1,1.1,1h3.5c0.1-0.4,0.4-0.8,0.7-1.2c0.3-0.4,0.7-0.7,1.1-0.9h-5.3
			C186.1,26.1,185.6,26.6,185.6,27.2L185.6,27.2z"/>
		<path class="st4" d="M196.1,26.1h-0.8c0.3,0.1,0.5,0.3,0.7,0.5l1.1,0.9c0-0.1,0.1-0.2,0.1-0.4C197.2,26.6,196.7,26.1,196.1,26.1
			L196.1,26.1z"/>
		<path class="st4" d="M206.5,23.3c-0.8-0.7-1.9-0.6-2.6,0.2l-6.1,7.1l-3-2.6c-0.8-0.7-1.9-0.6-2.6,0.2c-0.7,0.8-0.6,1.9,0.2,2.6
			l4.4,3.8c0.3,0.3,0.8,0.4,1.2,0.4h0.1c0.5,0,0.9-0.3,1.3-0.6l7.3-8.5C207.4,25.1,207.3,24,206.5,23.3L206.5,23.3z"/>
	</g>
</g>
<g class="st0">
	<path class="st3" d="M141.4,108.7c-2.4-2.4-6.3-2.4-8.6,0c-1.2,1.2-1.8,2.7-1.8,4.3s0.6,3.2,1.8,4.3c0.6,0.6,1.3,1,2,1.3
		c-0.3,0.4-0.5,0.6-0.7,0.8c-0.9,0.6-1.7,1.4-2.3,2.3c-0.1-0.5-0.2-0.9-0.4-1.4c-0.8-1.9-2.3-3.2-4.3-3.7l-0.7-0.2
		c0-0.1,0-0.1,0-0.2c-0.8-3.4-3.7-6-7.2-6.5c-0.3,0-0.6,0.2-0.7,0.5c0,0.3,0.2,0.6,0.5,0.7c3,0.4,5.5,2.6,6.1,5.5
		c0.3,1.3,0.6,2.5,0.9,3.4c0.1,0.3,0.3,0.4,0.6,0.4c0.1,0,0.1,0,0.2,0c0.3-0.1,0.5-0.5,0.4-0.8c-0.2-0.5-0.4-1.1-0.5-1.8h0.1
		c1.6,0.4,2.8,1.4,3.4,2.9s0.5,3.1-0.3,4.4l-0.1,0.1c-0.2,0.3-0.1,0.7,0.2,0.8c0.1,0.1,0.2,0.1,0.3,0.1c0.2,0,0.4-0.1,0.5-0.3
		l0.1-0.1c0.3-0.5,0.6-1.1,0.7-1.7c0.7-1.4,1.8-2.7,3.1-3.7c0.4-0.3,0.9-0.8,1.2-1.4c0.3,0.1,0.7,0.1,1,0.1c0.4,0,0.8,0,1.2-0.1
		c-0.5,1.8-0.9,3.4-1.3,4.8c-0.8,3.1-2.8,7.1-4.7,8.1c-0.4,0.2-0.7,0.3-1,0.2c-8.8-4-10.6-8.2-10.9-9.8c-0.1-0.3-0.4-0.5-0.7-0.5
		c-1.5-0.4-2.8-1.3-3.6-2.6c-0.9-1.3-1.2-2.9-0.9-4.5c0.1-0.3-0.1-0.7-0.5-0.7c-0.3-0.1-0.7,0.1-0.7,0.5c-0.4,1.9,0,3.8,1,5.4
		c1,1.5,2.5,2.6,4.2,3.1c0.3,1,1,2.4,2.4,4.1c2,2.3,5.1,4.4,9.1,6.2l0,0c0.2,0.1,0.5,0.1,0.7,0.1c0.4,0,0.8-0.1,1.3-0.3
		c1.3-0.7,2.5-2.4,3.2-3.7c0.9-1.6,1.6-3.5,2.1-5.2c0.4-1.5,0.9-3.4,1.5-5.5c0.6-0.3,1.2-0.7,1.7-1.2
		C143.7,114.9,143.7,111,141.4,108.7L141.4,108.7z M137,117.9c-1.3,0-2.5-0.5-3.5-1.4c-0.9-0.9-1.4-2.1-1.4-3.5
		c0-1.3,0.5-2.5,1.4-3.5c1-1,2.2-1.4,3.5-1.4s2.5,0.5,3.5,1.4c1.9,1.9,1.9,5,0,6.9C139.6,117.3,138.4,117.9,137,117.9L137,117.9z"/>
	<path class="st3" d="M135.9,111.8c-0.6,0.6-0.6,1.6,0,2.3c0.3,0.3,0.7,0.5,1.1,0.5c0.4,0,0.8-0.2,1.1-0.5c0.6-0.6,0.6-1.6,0-2.3
		C137.6,111.2,136.5,111.2,135.9,111.8L135.9,111.8z M137.3,113.2c-0.1,0.1-0.4,0.1-0.5,0s-0.1-0.4,0-0.5s0.2-0.1,0.3-0.1
		s0.2,0,0.3,0.1C137.5,112.8,137.5,113.1,137.3,113.2L137.3,113.2z"/>
	<path class="st3" d="M137,117.3L137,117.3c-2.4,0-4.3-2-4.3-4.3l0,0c0-2.4,2-4.3,4.3-4.3l0,0c2.4,0,4.3,2,4.3,4.3l0,0
		C141.4,115.4,139.4,117.3,137,117.3z"/>
	<path class="st5" d="M138.2,113c0,0.6-0.5,1.1-1.1,1.1s-1.1-0.5-1.1-1.1s0.5-1.1,1.1-1.1C137.7,111.8,138.2,112.3,138.2,113z"/>
</g>
<path class="st6" d="M142.1,82.6h-1v-2.5c0-0.8-0.7-1.5-1.5-1.5h-2c-0.8,0-1.5,0.7-1.5,1.5V84H135l-0.1-0.3
	c-0.5-1.3-1.8-2.2-3.2-2.2l0,0c-0.2-0.6-0.7-1-1.4-1c-0.4,0-0.7,0.1-1,0.4c-0.3-0.2-0.6-0.4-1-0.4c-0.4,0-0.7,0.1-1,0.4
	c-0.3-0.2-0.6-0.4-1-0.4s-0.7,0.1-1,0.4c-0.3-0.2-0.6-0.4-1-0.4c-0.8,0-1.5,0.7-1.5,1.5v2h-1.5v-3.9c0-0.8-0.7-1.5-1.5-1.5h-2
	c-0.8,0-1.5,0.7-1.5,1.5v2.5h-1c-0.8,0-1.5,0.7-1.5,1.5V89c0,0.8,0.7,1.5,1.5,1.5h1V93c0,0.8,0.7,1.5,1.5,1.5h2
	c0.8,0,1.5-0.7,1.5-1.5v-4h1.1l0.4,1.2c0,0.1,0,0.1,0.1,0.2l1.3,1.7l-0.8,8.8c0,0.4,0.1,0.7,0.3,1c0.2,0.3,0.6,0.4,0.9,0.4h6.7
	c0.4,0,0.7-0.2,0.9-0.4c0.2-0.3,0.4-0.6,0.3-1l-0.9-8.6c0-0.1,0-0.2,0.1-0.2l2.7-2.3c0.2-0.2,0.4-0.5,0.5-0.8h1.1v4
	c0,0.8,0.7,1.5,1.5,1.5h2c0.8,0,1.5-0.7,1.5-1.5v-2.5h1c0.8,0,1.5-0.7,1.5-1.5v-4.9C143.6,83.3,142.9,82.6,142.1,82.6z M130.3,81.6
	c0.3,0,0.5,0.2,0.5,0.5v2.5V85c0,0.2-0.1,0.4-0.2,0.5l0,0h-0.1h-0.1h-0.1h-0.1c0,0-0.1,0-0.1-0.1c0,0,0,0-0.1,0l-0.1-0.1l0,0
	c0-0.1,0-0.1,0-0.2v-3C129.8,81.9,130,81.6,130.3,81.6z M128.3,81.6c0.3,0,0.5,0.2,0.5,0.5v3c0,0.3-0.2,0.5-0.5,0.5
	s-0.5-0.2-0.5-0.5v-3C127.8,81.9,128,81.6,128.3,81.6z M126.3,81.6c0.3,0,0.5,0.2,0.5,0.5v3c0,0.3-0.2,0.5-0.5,0.5s-0.5-0.2-0.5-0.5
	v-3C125.8,81.9,126,81.6,126.3,81.6z M123.9,82.1c0-0.3,0.2-0.5,0.5-0.5s0.5,0.2,0.5,0.5v3c0,0.1,0,0.1,0,0.2l0,0c0,0,0,0.1-0.1,0.1
	c0,0,0,0-0.1,0c0,0-0.1,0-0.1,0.1h-0.1h-0.1h-0.1h-0.1l0,0c-0.1-0.1-0.2-0.3-0.2-0.5v-0.4v-2.5H123.9z M131.2,91.3
	c-0.3,0.3-0.5,0.7-0.4,1.1l0.9,8.6c0,0.1,0,0.2-0.1,0.2c0,0-0.1,0.1-0.2,0.1h-6.7c-0.1,0-0.2-0.1-0.2-0.1s-0.1-0.1-0.1-0.2l0.9-9
	c0-0.1,0-0.2-0.1-0.3l-1.4-1.8l-0.3-0.8h7.5c0.3,0,0.5-0.1,0.7-0.3l0.7-0.7c0.2-0.2,0.3-0.4,0.3-0.7v-1.8c0-0.6-0.4-1.2-1-1.4v-1.6
	c1,0,1.9,0.6,2.2,1.6l0.2,0.5v0.1v3.7c0,0.2-0.1,0.4-0.3,0.6L131.2,91.3z"/>
<path class="st0" d="M175.2,88.3c-0.1-0.2-0.1-0.1-0.2-0.3c-0.3-1.2-0.2-2.6-1.1-3.9c-1.4-2.2-5-5.7-6.4-6.3c-0.1,0-0.1,0-0.2-0.1
	c0-0.3-0.2-0.7-0.7-0.9c-1.4-0.7-3-1.4-3.9-1c-0.5,0.2-0.9-0.2-1.1,0.3c-0.1,0.3-0.7,0.9-0.6,1.6c0,0.2,0.4,1.1,0.8,1.3
	c0.1,0.2-0.5-0.1-0.2,0.6c0.4,0.7,3.5-0.6,4.2,0.2c0.7,1.1,0.8,4.6,2.1,6.8c-0.2,0-1.5-2-3.8-1.4s-2.9,2.5-2.9,2.5
	c-2.2-2.1-5.8-0.6-6.3,1.4v9.4h2.2l0.8-1.5c1.5-0.6,2.6-3,3.8-4.5c1.6,0.2,4.1-0.2,5.1-0.3c0.9-0.1,4.3-1.1,5.3-1.4
	C174.6,89.8,175.8,89.9,175.2,88.3L175.2,88.3z"/>
<path class="st2" d="M92.1,22.7c0.1-0.6,0.1-1.1-0.1-1.7c0.2-0.3,0.3-0.6,0.4-1c0.3-1.5-0.3-2.9-1.5-3.7c0.1-1.1-0.4-2.2-1.2-2.9
	c0.7-0.7,1.5-1.1,2.2-0.8c0.5,0.2,0.8,0.6,1,1.3c0.5-0.1,1-0.1,1.4,0.2s0.7,0.7,0.8,1.2c0.1,0.7,0,1.6-0.5,2.3
	C94.8,18,95,18.5,95,19c0.1,0.9-0.2,1.8-0.8,2.6c-0.1,0.1-0.1,0.2-0.2,0.3c0.3,0.3,0.5,0.8,0.6,1.3c0.1,0.8-0.2,1.7-0.8,2.4
	c-0.3,0.3-0.6,0.6-1,0.8c0,0.5-0.2,1-0.5,1.4c-0.5,0.6-1.2,0.9-1.9,0.8c-1.3,1.6-2.6,2.3-4.4,2.8c2.4-1.9,3.8-3.7,4.5-6.6
	C91.3,24.4,91.9,23.6,92.1,22.7L92.1,22.7z"/>
<path class="st2" d="M78.1,17c0.3-1.3,1.3-2.4,2.5-2.7c0.4-1.1,1.5-1.8,2.6-1.7c0-0.1,0.1-0.2,0.1-0.3c0.3-0.6,1-1,1.7-1
	c0.5,0,0.8,0.2,1.1,0.6c0.3-0.1,0.7-0.2,1.1-0.1c0.9,0.2,1.6,1.1,1.5,2.1c1,0.4,1.6,1.6,1.4,2.8c0,0.1,0,0.1,0,0.2
	c1.2,0.5,1.9,1.8,1.6,3.2c-0.1,0.4-0.2,0.8-0.5,1.1c0.3,0.5,0.4,1,0.2,1.6c-0.2,0.8-0.8,1.5-1.5,1.7c-0.6,3.1-2.1,4.8-4.7,6.9
	L85,31.2l0,0c-0.4,0.3-0.9,0.4-1.4,0.3c-0.1,0-0.2,0-0.3-0.1l0.2-0.2c1.1-1.6,1.8-3.1,2.4-4.4c1-0.1,1.5-0.8,1.5-0.8
	c0.1-0.1,0.1-0.4,0-0.5s-0.4-0.1-0.5,0.1c0,0-0.3,0.3-0.7,0.5c0.3-0.9,0.5-1.7,0.6-2.4v-0.1c0.2-1.1,0.2-2,0.1-2.8
	c1.2-0.5,1.6-1.7,1.7-2.4c0-0.2-0.1-0.4-0.3-0.4c-0.2,0-0.3,0.1-0.4,0.3c0,0.1-0.1,1.2-1.1,1.7c0-0.1,0-0.2-0.1-0.3
	c-0.5-2-1.5-3.2-1.9-3.6c0.1-0.7-0.2-1.4-0.2-1.4c-0.1-0.2-0.3-0.2-0.4-0.2C84,14.6,83.9,14.8,84,15c0.1,0.1,0.1,0.4,0.1,0.7
	c-0.7-0.2-1.6,0-1.6,0.1c-0.2,0.1-0.3,0.3-0.2,0.4c0,0.1,0.1,0.2,0.2,0.2s0.1,0,0.2,0c0.3-0.1,1-0.3,1.4,0.1
	c0.1,0.1,0.6,0.5,1.1,1.3c-1.3-0.4-2.3-0.2-2.3-0.1c-0.2,0-0.3,0.2-0.3,0.4c0,0.1,0.1,0.2,0.3,0.3H83c0,0,1.2-0.3,2.6,0.4
	c0.2,0.5,0.4,1.1,0.5,1.7v0.1v0.1c0.1,0.6,0.1,1.2,0.1,1.9c-0.6-0.6-1.6-0.9-1.6-0.9l0,0c-0.2,0-0.4,0.1-0.4,0.3
	c0,0.2,0.1,0.4,0.3,0.4c0,0,1.4,0.3,1.6,1.2c-0.1,0.8-0.4,1.8-0.8,2.8l0,0c-0.5,1.3-1.3,2.8-2.4,4.4l-0.2,0.3
	c-0.2-0.2-0.4-0.4-0.5-0.6c-0.2-0.4-0.1-0.9,0.1-1.3c1-1.7,1.2-3.1,0.8-4.1c-0.6-1.4-2.2-1.9-3.2-2.1c-0.5-0.1-0.8-0.1-0.8-0.1h-0.3
	v-0.4c0,0,0.1-1.2,0.9-1.8l0.1-0.1c-0.2-0.1-0.3-0.2-0.5-0.3C78.4,19.6,77.8,18.3,78.1,17L78.1,17z"/>
<path class="st6" d="M97.6,100c-0.3,1.3-0.8,2.6-1.7,3.7h-1.5l0,0c-0.1-0.2-0.2-0.5-0.3-0.7c0,0,0-0.1-0.1-0.1
	c-0.1-0.2-0.2-0.4-0.4-0.6c0,0,0,0,0-0.1c-0.3-0.5-0.7-0.9-1.1-1.3C93.8,99.6,95.8,99.2,97.6,100L97.6,100z"/>
<path class="st6" d="M84.2,101.2C84.3,101.2,84.3,101.1,84.2,101.2c0.3-0.2,0.5-0.3,0.8-0.4c0.1,0,0.1,0,0.2-0.1
	c0.2-0.1,0.4-0.2,0.7-0.2c0.1,0,0.2,0,0.2,0c0.2,0,0.4-0.1,0.6-0.1c0.1,0,0.2,0,0.3,0c0.2,0,0.4,0,0.6,0c0.1,0,0.2,0,0.2,0
	c0.2,0,0.5,0,0.7,0.1c0.1,0,0.1,0,0.2,0c0.3,0.1,0.5,0.1,0.8,0.2h0.1c0.3,0.1,0.5,0.2,0.8,0.3c0.3,0.1,0.5,0.3,0.8,0.5
	c0.2,0.2,0.4,0.3,0.6,0.5l0.1,0.1c0.2,0.2,0.4,0.4,0.5,0.6l0.1,0.1c0.2,0.3,0.3,0.5,0.5,0.8H82C82.4,102.6,83.2,101.8,84.2,101.2
	L84.2,101.2z"/>
<path class="st6" d="M92.7,93.4c1-0.1,1.9,0.5,2.2,1.4c0.3,0.9,0,2-0.8,2.5c0,0,0,0-0.1,0l-7,6.2c-0.8-0.4-1.7-0.6-2.7-0.7l0,0
	c0.1-0.1,0.1-0.2,0.2-0.3c0-0.1,0.1-0.2,0.1-0.2c0.1-0.2,0.1-0.3,0.2-0.5c0-0.1,0.1-0.2,0.1-0.3c0-0.1,0-0.1,0.1-0.2
	c0-0.1,0.1-0.2,0.1-0.4l0,0l1.2-1.4l1.1,1.1c0.3,0.3,0.7,0.3,1,0s0.3-0.7,0-1l-1.1-1.1l1.3-1.5l0.9,0.9c0.3,0.3,0.7,0.3,1,0
	s0.3-0.7,0-1L89.6,96l1-1.1l1,1c0.3,0.3,0.7,0.3,1,0s0.3-0.7,0-1l-1-1C91.9,93.7,92.3,93.5,92.7,93.4z"/>
<path class="st6" d="M87.4,96.7c0,0.1-0.1,0.3-0.1,0.4s0,0.1-0.1,0.2c-0.1,0.2-0.1,0.3-0.2,0.5c0,0,0,0.1-0.1,0.1
	c-0.1,0.2-0.2,0.4-0.3,0.5c0,0,0,0.1-0.1,0.1c-0.1,0.2-0.2,0.3-0.3,0.5c-0.3,0-0.6,0.1-1,0.2l0,0c-1.9,0.5-3.5,1.8-4.4,3.5
	c0,0,0,0.1-0.1,0.1c-0.1,0.3-0.3,0.5-0.4,0.8l0,0H79c0-0.1,0-0.2-0.1-0.2v-0.1c0-0.2,0-0.5-0.1-0.7c0,0,0,0,0-0.1c0-1,0.3-2,0.9-2.9
	c0,0,0,0,0-0.1c0.3-0.5,0.7-0.9,1.1-1.3c1.8-1.5,3.9-2.6,6.1-3.3C87.5,95.5,87.5,96.1,87.4,96.7L87.4,96.7z"/>
<path class="st6" d="M75.2,92.8c2.6,0,4.7,2.1,4.8,4.6c0,0,0,0.1-0.1,0.1c-0.2,0.2-0.3,0.3-0.5,0.5c0,0.1-0.1,0.1-0.1,0.2
	c-0.1,0.2-0.3,0.4-0.4,0.5c0,0.1-0.1,0.1-0.1,0.2c-0.1,0.1-0.1,0.2-0.2,0.2c-0.5,0.9-0.8,1.8-0.9,2.8l0,0c0,0.2,0,0.5,0,0.7v0.1
	c0,0.2,0,0.4,0.1,0.7v0.1h-0.9c0-0.1-0.1-0.1-0.1-0.2c-0.1-0.1-0.1-0.2-0.2-0.3c-0.1-0.1-0.2-0.3-0.2-0.4c-0.1-0.1-0.1-0.2-0.2-0.3
	c-0.1-0.1-0.2-0.2-0.3-0.4c-0.1-0.1-0.2-0.2-0.3-0.3c-0.1-0.1-0.2-0.2-0.4-0.3c-0.1-0.1-0.2-0.2-0.3-0.2c-0.1-0.1-0.3-0.2-0.4-0.3
	c-0.1-0.1-0.2-0.1-0.3-0.2c-0.1-0.1-0.3-0.1-0.5-0.2c-0.1,0-0.2-0.1-0.3-0.1c-0.2-0.1-0.4-0.1-0.5-0.1s-0.2,0-0.3-0.1
	c-0.3,0-0.6-0.1-0.9-0.1c-0.1,0-0.2,0-0.3,0c-0.1-0.1-0.2-0.3-0.3-0.4c-0.1-0.1-0.1-0.2-0.2-0.2c-0.1-0.2-0.3-0.4-0.4-0.5
	c-0.5-1.5-0.2-3,0.6-4.3C72.2,93.5,73.6,92.8,75.2,92.8L75.2,92.8z"/>
<path class="st6" d="M68.3,103.6c0-0.1,0.1-0.2,0.2-0.2c0.1-0.1,0.1-0.1,0.2-0.2s0.1-0.1,0.2-0.2s0.1-0.1,0.2-0.2s0.1-0.1,0.2-0.2
	s0.2-0.1,0.2-0.2c0.1,0,0.1-0.1,0.2-0.1c0.1-0.1,0.2-0.1,0.3-0.2c0.1,0,0.1-0.1,0.2-0.1c0.2-0.1,0.3-0.1,0.5-0.2l0,0
	c0.2-0.1,0.4-0.1,0.6-0.1c0.1,0,0.1,0,0.2,0c0.3,0,0.7,0,1,0c0.1,0,0.1,0,0.2,0s0.3,0.1,0.4,0.1s0.1,0,0.2,0.1
	c0.1,0,0.2,0.1,0.4,0.2c0.1,0,0.1,0.1,0.2,0.1c0.1,0.1,0.3,0.2,0.4,0.2l0.1,0.1c0.2,0.1,0.3,0.2,0.4,0.4l0.1,0.1
	c0.1,0.1,0.2,0.2,0.3,0.4c0,0.1,0.1,0.1,0.1,0.2s0.1,0.1,0.1,0.2L68.3,103.6C68.3,103.7,68.3,103.6,68.3,103.6z"/>
<path class="st6" d="M66,97.5c0.5,0,1.9,0.2,3.5,2.3c0.1,0.2,0.2,0.3,0.4,0.5c0,0.1,0.1,0.1,0.1,0.2c0,0,0,0,0,0.1h-0.1
	c-0.2,0.1-0.4,0.2-0.6,0.3c-0.1,0-0.1,0.1-0.2,0.1c-0.5,0.2-0.9,0.6-1.2,0.9l-0.1,0.1c-0.2,0.2-0.3,0.4-0.5,0.6l0,0
	c-0.1,0.2-0.3,0.4-0.4,0.7c0,0.1-0.1,0.1-0.1,0.2s-0.1,0.2-0.1,0.2h-1.3C64.6,101.7,64.8,99.3,66,97.5L66,97.5z"/>
<path class="st6" d="M100,105.6c-1.9,4.6-5.2,8.4-9.4,11h-1.8c-0.4,0-0.7,0.3-0.7,0.7c0,0.4,0.3,0.7,0.7,0.7h1.4v0.8
	c0,0.3-0.3,0.6-0.6,0.6H73.1c-0.3,0-0.6-0.3-0.6-0.6V118h8.2c0.4,0,0.7-0.3,0.7-0.7c0-0.4-0.3-0.7-0.7-0.7H72
	c-4.2-2.6-7.5-6.4-9.4-11l-0.2-0.6h37.8L100,105.6z"/>
<path class="st6" d="M78.6,88.7c-1.4,0-2.6,0.7-3.4,1.8c-0.8-1.1-2-1.8-3.4-1.8c-0.4,0-0.7,0.3-0.7,0.7s0.3,0.7,0.7,0.7
	c1.5,0,2.7,1.2,2.7,2.7c0,0.4,0.3,0.7,0.7,0.7c0.4,0,0.7-0.3,0.7-0.7c0-1.5,1.2-2.7,2.7-2.7c0.4,0,0.7-0.3,0.7-0.7
	S78.9,88.7,78.6,88.7L78.6,88.7z"/>
<path class="st6" d="M96.4,94.1l-1-0.3l1.3-1.3c0.3-0.3,0.3-0.7,0-1s-0.7-0.3-1,0l-1.3,1.3l-0.3-1c-0.1-0.4-0.5-0.5-0.9-0.4
	s-0.5,0.5-0.4,0.9l0.7,2l0,0l0,0c0,0,0,0,0,0.1c0,0,0,0.1,0.1,0.1l0,0l0,0l0,0c0.1,0,0.1,0.1,0.2,0.1l0,0l0,0l0,0l0,0l2,0.7
	c0.4,0.1,0.7-0.1,0.9-0.4S96.7,94.3,96.4,94.1L96.4,94.1z"/>
<path class="st2" d="M72.3,24.6c-1.1-0.4-2.3-0.6-3.5-0.5c-0.7,0-0.8,1,0,0.9c1.1-0.1,2.2,0.1,3.2,0.5c0.3-0.4,0.6-0.7,0.8-0.9
	c0.3-0.2,0.7-0.5,1.2-0.7c0-0.1-0.1-0.1-0.2-0.2c-1.9-1.1-2.8-2.8-3.7-4.5c-0.3-0.5-1.3-0.1-1,0.5c0.4,0.8,0.9,1.6,1.4,2.4
	c-0.7-0.6-1.3-1.3-1.9-2c-0.4-0.5-1.4,0-1,0.5C68.9,22.1,70.4,23.5,72.3,24.6L72.3,24.6z"/>
<path class="st2" d="M72.3,25.7c-0.4,0.5-0.7,1.2-0.7,1.8c0,0.5,0.3,1,0.8,1.3l0.6,0.3c0.1-1,0.4-1.9,1.3-2.7
	c0.5-0.4,1.3,0.2,0.8,0.7c-0.8,0.7-1,1.7-1,2.6l1.3,0.8c0.2-0.8,0.5-1.5,1.3-2.2c0.5-0.4,1.3,0.2,0.8,0.7c-0.7,0.6-0.9,1.4-1,2.2
	l1.3,0.8c0.2-0.6,0.5-1.2,1.1-1.8c0.5-0.4,1.3,0.2,0.8,0.7c-0.6,0.5-0.8,1.1-0.9,1.7l6.3,3.7c0.4,0.3,0.8,0.4,1.2,0.4
	c0.5,0,1-0.2,1.2-0.6c0.3-0.4,0.1-1-0.4-1.4L78,24.1c-0.4-0.4-0.9-0.5-1.5-0.5c-0.9,0-2.4-1.2-3.1-0.8C73,23,73.2,24.8,73,25
	C72.8,25,72.6,25.3,72.3,25.7L72.3,25.7z"/>
<path class="st7" d="M23.7,45C11.5,45,1.6,35.1,1.6,22.9S11.5,0.8,23.7,0.8s22.1,9.9,22.1,22.1S35.9,45,23.7,45z M23.7,1.8
	c-11.6,0-21.1,9.5-21.1,21.1S12.1,44,23.7,44s21.1-9.5,21.1-21.1S35.4,1.8,23.7,1.8z"/>
<path class="st2" d="M-34.1,45.6c-12.2,0-22.1-9.9-22.1-22.1s9.9-22.1,22.1-22.1S-12,11.3-12,23.5S-21.9,45.6-34.1,45.6z M-34.1,2.4
	c-11.6,0-21.1,9.5-21.1,21.1s9.5,21.1,21.1,21.1S-13,35.1-13,23.5C-13,11.8-22.5,2.4-34.1,2.4z"/>
<g class="st0">
	<path class="st1" d="M-24.1,16.8c-1.6-0.2-5.3-2.7-8-1.8c-2.7,0.9-2.5,1.5-3.8,2c-1.3,0.4-1.6-0.2-4.2,0.6
		c-2.7,0.9-4.3,5.1-5.4,6.2c0,0-1.1,1.1-0.7,2.4c0.4,1.3,1.8,0.9,1.8,0.9c4.7-1.5,6.2-3.5,6.2-3.5s2.4,0.7,4.4,0s3.6-2.7,3.6-2.7
		s2.4,0.7,7.1-0.9c0,0,1.3-0.5,0.9-1.8C-22.5,17.1-24.1,16.8-24.1,16.8"/>
	<path class="st1" d="M-24.8,21.5c-4,1.3-3.1,4-7.8,5.5s-5.6-1.1-9.6,0.2c-1.3,0.4-1.8,1.3-1.6,2c0.7,2,6,6.9,13.3,4.5
		c7.4-2.4,8.7-9.5,8.1-11.5C-22.5,21.5-23.4,21.1-24.8,21.5"/>
</g>
<g class="st0">
	<path class="st3" d="M-36,94.4c2,0.4,2.9,1.4,3.1,2.7c0,1.2-0.9,2.6-1.6,3.4c-1.5,1.8-4,3.7-6.5,3.5c-2-0.1-2.1-2.3-2.1-2
		c0,0.9,0.5,1.8,1.4,2.2c0.8,0.4,1.9,0.2,2.7,0c0.7-0.2,1.4-0.5,2.1-0.9c-0.4,0.3-0.8,0.7-1.2,1c-1.7,1.2-3.4,1.3-4.9,2.2
		c-2.8,1.5-3.2,4.6-3.2,4.6s0.6-3.2,6.1-4.5h0.2c-1.8,2-2.4,4.3,0.8,8.3c-2.1-6.5,4-8.6,6.9-11.3C-27.7,99.6-28.8,94-36,94.4z"/>
	<path class="st3" d="M-25.2,106.9c1.1,0.3,1.8,0.3,3.2-0.1l-0.5-0.1c-0.7-0.1-0.8-0.2-1.5-0.4c-2.3-0.9-2.9-4-3.6-6.1
		c-0.4-1.2-0.9-2.3-1.5-3.2c-0.2-0.2-0.7-0.7-0.7-0.7c1.1,1.8,1.3,2.9,0.8,5.6c-0.6,2.9,2.1,3.8,0.5,4.5c-1.2,0.5-0.8,0.6-0.5,1.2
		c0.1,0.4-0.1,0.5-0.6,0.7c0.3,0.8,0.3,0.7-0.4,0.9c-0.7,0.3,0.4,1.8-1.1,1.9c-1,0-1.8-0.7-3-0.4c-2.3,3.9,3.3,4.7,6.3,8.7
		c-0.2-2-3.2-4.1-0.8-6.7c-0.2,2.5,0.4,5.4,3,6.5c-0.3-0.6-0.8-1.1-1.1-1.8c-0.4-1-0.6-2.2-0.6-3.3c0.2-4.9,0.3,2.9,5.3,2.5
		c-1.3-0.8-2-1.3-2.4-3.2c-0.6-3.2-0.8-3.5-1.7-4.7c0.2,0.3,1.6,0.7,2.8,1.9c1.3,1.4,1,2.1,1.3,3.8C-20.9,108.6-24.8,109-25.2,106.9
		L-25.2,106.9z"/>
	<path class="st3" d="M-46.4,106.3c0,0,0.7-0.3,0.9-0.6c0.3-0.3-0.2-0.6-0.8,0.3C-46.3,106.1-46.4,106.2-46.4,106.3z"/>
</g>
<g class="st0">
	<g class="st3">
		<path d="M26.4,99.5l-4.6,5.5c-1.3-0.7-2.7-1.1-4.3-1.1c-1.5,0-3,0.4-4.3,1.1l-4.5-5.5v13.9c0,0.4,0,0.7,0,1.1
			c0,5.3,2.2,9.9,5.3,11.8c-1.7-2.3-3.3-4.7-2.6-7.1c4-0.2,4.4-0.2,4.4-0.2l1.4,1.2l1.7-1.2c2.9,0,4.3,0.1,4.3,0.1
			c0.2,1.5-0.1,4.7-2.6,7.2c3.1-1.9,5.3-6.5,5.3-11.9c0-0.4,0-0.7,0-1.1L26.4,99.5z M15.6,115.2c-0.4,0.2-1.4,0.7-1.8,0.9
			c-0.4,0.1-1,0.2-1.3,0c-0.2-0.2-1-0.9-1.1-1.1c-0.2-0.2-0.3-1.5,0.6-1.4c0.9,0.1,3.4,1.1,3.5,1.1C15.7,114.7,16,115,15.6,115.2
			L15.6,115.2z M23.6,114.9c-0.2,0.2-0.9,0.9-1.1,1.1s-0.8,0.1-1.3,0c-0.4-0.1-1.4-0.7-1.8-0.9c-0.4-0.2-0.1-0.5,0.1-0.6
			s2.6-1.1,3.5-1.1C23.9,113.4,23.8,114.8,23.6,114.9L23.6,114.9z"/>
	</g>
</g>
<g>
	<path class="st7" d="M26.1,27.6c0-0.2-0.2-0.4-0.4-0.3c0,0-1,0.3-1.8,0.3s-1.8-0.3-1.8-0.3c-0.2-0.1-0.4,0.1-0.4,0.3v1.2
		c0,0.2,0.2,0.4,0.4,0.4h3.5c0.2,0,0.4-0.2,0.4-0.4L26.1,27.6L26.1,27.6z"/>
	<path class="st7" d="M30.1,12.3c0-0.5-0.4-0.8-0.8-0.8H18.5c-0.5,0-0.8,0.4-0.8,0.8v6.8c0,2.1,0.6,4,1.8,5.4
		c1.1,1.4,2.7,2.2,4.5,2.2c1.7,0,3.3-0.8,4.5-2.2c1.1-1.4,1.8-3.3,1.8-5.4v-6.8H30.1z"/>
	<path class="st7" d="M16.9,20.7c-1.1-0.4-1.6-1.4-1.6-3V14h1.5v-1.6h-2.3c-0.5,0-0.8,0.4-0.8,0.8v4.5c0,2.7,1.3,4.4,3.7,4.8
		C17.2,21.9,17,21.3,16.9,20.7L16.9,20.7z"/>
	<path class="st7" d="M18.5,30.4c-0.5,0-0.8,0.4-0.8,0.8v4.1c0,0.5,0.4,0.8,0.8,0.8h10.8c0.5,0,0.8-0.4,0.8-0.8v-4.1
		c0-0.5-0.4-0.8-0.8-0.8H18.5z"/>
	<path class="st7" d="M33.4,12.4H31V14h1.5v3.7c0,1.6-0.5,2.6-1.6,3c-0.1,0.6-0.2,1.2-0.4,1.8c2.4-0.4,3.7-2.1,3.7-4.8v-4.5
		C34.2,12.8,33.8,12.4,33.4,12.4L33.4,12.4z"/>
</g>
</svg>
