<?xml version="1.0" encoding="utf-8"?>
<!-- Generator: Adobe Illustrator 22.0.1, SVG Export Plug-In . SVG Version: 6.00 Build 0)  -->
<svg version="1.1" id="Layer_1" xmlns="http://www.w3.org/2000/svg" xmlns:xlink="http://www.w3.org/1999/xlink" x="0px" y="0px"
	 viewBox="0 0 47.6 47" style="enable-background:new 0 0 47.6 47;" xml:space="preserve">
<style type="text/css">
	.st0{display:none;}
	.st1{display:inline;fill:#D24A43;}
	.st2{display:none;fill:#D24A43;}
	.st3{fill:#BF1E2E;}
	.st4{display:inline;}
	.st5{fill:#D24A43;}
	.st6{display:inline;fill:#FFFFFF;}
	.st7{display:none;fill:#090E0D;}
</style>
<g class="st0">
	<path class="st1" d="M85.4,17.1c0-0.2,0-0.5,0-0.7c0-3.3-2.7-6-6-6s-6,2.7-6,6c0,0.2,0,0.5,0,0.7C70.8,19,69,22.2,69,25.8
		c0,2.5,0.9,4.7,2.3,6.5c0.6,0.8,1.6,1.3,2.7,1.3h11.2c1,0,2-0.5,2.7-1.3c1.4-1.8,2.3-4,2.3-6.5C90,22.2,88.2,19,85.4,17.1
		L85.4,17.1z M79.5,12.7c1.9,0,3.4,1.4,3.7,3.2c-1.1-0.4-2.4-0.7-3.7-0.7c-1.3,0-2.5,0.2-3.7,0.7C76.1,14.1,77.6,12.7,79.5,12.7
		L79.5,12.7z M78.8,27.7c-0.1,0.2-0.4,0.4-0.6,0.4s-0.5-0.1-0.6-0.3l-0.9-1.5l-0.4,0.4v0.7c0,0.4-0.3,0.7-0.7,0.7
		c-0.4,0-0.7-0.3-0.7-0.7v-5.1c0-0.4,0.3-0.7,0.7-0.7c0.4,0,0.7,0.3,0.7,0.7v3.2l1-1.6c0.1-0.2,0.3-0.3,0.6-0.3
		c0.2,0,0.4,0.1,0.5,0.3c0.1,0.2,0.1,0.5-0.1,0.6l-0.7,0.8l1.1,1.6C78.9,27.2,78.9,27.5,78.8,27.7L78.8,27.7z M84,25v2.5
		c0,0.9-0.2,1.6-0.7,2s-1.2,0.6-1.8,0.6c-0.4,0-0.8,0-1.1-0.1c-0.3-0.1-0.5-0.4-0.4-0.7c0-0.1,0.1-0.2,0.2-0.3
		c0.1-0.1,0.3-0.1,0.4,0c0.2,0.1,0.5,0.1,0.8,0.1c0.7,0,1.2-0.4,1.2-1.2v-0.3l0,0c-0.3,0.4-0.7,0.6-1.2,0.6c-1.1,0-1.9-0.9-1.9-2.2
		c0-1.4,0.9-2.4,2-2.4c0.6,0,1,0.3,1.2,0.6l0,0c0-0.3,0.3-0.5,0.6-0.5h0.1c0.2,0,0.3,0.1,0.4,0.2s0.2,0.3,0.2,0.4
		C84,24.4,84,24.7,84,25L84,25z"/>
	<path class="st1" d="M81.9,24.6c-0.5,0-0.9,0.5-0.9,1.3c0,0.7,0.3,1.2,0.9,1.2c0.4,0,0.6-0.2,0.7-0.6c0-0.1,0-0.2,0-0.4v-0.7
		c0-0.1,0-0.2,0-0.3C82.5,24.8,82.2,24.6,81.9,24.6L81.9,24.6z"/>
</g>
<path class="st2" d="M79.2,45C67,45,57.1,35.1,57.1,22.9S67,0.8,79.2,0.8s22.1,9.9,22.1,22.1S91.4,45,79.2,45z M79.2,1.8
	c-11.6,0-21.1,9.5-21.1,21.1S67.6,44,79.2,44s21.1-9.5,21.1-21.1S90.9,1.8,79.2,1.8z"/>
<path class="st2" d="M133.2,45c-12.2,0-22.1-9.9-22.1-22.1S121,0.8,133.2,0.8s22.1,9.9,22.1,22.1S145.4,45,133.2,45z M133.2,1.8
	c-11.6,0-21.1,9.5-21.1,21.1S121.6,44,133.2,44s21.1-9.5,21.1-21.1S144.9,1.8,133.2,1.8z"/>
<path class="st3" d="M23.9,45.6c-12.2,0-22.1-9.9-22.1-22.1S11.7,1.4,23.9,1.4S46,11.3,46,23.5S36.1,45.6,23.9,45.6z M23.9,2.4
	c-11.6,0-21.1,9.5-21.1,21.1s9.5,21.1,21.1,21.1S45,35.1,45,23.5C45.1,11.8,35.6,2.4,23.9,2.4z"/>
<g class="st0">
	<g class="st4">
		<path class="st5" d="M131.5,30.9h-4.7c-0.9,0-1.6-0.7-1.6-1.6V14.7c0-0.9,0.7-1.6,1.6-1.6h11.4c0.9,0,1.6,0.7,1.6,1.6V27l2.1-2.5
			V13.1c0-1.2-0.9-2.1-2.1-2.1H125c-1.1,0-2,0.9-2,2.1V31c0,1.2,0.9,2.1,2.1,2.1h8.3l-1-0.8C132.1,31.8,131.7,31.4,131.5,30.9
			L131.5,30.9z"/>
		<path class="st5" d="M137.4,15.8h-9.5c-0.6,0-1.1,0.5-1.1,1.1s0.5,1.1,1.1,1.1h9.5c0.6,0,1-0.5,1-1.1
			C138.4,16.2,137.9,15.8,137.4,15.8L137.4,15.8z"/>
		<path class="st5" d="M137.4,19.3h-9.5c-0.6,0-1.1,0.5-1.1,1.1s0.5,1.1,1.1,1.1h9.5c0.6,0,1-0.5,1-1.1
			C138.4,19.7,137.9,19.3,137.4,19.3L137.4,19.3z"/>
		<path class="st5" d="M137.4,22.8h-9.5c-0.6,0-1.1,0.4-1.1,1s0.5,1,1.1,1h9.5c0.6,0,1-0.4,1-1C138.4,23.2,137.9,22.8,137.4,22.8
			L137.4,22.8z"/>
		<path class="st5" d="M126.8,27.2c0,0.6,0.5,1,1.1,1h3.5c0.1-0.4,0.4-0.8,0.7-1.2c0.3-0.4,0.7-0.7,1.1-0.9h-5.3
			C127.3,26.1,126.8,26.6,126.8,27.2L126.8,27.2z"/>
		<path class="st5" d="M137.4,26.1h-0.8c0.3,0.1,0.5,0.3,0.7,0.5l1.1,0.9c0-0.1,0.1-0.2,0.1-0.4C138.4,26.6,137.9,26.1,137.4,26.1
			L137.4,26.1z"/>
		<path class="st5" d="M147.8,23.3c-0.8-0.7-1.9-0.6-2.6,0.2l-6.1,7.1l-3-2.6c-0.8-0.7-1.9-0.6-2.6,0.2c-0.7,0.8-0.6,1.9,0.2,2.6
			l4.4,3.8c0.3,0.3,0.8,0.4,1.2,0.4h0.1c0.5,0,0.9-0.3,1.3-0.6l7.3-8.5C148.6,25.1,148.6,24,147.8,23.3L147.8,23.3z"/>
	</g>
</g>
<g class="st0">
	<path class="st4" d="M82.6,108.7c-2.4-2.4-6.3-2.4-8.6,0c-1.2,1.2-1.8,2.7-1.8,4.3s0.6,3.2,1.8,4.3c0.6,0.6,1.3,1,2,1.3
		c-0.3,0.4-0.5,0.6-0.7,0.8c-0.9,0.6-1.7,1.4-2.3,2.3c-0.1-0.5-0.2-0.9-0.4-1.4c-0.8-1.9-2.3-3.2-4.3-3.7l-0.7-0.2
		c0-0.1,0-0.1,0-0.2c-0.8-3.4-3.7-6-7.2-6.5c-0.3,0-0.6,0.2-0.7,0.5c0,0.3,0.2,0.6,0.5,0.7c3,0.4,5.5,2.6,6.1,5.5
		c0.3,1.3,0.6,2.5,0.9,3.4c0.1,0.3,0.3,0.4,0.6,0.4c0.1,0,0.1,0,0.2,0c0.3-0.1,0.5-0.5,0.4-0.8c-0.2-0.5-0.4-1.1-0.5-1.8H68
		c1.6,0.4,2.8,1.4,3.4,2.9s0.5,3.1-0.3,4.4L71,125c-0.2,0.3-0.1,0.7,0.2,0.8c0.1,0.1,0.2,0.1,0.3,0.1c0.2,0,0.4-0.1,0.5-0.3l0.1-0.1
		c0.3-0.5,0.6-1.1,0.7-1.7c0.7-1.4,1.8-2.7,3.1-3.7c0.4-0.3,0.9-0.8,1.2-1.4c0.3,0.1,0.7,0.1,1,0.1c0.4,0,0.8,0,1.2-0.1
		c-0.5,1.8-0.9,3.4-1.3,4.8c-0.8,3.1-2.8,7.1-4.7,8.1c-0.4,0.2-0.7,0.3-1,0.2c-8.8-4-10.6-8.2-10.9-9.8c-0.1-0.3-0.4-0.5-0.7-0.5
		c-1.5-0.4-2.8-1.3-3.6-2.6c-0.9-1.3-1.2-2.9-0.9-4.5c0.1-0.3-0.1-0.7-0.5-0.7c-0.3-0.1-0.7,0.1-0.7,0.5c-0.4,1.9,0,3.8,1,5.4
		c1,1.5,2.5,2.6,4.2,3.1c0.3,1,1,2.4,2.4,4.1c2,2.3,5.1,4.4,9.1,6.2l0,0c0.2,0.1,0.5,0.1,0.7,0.1c0.4,0,0.8-0.1,1.3-0.3
		c1.3-0.7,2.5-2.4,3.2-3.7c0.9-1.6,1.6-3.5,2.1-5.2c0.4-1.5,0.9-3.4,1.5-5.5c0.6-0.3,1.2-0.7,1.7-1.2C85,114.9,85,111,82.6,108.7
		L82.6,108.7z M78.3,117.9c-1.3,0-2.5-0.5-3.5-1.4c-0.9-0.9-1.4-2.1-1.4-3.5c0-1.3,0.5-2.5,1.4-3.5c1-1,2.2-1.4,3.5-1.4
		s2.5,0.5,3.5,1.4c1.9,1.9,1.9,5,0,6.9C80.8,117.3,79.6,117.9,78.3,117.9L78.3,117.9z"/>
	<path class="st4" d="M77.2,111.8c-0.6,0.6-0.6,1.6,0,2.3c0.3,0.3,0.7,0.5,1.1,0.5s0.8-0.2,1.1-0.5c0.6-0.6,0.6-1.6,0-2.3
		C78.8,111.2,77.8,111.2,77.2,111.8L77.2,111.8z M78.6,113.2c-0.1,0.1-0.4,0.1-0.5,0s-0.1-0.4,0-0.5s0.2-0.1,0.3-0.1
		c0.1,0,0.2,0,0.3,0.1C78.7,112.8,78.7,113.1,78.6,113.2L78.6,113.2z"/>
	<path class="st4" d="M78.3,117.3L78.3,117.3c-2.4,0-4.3-2-4.3-4.3l0,0c0-2.4,2-4.3,4.3-4.3l0,0c2.4,0,4.3,2,4.3,4.3l0,0
		C82.6,115.4,80.7,117.3,78.3,117.3z"/>
	<path class="st6" d="M79.4,113c0,0.6-0.5,1.1-1.1,1.1s-1.1-0.5-1.1-1.1s0.5-1.1,1.1-1.1C78.9,111.8,79.4,112.3,79.4,113z"/>
</g>
<path class="st7" d="M83.3,82.6h-1v-2.5c0-0.8-0.7-1.5-1.5-1.5h-2c-0.8,0-1.5,0.7-1.5,1.5V84h-1.2L76,83.7c-0.5-1.3-1.8-2.2-3.2-2.2
	l0,0c-0.2-0.6-0.7-1-1.4-1c-0.4,0-0.7,0.1-1,0.4c-0.3-0.2-0.6-0.4-1-0.4s-0.7,0.1-1,0.4c-0.3-0.2-0.6-0.4-1-0.4s-0.7,0.1-1,0.4
	c-0.3-0.2-0.6-0.4-1-0.4c-0.8,0-1.5,0.7-1.5,1.5v2h-1.5v-3.9c0-0.8-0.7-1.5-1.5-1.5h-2c-0.8,0-1.5,0.7-1.5,1.5v2.5h-1
	c-0.8,0-1.5,0.7-1.5,1.5V89c0,0.8,0.7,1.5,1.5,1.5h1V93c0,0.8,0.7,1.5,1.5,1.5h2c0.8,0,1.5-0.7,1.5-1.5v-4h1.1l0.4,1.2
	c0,0.1,0,0.1,0.1,0.2l1.3,1.7l-0.8,8.8c0,0.4,0.1,0.7,0.3,1c0.2,0.3,0.6,0.4,0.9,0.4h6.7c0.4,0,0.7-0.2,0.9-0.4
	c0.2-0.3,0.4-0.6,0.3-1L73,92.3c0-0.1,0-0.2,0.1-0.2l2.7-2.3c0.2-0.2,0.4-0.5,0.5-0.8h1.1v4c0,0.8,0.7,1.5,1.5,1.5h2
	c0.8,0,1.5-0.7,1.5-1.5v-2.5h1c0.8,0,1.5-0.7,1.5-1.5v-4.9C84.8,83.3,84.1,82.6,83.3,82.6z M71.5,81.6c0.3,0,0.5,0.2,0.5,0.5v2.5V85
	c0,0.2-0.1,0.4-0.2,0.5l0,0h-0.1h-0.1h-0.1h-0.1c0,0-0.1,0-0.1-0.1c0,0,0,0-0.1,0l-0.1-0.1l0,0c0-0.1,0-0.1,0-0.2v-3
	C71,81.9,71.2,81.6,71.5,81.6z M69.5,81.6c0.3,0,0.5,0.2,0.5,0.5v3c0,0.3-0.2,0.5-0.5,0.5S69,85.4,69,85.1v-3
	C69,81.9,69.3,81.6,69.5,81.6z M67.6,81.6c0.3,0,0.5,0.2,0.5,0.5v3c0,0.3-0.2,0.5-0.5,0.5s-0.5-0.2-0.5-0.5v-3
	C67.1,81.9,67.3,81.6,67.6,81.6z M65.1,82.1c0-0.3,0.2-0.5,0.5-0.5s0.5,0.2,0.5,0.5v3c0,0.1,0,0.1,0,0.2l0,0c0,0,0,0.1-0.1,0.1
	c0,0,0,0-0.1,0c0,0-0.1,0-0.1,0.1h-0.1h-0.1h-0.1h-0.1l0,0c-0.1-0.1-0.2-0.3-0.2-0.5v-0.4v-2.5H65.1z M72.5,91.3
	C72.2,91.6,72,92,72,92.4l0.9,8.6c0,0.1,0,0.2-0.1,0.2c0,0-0.1,0.1-0.2,0.1H66c-0.1,0-0.2-0.1-0.2-0.1s-0.1-0.1-0.1-0.2l0.9-9
	c0-0.1,0-0.2-0.1-0.3l-1.4-1.8L64.8,89h7.5c0.3,0,0.5-0.1,0.7-0.3l0.7-0.7c0.2-0.2,0.3-0.4,0.3-0.7v-1.8c0-0.6-0.4-1.2-1-1.4v-1.6
	c1,0,1.9,0.6,2.2,1.6l0.2,0.5v0.1v3.7c0,0.2-0.1,0.4-0.3,0.6L72.5,91.3z"/>
<path class="st0" d="M116.5,88.3c-0.1-0.2-0.1-0.1-0.2-0.3c-0.3-1.2-0.2-2.6-1.1-3.9c-1.4-2.2-5-5.7-6.4-6.3c-0.1,0-0.1,0-0.2-0.1
	c0-0.3-0.2-0.7-0.7-0.9c-1.4-0.7-3-1.4-3.9-1c-0.5,0.2-0.9-0.2-1.1,0.3c-0.1,0.3-0.7,0.9-0.6,1.6c0,0.2,0.4,1.1,0.8,1.3
	c0.1,0.2-0.5-0.1-0.2,0.6c0.4,0.7,3.5-0.6,4.2,0.2c0.7,1.1,0.8,4.6,2.1,6.8c-0.2,0-1.5-2-3.8-1.4s-2.9,2.5-2.9,2.5
	c-2.2-2.1-5.8-0.6-6.3,1.4v9.4h2.2l0.8-1.5c1.5-0.6,2.6-3,3.8-4.5c1.6,0.2,4.1-0.2,5.1-0.3c0.9-0.1,4.3-1.1,5.3-1.4
	C115.8,89.8,117.1,89.9,116.5,88.3L116.5,88.3z"/>
<path class="st3" d="M33.3,22.7c0.1-0.6,0.1-1.1-0.1-1.7c0.2-0.3,0.3-0.6,0.4-1c0.3-1.5-0.3-2.9-1.5-3.7c0.1-1.1-0.4-2.2-1.2-2.9
	c0.7-0.7,1.5-1.1,2.2-0.8c0.5,0.2,0.8,0.6,1,1.3c0.5-0.1,1-0.1,1.4,0.2s0.7,0.7,0.8,1.2c0.1,0.7,0,1.6-0.5,2.3
	c0.3,0.3,0.5,0.8,0.6,1.3c0.1,0.9-0.2,1.8-0.8,2.6c-0.1,0.1-0.1,0.2-0.2,0.3c0.3,0.3,0.5,0.8,0.6,1.3c0.1,0.8-0.2,1.7-0.8,2.4
	c-0.3,0.3-0.6,0.6-1,0.8c0,0.5-0.2,1-0.5,1.4c-0.5,0.6-1.2,0.9-1.9,0.8c-1.3,1.6-2.6,2.3-4.4,2.8c2.4-1.9,3.8-3.7,4.5-6.6
	C32.5,24.4,33.2,23.6,33.3,22.7L33.3,22.7z"/>
<path class="st3" d="M19.3,17c0.3-1.3,1.3-2.4,2.5-2.7c0.4-1.1,1.5-1.8,2.6-1.7c0-0.1,0.1-0.2,0.1-0.3c0.3-0.6,1-1,1.7-1
	c0.5,0,0.8,0.2,1.1,0.6c0.3-0.1,0.7-0.2,1.1-0.1c0.9,0.2,1.6,1.1,1.5,2.1c1,0.4,1.6,1.6,1.4,2.8c0,0.1,0,0.1,0,0.2
	c1.2,0.5,1.9,1.8,1.6,3.2c-0.1,0.4-0.2,0.8-0.5,1.1c0.3,0.5,0.4,1,0.2,1.6c-0.2,0.8-0.8,1.5-1.5,1.7c-0.6,3.1-2.1,4.8-4.7,6.9
	l-0.1,0.1l0,0c-0.4,0.3-0.9,0.4-1.4,0.3c-0.1,0-0.2,0-0.3-0.1l0.2-0.2c1.1-1.6,1.8-3.1,2.4-4.4c1-0.1,1.5-0.8,1.5-0.8
	c0.1-0.1,0.1-0.4,0-0.5s-0.4-0.1-0.5,0.1c0,0-0.3,0.3-0.7,0.5c0.3-0.9,0.5-1.7,0.6-2.4v-0.1c0.2-1.1,0.2-2,0.1-2.8
	c1.2-0.5,1.6-1.7,1.7-2.4c0-0.2-0.1-0.4-0.3-0.4c-0.2,0-0.3,0.1-0.4,0.3c0,0.1-0.1,1.2-1.1,1.7c0-0.1,0-0.2-0.1-0.3
	c-0.5-2-1.5-3.2-1.9-3.6c0.1-0.7-0.2-1.4-0.2-1.4c-0.1-0.2-0.3-0.2-0.4-0.2c-0.2,0.1-0.2,0.3-0.2,0.5c0.1,0.1,0.1,0.4,0.1,0.7
	c-0.7-0.2-1.6,0-1.6,0.1c-0.2,0.1-0.3,0.3-0.2,0.4c0,0.1,0.1,0.2,0.2,0.2s0.1,0,0.2,0c0.3-0.1,1-0.3,1.4,0.1
	c0.1,0.1,0.6,0.5,1.1,1.3c-1.3-0.4-2.3-0.2-2.3-0.1c-0.2,0-0.3,0.2-0.3,0.4c0,0.1,0.1,0.2,0.3,0.3h0.1c0,0,1.2-0.3,2.6,0.4
	c0.2,0.5,0.4,1.1,0.5,1.7v0.1V21c0.1,0.6,0.1,1.2,0.1,1.9c-0.6-0.6-1.6-0.9-1.6-0.9l0,0c-0.2,0-0.4,0.1-0.4,0.3
	c0,0.2,0.1,0.4,0.3,0.4c0,0,1.4,0.3,1.6,1.2c-0.1,0.8-0.4,1.8-0.8,2.8l0,0c-0.5,1.3-1.3,2.8-2.4,4.4L24,31.2
	c-0.2-0.2-0.4-0.4-0.5-0.6c-0.2-0.4-0.1-0.9,0.1-1.3c1-1.7,1.2-3.1,0.8-4.1c-0.6-1.4-2.2-1.9-3.2-2.1C20.7,23,20.4,23,20.4,23h-0.3
	v-0.4c0,0,0.1-1.2,0.9-1.8l0.1-0.1c-0.2-0.1-0.3-0.2-0.5-0.3C19.6,19.6,19.1,18.3,19.3,17L19.3,17z"/>
<path class="st7" d="M38.8,100c-0.3,1.3-0.8,2.6-1.7,3.7h-1.5l0,0c-0.1-0.2-0.2-0.5-0.3-0.7c0,0,0-0.1-0.1-0.1
	c-0.1-0.2-0.2-0.4-0.4-0.6c0,0,0,0,0-0.1c-0.3-0.5-0.7-0.9-1.1-1.3C35.1,99.6,37.1,99.2,38.8,100L38.8,100z"/>
<path class="st7" d="M25.5,101.2C25.5,101.2,25.5,101.1,25.5,101.2c0.3-0.2,0.5-0.3,0.8-0.4c0,0,0.1,0,0.2-0.1
	c0.2-0.1,0.4-0.2,0.7-0.2c0.1,0,0.2,0,0.2,0c0.2,0,0.4-0.1,0.6-0.1c0.1,0,0.2,0,0.3,0c0.2,0,0.4,0,0.6,0c0.1,0,0.2,0,0.2,0
	c0.2,0,0.5,0,0.7,0.1c0.1,0,0.1,0,0.2,0c0.3,0.1,0.5,0.1,0.8,0.2h0.1c0.3,0.1,0.5,0.2,0.8,0.3c0.3,0.1,0.5,0.3,0.8,0.5
	c0.2,0.2,0.4,0.3,0.6,0.5l0.1,0.1c0.2,0.2,0.4,0.4,0.5,0.6c0,0,0,0.1,0.1,0.1c0.2,0.3,0.3,0.5,0.5,0.8h-11
	C23.7,102.6,24.5,101.8,25.5,101.2L25.5,101.2z"/>
<path class="st7" d="M34,93.4c1-0.1,1.9,0.5,2.2,1.4s0,2-0.8,2.5c0,0,0,0-0.1,0l-7,6.2c-0.8-0.4-1.7-0.6-2.7-0.7l0,0
	c0.1-0.1,0.1-0.2,0.2-0.3c0-0.1,0.1-0.2,0.1-0.2c0.1-0.2,0.1-0.3,0.2-0.5c0-0.1,0.1-0.2,0.1-0.3c0-0.1,0-0.1,0.1-0.2
	c0-0.1,0.1-0.2,0.1-0.4l0,0l1.2-1.4l1.1,1.1c0.3,0.3,0.7,0.3,1,0s0.3-0.7,0-1l-1.1-1.1l1.3-1.5l0.9,0.9c0.3,0.3,0.7,0.3,1,0
	c0.3-0.3,0.3-0.7,0-1L30.9,96l1-1.1l1,1c0.3,0.3,0.7,0.3,1,0s0.3-0.7,0-1l-1-1C33.1,93.7,33.5,93.5,34,93.4z"/>
<path class="st7" d="M28.6,96.7c0,0.1-0.1,0.3-0.1,0.4s0,0.1-0.1,0.2c-0.1,0.2-0.1,0.3-0.2,0.5c0,0,0,0.1-0.1,0.1
	c-0.1,0.2-0.2,0.4-0.3,0.5c0,0,0,0.1-0.1,0.1c-0.1,0.2-0.2,0.3-0.3,0.5c-0.3,0-0.6,0.1-1,0.2l0,0c-1.9,0.5-3.5,1.8-4.4,3.5
	c0,0,0,0.1-0.1,0.1c-0.1,0.3-0.3,0.5-0.4,0.8l0,0h-1.3c0-0.1,0-0.2-0.1-0.2v-0.1c0-0.2,0-0.5-0.1-0.7c0,0,0,0,0-0.1
	c0-1,0.3-2,0.9-2.9c0,0,0,0,0-0.1c0.3-0.5,0.7-0.9,1.1-1.3c1.8-1.5,3.9-2.6,6.1-3.3C28.7,95.5,28.8,96.1,28.6,96.7L28.6,96.7z"/>
<path class="st7" d="M16.4,92.8c2.6,0,4.7,2.1,4.8,4.6c0,0,0,0.1-0.1,0.1c-0.2,0.2-0.3,0.3-0.5,0.5c0,0.1-0.1,0.1-0.1,0.2
	c-0.1,0.2-0.3,0.4-0.4,0.5c0,0.1-0.1,0.1-0.1,0.2c-0.1,0.1-0.1,0.2-0.2,0.2c-0.5,0.9-0.8,1.8-0.9,2.8l0,0c0,0.2,0,0.5,0,0.7v0.1
	c0,0.2,0,0.4,0.1,0.7v0.1h-0.9c0-0.1-0.1-0.1-0.1-0.2c-0.1-0.1-0.1-0.2-0.2-0.3c-0.1-0.1-0.2-0.3-0.2-0.4c-0.1-0.1-0.1-0.2-0.2-0.3
	c-0.1-0.1-0.2-0.2-0.3-0.4c-0.1-0.1-0.2-0.2-0.3-0.3c-0.1-0.1-0.2-0.2-0.4-0.3c-0.1-0.1-0.2-0.2-0.3-0.2c-0.1-0.1-0.3-0.2-0.4-0.3
	c-0.1-0.1-0.2-0.1-0.3-0.2s-0.3-0.1-0.5-0.2c-0.1,0-0.2-0.1-0.3-0.1c-0.2-0.1-0.4-0.1-0.5-0.1s-0.2,0-0.3-0.1
	c-0.3,0-0.6-0.1-0.9-0.1c-0.1,0-0.2,0-0.3,0c-0.1-0.1-0.2-0.3-0.3-0.4s-0.1-0.2-0.2-0.2c-0.1-0.2-0.3-0.4-0.4-0.5
	c-0.5-1.5-0.2-3,0.6-4.3C13.4,93.5,14.9,92.8,16.4,92.8L16.4,92.8z"/>
<path class="st7" d="M9.5,103.6c0-0.1,0.1-0.2,0.2-0.2c0.1-0.1,0.1-0.1,0.2-0.2c0.1-0.1,0.1-0.1,0.2-0.2c0.1-0.1,0.1-0.1,0.2-0.2
	c0.1-0.1,0.1-0.1,0.2-0.2c0.1-0.1,0.2-0.1,0.2-0.2c0.1,0,0.1-0.1,0.2-0.1c0.1-0.1,0.2-0.1,0.3-0.2c0.1,0,0.1-0.1,0.2-0.1
	c0.2-0.1,0.3-0.1,0.5-0.2l0,0c0.2-0.1,0.4-0.1,0.6-0.1c0.1,0,0.1,0,0.2,0c0.3,0,0.7,0,1,0c0.1,0,0.1,0,0.2,0c0.1,0,0.3,0.1,0.4,0.1
	c0.1,0,0.1,0,0.2,0.1c0.1,0,0.2,0.1,0.4,0.2c0.1,0,0.1,0.1,0.2,0.1c0.1,0.1,0.3,0.2,0.4,0.2l0.1,0.1c0.2,0.1,0.3,0.2,0.4,0.4
	l0.1,0.1c0.1,0.1,0.2,0.2,0.3,0.4c0,0.1,0.1,0.1,0.1,0.2s0.1,0.1,0.1,0.2L9.5,103.6C9.5,103.7,9.5,103.6,9.5,103.6z"/>
<path class="st7" d="M7.3,97.5c0.5,0,1.9,0.2,3.5,2.3c0.1,0.2,0.2,0.3,0.4,0.5c0,0.1,0.1,0.1,0.1,0.2c0,0,0,0,0,0.1h-0.1
	c-0.2,0.1-0.4,0.2-0.6,0.3c-0.1,0-0.1,0.1-0.2,0.1c-0.5,0.2-0.9,0.6-1.2,0.9L9.1,102c-0.2,0.2-0.3,0.4-0.5,0.6l0,0
	c-0.1,0.2-0.3,0.4-0.4,0.7c0,0.1-0.1,0.1-0.1,0.2S8,103.7,8,103.7H6.7C5.8,101.7,6,99.3,7.3,97.5L7.3,97.5z"/>
<path class="st7" d="M41.2,105.6c-1.9,4.6-5.2,8.4-9.4,11H30c-0.4,0-0.7,0.3-0.7,0.7c0,0.4,0.3,0.7,0.7,0.7h1.4v0.8
	c0,0.3-0.3,0.6-0.6,0.6H14.3c-0.3,0-0.6-0.3-0.6-0.6V118h8.2c0.4,0,0.7-0.3,0.7-0.7c0-0.4-0.3-0.7-0.7-0.7h-8.6
	c-4.2-2.6-7.5-6.4-9.4-11L3.7,105h37.8L41.2,105.6z"/>
<path class="st7" d="M19.8,88.7c-1.4,0-2.6,0.7-3.4,1.8c-0.8-1.1-2-1.8-3.4-1.8c-0.4,0-0.7,0.3-0.7,0.7s0.3,0.7,0.7,0.7
	c1.5,0,2.7,1.2,2.7,2.7c0,0.4,0.3,0.7,0.7,0.7s0.7-0.3,0.7-0.7c0-1.5,1.2-2.7,2.7-2.7c0.4,0,0.7-0.3,0.7-0.7S20.2,88.7,19.8,88.7
	L19.8,88.7z"/>
<path class="st7" d="M37.6,94.1l-1-0.3l1.3-1.3c0.3-0.3,0.3-0.7,0-1s-0.7-0.3-1,0l-1.3,1.3l-0.3-1c-0.1-0.4-0.5-0.5-0.9-0.4
	s-0.5,0.5-0.4,0.9l0.7,2l0,0l0,0c0,0,0,0,0,0.1c0,0,0,0.1,0.1,0.1l0,0l0,0l0,0c0.1,0,0.1,0.1,0.2,0.1l0,0l0,0l0,0l0,0l2,0.7
	c0.4,0.1,0.7-0.1,0.9-0.4C38.2,94.6,38,94.3,37.6,94.1L37.6,94.1z"/>
<path class="st3" d="M13.5,24.6c-1.1-0.4-2.3-0.6-3.5-0.5c-0.7,0-0.8,1,0,0.9c1.1-0.1,2.2,0.1,3.2,0.5c0.3-0.4,0.6-0.7,0.8-0.9
	c0.3-0.2,0.7-0.5,1.2-0.7c0-0.1-0.1-0.1-0.2-0.2c-1.9-1.1-2.8-2.8-3.7-4.5c-0.3-0.5-1.3-0.1-1,0.5c0.4,0.8,0.9,1.6,1.4,2.4
	c-0.7-0.6-1.3-1.3-1.9-2c-0.4-0.5-1.4,0-1,0.5C10.2,22.1,11.7,23.5,13.5,24.6L13.5,24.6z"/>
<path class="st3" d="M13.6,25.7c-0.4,0.5-0.7,1.2-0.7,1.8c0,0.5,0.3,1,0.8,1.3l0.6,0.3c0.1-1,0.4-1.9,1.3-2.7
	c0.5-0.4,1.3,0.2,0.8,0.7c-0.8,0.7-1,1.7-1,2.6l1.3,0.8c0.2-0.8,0.5-1.5,1.3-2.2c0.5-0.4,1.3,0.2,0.8,0.7c-0.7,0.6-0.9,1.4-1,2.2
	L19,32c0.2-0.6,0.5-1.2,1.1-1.8c0.5-0.4,1.3,0.2,0.8,0.7c-0.6,0.5-0.8,1.1-0.9,1.7l6.3,3.7c0.4,0.3,0.8,0.4,1.2,0.4
	c0.5,0,1-0.2,1.2-0.6c0.3-0.4,0.1-1-0.4-1.4l-9.1-10.6c-0.4-0.4-0.9-0.5-1.5-0.5c-0.9,0-2.4-1.2-3.1-0.8c-0.4,0.2-0.2,2-0.4,2.2
	C14.1,25,13.8,25.3,13.6,25.7L13.6,25.7z"/>
<path class="st2" d="M-35,45c-12.2,0-22.1-9.9-22.1-22.1S-47.2,0.8-35,0.8s22.1,9.9,22.1,22.1S-22.8,45-35,45z M-35,1.8
	c-11.6,0-21.1,9.5-21.1,21.1S-46.7,44-35,44s21.1-9.5,21.1-21.1S-23.4,1.8-35,1.8z"/>
<path class="st2" d="M-92.9,45.6c-12.2,0-22.1-9.9-22.1-22.1s9.9-22.1,22.1-22.1s22.1,9.9,22.1,22.1S-80.7,45.6-92.9,45.6z
	 M-92.9,2.4c-11.6,0-21.1,9.5-21.1,21.1s9.5,21.1,21.1,21.1s21.1-9.5,21.1-21.1C-71.8,11.8-81.2,2.4-92.9,2.4z"/>
<g class="st0">
	<path class="st1" d="M-82.8,16.8c-1.6-0.2-5.3-2.7-8-1.8s-2.5,1.5-3.8,2c-1.3,0.4-1.6-0.2-4.2,0.6c-2.7,0.9-4.3,5.1-5.4,6.2
		c0,0-1.1,1.1-0.7,2.4s1.8,0.9,1.8,0.9c4.7-1.5,6.2-3.5,6.2-3.5s2.4,0.7,4.4,0s3.6-2.7,3.6-2.7s2.4,0.7,7.1-0.9c0,0,1.3-0.5,0.9-1.8
		C-81.3,17.1-82.8,16.8-82.8,16.8"/>
	<path class="st1" d="M-83.5,21.5c-4,1.3-3.1,4-7.8,5.5c-4.7,1.5-5.6-1.1-9.6,0.2c-1.3,0.4-1.8,1.3-1.6,2c0.7,2,6,6.9,13.3,4.5
		c7.4-2.4,8.7-9.5,8.1-11.5C-81.3,21.5-82.2,21.1-83.5,21.5"/>
</g>
<g class="st0">
	<path class="st4" d="M-94.8,94.4c2,0.4,2.9,1.4,3.1,2.7c0,1.2-0.9,2.6-1.6,3.4c-1.5,1.8-4,3.7-6.5,3.5c-2-0.1-2.1-2.3-2.1-2
		c0,0.9,0.5,1.8,1.4,2.2c0.8,0.4,1.9,0.2,2.7,0c0.7-0.2,1.4-0.5,2.1-0.9c-0.4,0.3-0.8,0.7-1.2,1c-1.7,1.2-3.4,1.3-4.9,2.2
		c-2.8,1.5-3.2,4.6-3.2,4.6s0.6-3.2,6.1-4.5h0.2c-1.8,2-2.4,4.3,0.8,8.3c-2.1-6.5,4-8.6,6.9-11.3C-86.5,99.6-87.5,94-94.8,94.4z"/>
	<path class="st4" d="M-83.9,106.9c1.1,0.3,1.8,0.3,3.2-0.1l-0.5-0.1c-0.7-0.1-0.8-0.2-1.5-0.4c-2.3-0.9-2.9-4-3.6-6.1
		c-0.4-1.2-0.9-2.3-1.5-3.2c-0.2-0.2-0.7-0.7-0.7-0.7c1.1,1.8,1.3,2.9,0.8,5.6c-0.6,2.9,2.1,3.8,0.5,4.5c-1.2,0.5-0.8,0.6-0.5,1.2
		c0.1,0.4-0.1,0.5-0.6,0.7c0.3,0.8,0.3,0.7-0.4,0.9c-0.7,0.3,0.4,1.8-1.1,1.9c-1,0-1.8-0.7-3-0.4c-2.3,3.9,3.3,4.7,6.3,8.7
		c-0.2-2-3.2-4.1-0.8-6.7c-0.2,2.5,0.4,5.4,3,6.5c-0.3-0.6-0.8-1.1-1.1-1.8c-0.4-1-0.6-2.2-0.6-3.3c0.2-4.9,0.3,2.9,5.3,2.5
		c-1.3-0.8-2-1.3-2.4-3.2c-0.6-3.2-0.8-3.5-1.7-4.7c0.2,0.3,1.6,0.7,2.8,1.9c1.3,1.4,1,2.1,1.3,3.8C-79.6,108.6-83.5,109-83.9,106.9
		L-83.9,106.9z"/>
	<path class="st4" d="M-105.2,106.3c0,0,0.7-0.3,0.9-0.6c0.3-0.3-0.2-0.6-0.8,0.3C-105.1,106.1-105.1,106.2-105.2,106.3z"/>
</g>
<g class="st0">
	<g class="st4">
		<path d="M-32.3,99.5l-4.6,5.5c-1.3-0.7-2.7-1.1-4.3-1.1c-1.5,0-3,0.4-4.3,1.1l-4.5-5.5v13.9c0,0.4,0,0.7,0,1.1
			c0,5.3,2.2,9.9,5.3,11.8c-1.7-2.3-3.3-4.7-2.6-7.1c4-0.2,4.4-0.2,4.4-0.2l1.4,1.2l1.7-1.2c2.9,0,4.3,0.1,4.3,0.1
			c0.2,1.5-0.1,4.7-2.6,7.2c3.1-1.9,5.3-6.5,5.3-11.9c0-0.4,0-0.7,0-1.1L-32.3,99.5z M-43.1,115.2c-0.4,0.2-1.4,0.7-1.8,0.9
			c-0.4,0.1-1,0.2-1.3,0c-0.2-0.2-1-0.9-1.1-1.1c-0.2-0.2-0.3-1.5,0.6-1.4c0.9,0.1,3.4,1.1,3.5,1.1S-42.7,115-43.1,115.2
			L-43.1,115.2z M-35.1,114.9c-0.2,0.2-0.9,0.9-1.1,1.1c-0.2,0.2-0.8,0.1-1.3,0c-0.4-0.1-1.4-0.7-1.8-0.9c-0.4-0.2-0.1-0.5,0.1-0.6
			c0.2-0.1,2.6-1.1,3.5-1.1C-34.9,113.4-35,114.8-35.1,114.9L-35.1,114.9z"/>
	</g>
</g>
<g class="st0">
	<path class="st1" d="M-32.7,27.6c0-0.2-0.2-0.4-0.4-0.3c0,0-1,0.3-1.8,0.3s-1.8-0.3-1.8-0.3c-0.2-0.1-0.4,0.1-0.4,0.3v1.2
		c0,0.2,0.2,0.4,0.4,0.4h3.5c0.2,0,0.4-0.2,0.4-0.4L-32.7,27.6L-32.7,27.6z"/>
	<path class="st1" d="M-28.6,12.3c0-0.5-0.4-0.8-0.8-0.8h-10.8c-0.5,0-0.8,0.4-0.8,0.8v6.8c0,2.1,0.6,4,1.8,5.4
		c1.1,1.4,2.7,2.2,4.5,2.2c1.7,0,3.3-0.8,4.5-2.2c1.1-1.4,1.8-3.3,1.8-5.4v-6.8H-28.6z"/>
	<path class="st1" d="M-41.8,20.7c-1.1-0.4-1.6-1.4-1.6-3V14h1.5v-1.6h-2.3c-0.5,0-0.8,0.4-0.8,0.8v4.5c0,2.7,1.3,4.4,3.7,4.8
		C-41.6,21.9-41.7,21.3-41.8,20.7L-41.8,20.7z"/>
	<path class="st1" d="M-40.2,30.4c-0.5,0-0.8,0.4-0.8,0.8v4.1c0,0.5,0.4,0.8,0.8,0.8h10.8c0.5,0,0.8-0.4,0.8-0.8v-4.1
		c0-0.5-0.4-0.8-0.8-0.8H-40.2z"/>
	<path class="st1" d="M-25.4,12.4h-2.3V14h1.5v3.7c0,1.6-0.5,2.6-1.6,3c-0.1,0.6-0.2,1.2-0.4,1.8c2.4-0.4,3.7-2.1,3.7-4.8v-4.5
		C-24.6,12.8-24.9,12.4-25.4,12.4L-25.4,12.4z"/>
</g>
</svg>
