<?xml version="1.0" encoding="utf-8"?>
<!-- Generator: Adobe Illustrator 22.0.1, SVG Export Plug-In . SVG Version: 6.00 Build 0)  -->
<svg version="1.1" id="Layer_1" xmlns="http://www.w3.org/2000/svg" xmlns:xlink="http://www.w3.org/1999/xlink" x="0px" y="0px"
	 viewBox="0 0 47.8 46.5" style="enable-background:new 0 0 47.8 46.5;" xml:space="preserve">
<style type="text/css">
	.st0{fill:#BF1E2E;}
	.st1{display:none;fill:#D24A43;}
	.st2{display:none;}
	.st3{display:inline;}
	.st4{fill:#D24A43;}
	.st5{display:inline;fill:#FFFFFF;}
	.st6{display:none;fill:#090E0D;}
	.st7{display:inline;fill:#D24A43;}
</style>
<g>
	<path class="st0" d="M29.9,17.1c0-0.2,0-0.5,0-0.7c0-3.3-2.7-6-6-6s-6,2.7-6,6c0,0.2,0,0.5,0,0.7c-2.8,1.9-4.6,5.1-4.6,8.7
		c0,2.5,0.9,4.7,2.3,6.5c0.6,0.8,1.6,1.3,2.7,1.3h11.2c1,0,2-0.5,2.7-1.3c1.4-1.8,2.3-4,2.3-6.5C34.5,22.2,32.7,19,29.9,17.1
		L29.9,17.1z M24,12.7c1.9,0,3.4,1.4,3.7,3.2c-1.1-0.4-2.4-0.7-3.7-0.7c-1.3,0-2.5,0.2-3.7,0.7C20.6,14.1,22.1,12.7,24,12.7L24,12.7
		z M23.3,27.7c-0.1,0.2-0.4,0.4-0.6,0.4s-0.5-0.1-0.6-0.3l-0.9-1.5l-0.4,0.4v0.7c0,0.4-0.3,0.7-0.7,0.7c-0.4,0-0.7-0.3-0.7-0.7v-5.1
		c0-0.4,0.3-0.7,0.7-0.7c0.4,0,0.7,0.3,0.7,0.7v3.2l1-1.6c0.1-0.2,0.3-0.3,0.6-0.3c0.2,0,0.4,0.1,0.5,0.3c0.1,0.2,0.1,0.5-0.1,0.6
		l-0.7,0.8l1.1,1.6C23.4,27.2,23.4,27.5,23.3,27.7L23.3,27.7z M28.5,25v2.5c0,0.9-0.2,1.6-0.7,2C27.4,29.9,26.7,30,26,30
		c-0.4,0-0.8,0-1.1-0.1c-0.3-0.1-0.5-0.4-0.4-0.7c0-0.1,0.1-0.2,0.2-0.3c0.1-0.1,0.3-0.1,0.4,0c0.2,0.1,0.5,0.1,0.8,0.1
		c0.7,0,1.2-0.4,1.2-1.2v-0.3l0,0c-0.3,0.4-0.7,0.6-1.2,0.6c-1.1,0-1.9-0.9-1.9-2.2c0-1.4,0.9-2.4,2-2.4c0.6,0,1,0.3,1.2,0.6l0,0
		c0-0.3,0.3-0.5,0.6-0.5H28c0.2,0,0.3,0.1,0.4,0.2s0.2,0.3,0.2,0.4C28.5,24.4,28.5,24.7,28.5,25L28.5,25z"/>
	<path class="st0" d="M26.4,24.6c-0.5,0-0.9,0.5-0.9,1.3c0,0.7,0.3,1.2,0.9,1.2c0.4,0,0.6-0.2,0.7-0.6c0-0.1,0-0.2,0-0.4v-0.7
		c0-0.1,0-0.2,0-0.3C27,24.8,26.7,24.6,26.4,24.6L26.4,24.6z"/>
</g>
<path class="st0" d="M23.7,45C11.5,45,1.6,35.1,1.6,22.9S11.5,0.8,23.7,0.8s22.1,9.9,22.1,22.1S35.9,45,23.7,45z M23.7,1.8
	c-11.6,0-21.1,9.5-21.1,21.1S12.1,44,23.7,44s21.1-9.5,21.1-21.1S35.4,1.8,23.7,1.8z"/>
<path class="st1" d="M77.7,45c-12.2,0-22.1-9.9-22.1-22.1S65.5,0.8,77.7,0.8s22.1,9.9,22.1,22.1S89.9,45,77.7,45z M77.7,1.8
	c-11.6,0-21.1,9.5-21.1,21.1S66.1,44,77.7,44s21.1-9.5,21.1-21.1S89.4,1.8,77.7,1.8z"/>
<path class="st1" d="M-31.6,45.6c-12.2,0-22.1-9.9-22.1-22.1s9.9-22.1,22.1-22.1s22.1,9.9,22.1,22.1S-19.4,45.6-31.6,45.6z
	 M-31.6,2.4c-11.6,0-21.1,9.5-21.1,21.1s9.5,21.1,21.1,21.1s21.1-9.5,21.1-21.1C-10.4,11.8-19.9,2.4-31.6,2.4z"/>
<g class="st2">
	<g class="st3">
		<path class="st4" d="M76,30.9h-4.7c-0.9,0-1.6-0.7-1.6-1.6V14.7c0-0.9,0.7-1.6,1.6-1.6h11.4c0.9,0,1.6,0.7,1.6,1.6V27l2.1-2.5
			V13.1c0-1.2-0.9-2.1-2.1-2.1H69.6c-1.1,0-2,0.9-2,2.1V31c0,1.2,0.9,2.1,2.1,2.1H78l-1-0.8C76.6,31.8,76.2,31.4,76,30.9L76,30.9z"
			/>
		<path class="st4" d="M81.9,15.8h-9.5c-0.6,0-1.1,0.5-1.1,1.1s0.5,1.1,1.1,1.1h9.5c0.6,0,1-0.5,1-1.1
			C82.9,16.2,82.4,15.8,81.9,15.8L81.9,15.8z"/>
		<path class="st4" d="M81.9,19.3h-9.5c-0.6,0-1.1,0.5-1.1,1.1s0.5,1.1,1.1,1.1h9.5c0.6,0,1-0.5,1-1.1
			C82.9,19.7,82.4,19.3,81.9,19.3L81.9,19.3z"/>
		<path class="st4" d="M81.9,22.8h-9.5c-0.6,0-1.1,0.4-1.1,1s0.5,1,1.1,1h9.5c0.6,0,1-0.4,1-1C82.9,23.2,82.4,22.8,81.9,22.8
			L81.9,22.8z"/>
		<path class="st4" d="M71.3,27.2c0,0.6,0.5,1,1.1,1h3.5c0.1-0.4,0.4-0.8,0.7-1.2c0.3-0.4,0.7-0.7,1.1-0.9h-5.3
			C71.8,26.1,71.3,26.6,71.3,27.2L71.3,27.2z"/>
		<path class="st4" d="M81.9,26.1h-0.8c0.3,0.1,0.5,0.3,0.7,0.5l1.1,0.9c0-0.1,0.1-0.2,0.1-0.4C82.9,26.6,82.4,26.1,81.9,26.1
			L81.9,26.1z"/>
		<path class="st4" d="M92.3,23.3c-0.8-0.7-1.9-0.6-2.6,0.2l-6.1,7.1l-3-2.6c-0.8-0.7-1.9-0.6-2.6,0.2c-0.7,0.8-0.6,1.9,0.2,2.6
			l4.4,3.8c0.3,0.3,0.8,0.4,1.2,0.4h0.1c0.5,0,0.9-0.3,1.3-0.6l7.3-8.5C93.1,25.1,93.1,24,92.3,23.3L92.3,23.3z"/>
	</g>
</g>
<g class="st2">
	<path class="st3" d="M27.1,108.7c-2.4-2.4-6.3-2.4-8.6,0c-1.2,1.2-1.8,2.7-1.8,4.3s0.6,3.2,1.8,4.3c0.6,0.6,1.3,1,2,1.3
		c-0.3,0.4-0.5,0.6-0.7,0.8c-0.9,0.6-1.7,1.4-2.3,2.3c-0.1-0.5-0.2-0.9-0.4-1.4c-0.8-1.9-2.3-3.2-4.3-3.7l-0.7-0.2
		c0-0.1,0-0.1,0-0.2c-0.8-3.4-3.7-6-7.2-6.5c-0.3,0-0.6,0.2-0.7,0.5c0,0.3,0.2,0.6,0.5,0.7c3,0.4,5.5,2.6,6.1,5.5
		c0.3,1.3,0.6,2.5,0.9,3.4c0.1,0.3,0.3,0.4,0.6,0.4c0.1,0,0.1,0,0.2,0c0.3-0.1,0.5-0.5,0.4-0.8c-0.2-0.5-0.4-1.1-0.5-1.8h0.1
		c1.6,0.4,2.8,1.4,3.4,2.9s0.5,3.1-0.3,4.4l-0.1,0.1c-0.2,0.3-0.1,0.7,0.2,0.8c0.1,0.1,0.2,0.1,0.3,0.1c0.2,0,0.4-0.1,0.5-0.3
		l0.1-0.1c0.3-0.5,0.6-1.1,0.7-1.7c0.7-1.4,1.8-2.7,3.1-3.7c0.4-0.3,0.9-0.8,1.2-1.4c0.3,0.1,0.7,0.1,1,0.1c0.4,0,0.8,0,1.2-0.1
		c-0.5,1.8-0.9,3.4-1.3,4.8c-0.8,3.1-2.8,7.1-4.7,8.1c-0.4,0.2-0.7,0.3-1,0.2c-8.8-4-10.6-8.2-10.9-9.8c-0.1-0.3-0.4-0.5-0.7-0.5
		c-1.5-0.4-2.8-1.3-3.6-2.6c-0.9-1.3-1.2-2.9-0.9-4.5c0.1-0.3-0.1-0.7-0.5-0.7c-0.3-0.1-0.7,0.1-0.7,0.5c-0.4,1.9,0,3.8,1,5.4
		c1,1.5,2.5,2.6,4.2,3.1c0.3,1,1,2.4,2.4,4.1c2,2.3,5.1,4.4,9.1,6.2l0,0c0.2,0.1,0.5,0.1,0.7,0.1c0.4,0,0.8-0.1,1.3-0.3
		c1.3-0.7,2.5-2.4,3.2-3.7c0.9-1.6,1.6-3.5,2.1-5.2c0.4-1.5,0.9-3.4,1.5-5.5c0.6-0.3,1.2-0.7,1.7-1.2
		C29.5,114.9,29.5,111,27.1,108.7L27.1,108.7z M22.8,117.9c-1.3,0-2.5-0.5-3.5-1.4c-0.9-0.9-1.4-2.1-1.4-3.5c0-1.3,0.5-2.5,1.4-3.5
		c1-1,2.2-1.4,3.5-1.4s2.5,0.5,3.5,1.4c1.9,1.9,1.9,5,0,6.9C25.3,117.3,24.1,117.9,22.8,117.9L22.8,117.9z"/>
	<path class="st3" d="M21.7,111.8c-0.6,0.6-0.6,1.6,0,2.3c0.3,0.3,0.7,0.5,1.1,0.5s0.8-0.2,1.1-0.5c0.6-0.6,0.6-1.6,0-2.3
		C23.3,111.2,22.3,111.2,21.7,111.8L21.7,111.8z M23.1,113.2c-0.1,0.1-0.4,0.1-0.5,0s-0.1-0.4,0-0.5s0.2-0.1,0.3-0.1
		c0.1,0,0.2,0,0.3,0.1C23.2,112.8,23.2,113.1,23.1,113.2L23.1,113.2z"/>
	<path class="st3" d="M22.8,117.3L22.8,117.3c-2.4,0-4.3-2-4.3-4.3l0,0c0-2.4,2-4.3,4.3-4.3l0,0c2.4,0,4.3,2,4.3,4.3l0,0
		C27.1,115.4,25.2,117.3,22.8,117.3z"/>
	<path class="st5" d="M23.9,113c0,0.6-0.5,1.1-1.1,1.1s-1.1-0.5-1.1-1.1s0.5-1.1,1.1-1.1C23.4,111.8,23.9,112.3,23.9,113z"/>
</g>
<path class="st6" d="M27.8,82.6h-1v-2.5c0-0.8-0.7-1.5-1.5-1.5h-2c-0.8,0-1.5,0.7-1.5,1.5V84h-1.2l-0.1-0.3
	c-0.5-1.3-1.8-2.2-3.2-2.2l0,0c-0.2-0.6-0.7-1-1.4-1c-0.4,0-0.7,0.1-1,0.4c-0.3-0.2-0.6-0.4-1-0.4s-0.7,0.1-1,0.4
	c-0.3-0.2-0.6-0.4-1-0.4s-0.7,0.1-1,0.4c-0.3-0.2-0.6-0.4-1-0.4c-0.8,0-1.5,0.7-1.5,1.5v2H7.1v-3.9c0-0.8-0.7-1.5-1.5-1.5h-2
	c-0.8,0-1.5,0.7-1.5,1.5v2.5h-1c-0.8,0-1.5,0.7-1.5,1.5V89c0,0.8,0.7,1.5,1.5,1.5h1V93c0,0.8,0.7,1.5,1.5,1.5h2
	c0.8,0,1.5-0.7,1.5-1.5v-4h1.1l0.4,1.2c0,0.1,0,0.1,0.1,0.2l1.3,1.7l-0.8,8.8c0,0.4,0.1,0.7,0.3,1s0.6,0.4,0.9,0.4h6.7
	c0.4,0,0.7-0.2,0.9-0.4c0.2-0.3,0.4-0.6,0.3-1l-0.9-8.6c0-0.1,0-0.2,0.1-0.2l2.7-2.3c0.2-0.2,0.4-0.5,0.5-0.8h1.1v4
	c0,0.8,0.7,1.5,1.5,1.5h2c0.8,0,1.5-0.7,1.5-1.5v-2.5h1c0.8,0,1.5-0.7,1.5-1.5v-4.9C29.3,83.3,28.6,82.6,27.8,82.6z M16,81.6
	c0.3,0,0.5,0.2,0.5,0.5v2.5V85c0,0.2-0.1,0.4-0.2,0.5l0,0h-0.1h-0.1H16h-0.1c0,0-0.1,0-0.1-0.1c0,0,0,0-0.1,0l-0.1-0.1l0,0
	c0-0.1,0-0.1,0-0.2v-3C15.5,81.9,15.7,81.6,16,81.6z M14,81.6c0.3,0,0.5,0.2,0.5,0.5v3c0,0.3-0.2,0.5-0.5,0.5s-0.5-0.2-0.5-0.5v-3
	C13.5,81.9,13.8,81.6,14,81.6z M12.1,81.6c0.3,0,0.5,0.2,0.5,0.5v3c0,0.3-0.2,0.5-0.5,0.5s-0.5-0.2-0.5-0.5v-3
	C11.6,81.9,11.8,81.6,12.1,81.6z M9.6,82.1c0-0.3,0.2-0.5,0.5-0.5s0.5,0.2,0.5,0.5v3c0,0.1,0,0.1,0,0.2l0,0c0,0,0,0.1-0.1,0.1
	c0,0,0,0-0.1,0c0,0-0.1,0-0.1,0.1h-0.1h-0.1H10H9.9l0,0c-0.1-0.1-0.2-0.3-0.2-0.5v-0.4L9.6,82.1L9.6,82.1z M17,91.3
	c-0.3,0.3-0.5,0.7-0.4,1.1l0.9,8.6c0,0.1,0,0.2-0.1,0.2c0,0-0.1,0.1-0.2,0.1h-6.7c-0.1,0-0.2-0.1-0.2-0.1s-0.1-0.1-0.1-0.2l0.9-9
	c0-0.1,0-0.2-0.1-0.3l-1.4-1.8L9.3,89h7.5c0.3,0,0.5-0.1,0.7-0.3l0.7-0.7c0.2-0.2,0.3-0.4,0.3-0.7v-1.8c0-0.6-0.4-1.2-1-1.4v-1.6
	c1,0,1.9,0.6,2.2,1.6l0.2,0.5v0.1v3.7c0,0.2-0.1,0.4-0.3,0.6L17,91.3z"/>
<path class="st2" d="M61,88.3c-0.1-0.2-0.1-0.1-0.2-0.3c-0.3-1.2-0.2-2.6-1.1-3.9c-1.4-2.2-5-5.7-6.4-6.3c-0.1,0-0.1,0-0.2-0.1
	c0-0.3-0.2-0.7-0.7-0.9c-1.4-0.7-3-1.4-3.9-1c-0.5,0.2-0.9-0.2-1.1,0.3c-0.1,0.3-0.7,0.9-0.6,1.6c0,0.2,0.4,1.1,0.8,1.3
	c0.1,0.2-0.5-0.1-0.2,0.6c0.4,0.7,3.5-0.6,4.2,0.2c0.7,1.1,0.8,4.6,2.1,6.8c-0.2,0-1.5-2-3.8-1.4S47,87.7,47,87.7
	c-2.2-2.1-5.8-0.6-6.3,1.4v9.4h2.2l0.8-1.5c1.5-0.6,2.6-3,3.8-4.5c1.6,0.2,4.1-0.2,5.1-0.3c0.9-0.1,4.3-1.1,5.3-1.4
	C60.3,89.8,61.6,89.9,61,88.3L61,88.3z"/>
<path class="st1" d="M-22.2,22.7c0.1-0.6,0.1-1.1-0.1-1.7c0.2-0.3,0.3-0.6,0.4-1c0.3-1.5-0.3-2.9-1.5-3.7c0.1-1.1-0.4-2.2-1.2-2.9
	c0.7-0.7,1.5-1.1,2.2-0.8c0.5,0.2,0.8,0.6,1,1.3c0.5-0.1,1-0.1,1.4,0.2s0.7,0.7,0.8,1.2c0.1,0.7,0,1.6-0.5,2.3
	c0.3,0.3,0.5,0.8,0.6,1.3c0.1,0.9-0.2,1.8-0.8,2.6c-0.1,0.1-0.1,0.2-0.2,0.3c0.3,0.3,0.5,0.8,0.6,1.3c0.1,0.8-0.2,1.7-0.8,2.4
	c-0.3,0.3-0.6,0.6-1,0.8c0,0.5-0.2,1-0.5,1.4c-0.5,0.6-1.2,0.9-1.9,0.8c-1.3,1.6-2.6,2.3-4.4,2.8c2.4-1.9,3.8-3.7,4.5-6.6
	C-23,24.4-22.3,23.6-22.2,22.7L-22.2,22.7z"/>
<path class="st1" d="M-36.2,17c0.3-1.3,1.3-2.4,2.5-2.7c0.4-1.1,1.5-1.8,2.6-1.7c0-0.1,0.1-0.2,0.1-0.3c0.3-0.6,1-1,1.7-1
	c0.5,0,0.8,0.2,1.1,0.6c0.3-0.1,0.7-0.2,1.1-0.1c0.9,0.2,1.6,1.1,1.5,2.1c1,0.4,1.6,1.6,1.4,2.8c0,0.1,0,0.1,0,0.2
	c1.2,0.5,1.9,1.8,1.6,3.2c-0.1,0.4-0.2,0.8-0.5,1.1c0.3,0.5,0.4,1,0.2,1.6c-0.2,0.8-0.8,1.5-1.5,1.7c-0.6,3.1-2.1,4.8-4.7,6.9
	l-0.1,0.1l0,0c-0.4,0.3-0.9,0.4-1.4,0.3c-0.1,0-0.2,0-0.3-0.1l0.2-0.2c1.1-1.6,1.8-3.1,2.4-4.4c1-0.1,1.5-0.8,1.5-0.8
	c0.1-0.1,0.1-0.4,0-0.5s-0.4-0.1-0.5,0.1c0,0-0.3,0.3-0.7,0.5c0.3-0.9,0.5-1.7,0.6-2.4v-0.1c0.2-1.1,0.2-2,0.1-2.8
	c1.2-0.5,1.6-1.7,1.7-2.4c0-0.2-0.1-0.4-0.3-0.4c-0.2,0-0.3,0.1-0.4,0.3c0,0.1-0.1,1.2-1.1,1.7c0-0.1,0-0.2-0.1-0.3
	c-0.5-2-1.5-3.2-1.9-3.6c0.1-0.7-0.2-1.4-0.2-1.4c-0.1-0.2-0.3-0.2-0.4-0.2c-0.2,0.1-0.2,0.3-0.2,0.5c0.1,0.1,0.1,0.4,0.1,0.7
	c-0.7-0.2-1.6,0-1.6,0.1c-0.2,0.1-0.3,0.3-0.2,0.4c0,0.1,0.1,0.2,0.2,0.2s0.1,0,0.2,0c0.3-0.1,1-0.3,1.4,0.1
	c0.1,0.1,0.6,0.5,1.1,1.3c-1.3-0.4-2.3-0.2-2.3-0.1c-0.2,0-0.3,0.2-0.3,0.4c0,0.1,0.1,0.2,0.3,0.3h0.1c0,0,1.2-0.3,2.6,0.4
	c0.2,0.5,0.4,1.1,0.5,1.7v0.1V21c0.1,0.6,0.1,1.2,0.1,1.9c-0.6-0.6-1.6-0.9-1.6-0.9l0,0c-0.2,0-0.4,0.1-0.4,0.3
	c0,0.2,0.1,0.4,0.3,0.4c0,0,1.4,0.3,1.6,1.2c-0.1,0.8-0.4,1.8-0.8,2.8l0,0c-0.5,1.3-1.3,2.8-2.4,4.4l-0.2,0.3
	c-0.2-0.2-0.4-0.4-0.5-0.6c-0.2-0.4-0.1-0.9,0.1-1.3c1-1.7,1.2-3.1,0.8-4.1c-0.6-1.4-2.2-1.9-3.2-2.1c-0.5-0.1-0.8-0.1-0.8-0.1h-0.3
	v-0.4c0,0,0.1-1.2,0.9-1.8l0.1-0.1c-0.2-0.1-0.3-0.2-0.5-0.3C-35.9,19.6-36.4,18.3-36.2,17L-36.2,17z"/>
<path class="st6" d="M-16.7,100c-0.3,1.3-0.8,2.6-1.7,3.7h-1.5l0,0c-0.1-0.2-0.2-0.5-0.3-0.7c0,0,0-0.1-0.1-0.1
	c-0.1-0.2-0.2-0.4-0.4-0.6c0,0,0,0,0-0.1c-0.3-0.5-0.7-0.9-1.1-1.3C-20.4,99.6-18.4,99.2-16.7,100L-16.7,100z"/>
<path class="st6" d="M-30,101.2C-30,101.2-30,101.1-30,101.2c0.3-0.2,0.5-0.3,0.8-0.4c0,0,0.1,0,0.2-0.1c0.2-0.1,0.4-0.2,0.7-0.2
	c0.1,0,0.2,0,0.2,0c0.2,0,0.4-0.1,0.6-0.1c0.1,0,0.2,0,0.3,0c0.2,0,0.4,0,0.6,0c0.1,0,0.2,0,0.2,0c0.2,0,0.5,0,0.7,0.1
	c0.1,0,0.1,0,0.2,0c0.3,0.1,0.5,0.1,0.8,0.2h0.1c0.3,0.1,0.5,0.2,0.8,0.3c0.3,0.1,0.5,0.3,0.8,0.5c0.2,0.2,0.4,0.3,0.6,0.5l0.1,0.1
	c0.2,0.2,0.4,0.4,0.5,0.6c0,0,0,0.1,0.1,0.1c0.2,0.3,0.3,0.5,0.5,0.8h-11C-31.8,102.6-31,101.8-30,101.2L-30,101.2z"/>
<path class="st6" d="M-21.5,93.4c1-0.1,1.9,0.5,2.2,1.4c0.3,0.9,0,2-0.8,2.5c0,0,0,0-0.1,0l-7,6.2c-0.8-0.4-1.7-0.6-2.7-0.7l0,0
	c0.1-0.1,0.1-0.2,0.2-0.3c0-0.1,0.1-0.2,0.1-0.2c0.1-0.2,0.1-0.3,0.2-0.5c0-0.1,0.1-0.2,0.1-0.3c0-0.1,0-0.1,0.1-0.2
	c0-0.1,0.1-0.2,0.1-0.4l0,0l1.2-1.4l1.1,1.1c0.3,0.3,0.7,0.3,1,0s0.3-0.7,0-1l-1.1-1.1l1.3-1.5l0.9,0.9c0.3,0.3,0.7,0.3,1,0
	s0.3-0.7,0-1l-0.9-0.9l1-1.1l1,1c0.3,0.3,0.7,0.3,1,0s0.3-0.7,0-1l-1-1C-22.4,93.7-22,93.5-21.5,93.4z"/>
<path class="st6" d="M-26.9,96.7c0,0.1-0.1,0.3-0.1,0.4s0,0.1-0.1,0.2c-0.1,0.2-0.1,0.3-0.2,0.5c0,0,0,0.1-0.1,0.1
	c-0.1,0.2-0.2,0.4-0.3,0.5c0,0,0,0.1-0.1,0.1c-0.1,0.2-0.2,0.3-0.3,0.5c-0.3,0-0.6,0.1-1,0.2l0,0c-1.9,0.5-3.5,1.8-4.4,3.5
	c0,0,0,0.1-0.1,0.1c-0.1,0.3-0.3,0.5-0.4,0.8l0,0h-1.3c0-0.1,0-0.2-0.1-0.2v-0.1c0-0.2,0-0.5-0.1-0.7c0,0,0,0,0-0.1
	c0-1,0.3-2,0.9-2.9c0,0,0,0,0-0.1c0.3-0.5,0.7-0.9,1.1-1.3c1.8-1.5,3.9-2.6,6.1-3.3C-26.8,95.5-26.7,96.1-26.9,96.7L-26.9,96.7z"/>
<path class="st6" d="M-39.1,92.8c2.6,0,4.7,2.1,4.8,4.6c0,0,0,0.1-0.1,0.1c-0.2,0.2-0.3,0.3-0.5,0.5c0,0.1-0.1,0.1-0.1,0.2
	c-0.1,0.2-0.3,0.4-0.4,0.5c0,0.1-0.1,0.1-0.1,0.2c-0.1,0.1-0.1,0.2-0.2,0.2c-0.5,0.9-0.8,1.8-0.9,2.8l0,0c0,0.2,0,0.5,0,0.7v0.1
	c0,0.2,0,0.4,0.1,0.7v0.1h-0.9c0-0.1-0.1-0.1-0.1-0.2c-0.1-0.1-0.1-0.2-0.2-0.3c-0.1-0.1-0.2-0.3-0.2-0.4c-0.1-0.1-0.1-0.2-0.2-0.3
	c-0.1-0.1-0.2-0.2-0.3-0.4c-0.1-0.1-0.2-0.2-0.3-0.3c-0.1-0.1-0.2-0.2-0.4-0.3c-0.1-0.1-0.2-0.2-0.3-0.2c-0.1-0.1-0.3-0.2-0.4-0.3
	c-0.1-0.1-0.2-0.1-0.3-0.2s-0.3-0.1-0.5-0.2c-0.1,0-0.2-0.1-0.3-0.1c-0.2-0.1-0.4-0.1-0.5-0.1s-0.2,0-0.3-0.1
	c-0.3,0-0.6-0.1-0.9-0.1c-0.1,0-0.2,0-0.3,0c-0.1-0.1-0.2-0.3-0.3-0.4s-0.1-0.2-0.2-0.2c-0.1-0.2-0.3-0.4-0.4-0.5
	c-0.5-1.5-0.2-3,0.6-4.3C-42.1,93.5-40.6,92.8-39.1,92.8L-39.1,92.8z"/>
<path class="st6" d="M-46,103.6c0-0.1,0.1-0.2,0.2-0.2c0.1-0.1,0.1-0.1,0.2-0.2c0.1-0.1,0.1-0.1,0.2-0.2c0.1-0.1,0.1-0.1,0.2-0.2
	c0.1-0.1,0.1-0.1,0.2-0.2c0.1-0.1,0.2-0.1,0.2-0.2c0.1,0,0.1-0.1,0.2-0.1c0.1-0.1,0.2-0.1,0.3-0.2c0.1,0,0.1-0.1,0.2-0.1
	c0.2-0.1,0.3-0.1,0.5-0.2l0,0c0.2-0.1,0.4-0.1,0.6-0.1c0.1,0,0.1,0,0.2,0c0.3,0,0.7,0,1,0c0.1,0,0.1,0,0.2,0c0.1,0,0.3,0.1,0.4,0.1
	c0.1,0,0.1,0,0.2,0.1c0.1,0,0.2,0.1,0.4,0.2c0.1,0,0.1,0.1,0.2,0.1c0.1,0.1,0.3,0.2,0.4,0.2l0.1,0.1c0.2,0.1,0.3,0.2,0.4,0.4
	l0.1,0.1c0.1,0.1,0.2,0.2,0.3,0.4c0,0.1,0.1,0.1,0.1,0.2s0.1,0.1,0.1,0.2L-46,103.6C-46,103.7-46,103.6-46,103.6z"/>
<path class="st6" d="M-48.2,97.5c0.5,0,1.9,0.2,3.5,2.3c0.1,0.2,0.2,0.3,0.4,0.5c0,0.1,0.1,0.1,0.1,0.2c0,0,0,0,0,0.1h-0.1
	c-0.2,0.1-0.4,0.2-0.6,0.3c-0.1,0-0.1,0.1-0.2,0.1c-0.5,0.2-0.9,0.6-1.2,0.9l-0.1,0.1c-0.2,0.2-0.3,0.4-0.5,0.6l0,0
	c-0.1,0.2-0.3,0.4-0.4,0.7c0,0.1-0.1,0.1-0.1,0.2s-0.1,0.2-0.1,0.2h-1.3C-49.7,101.7-49.5,99.3-48.2,97.5L-48.2,97.5z"/>
<path class="st6" d="M-14.3,105.6c-1.9,4.6-5.2,8.4-9.4,11h-1.8c-0.4,0-0.7,0.3-0.7,0.7c0,0.4,0.3,0.7,0.7,0.7h1.4v0.8
	c0,0.3-0.3,0.6-0.6,0.6h-16.5c-0.3,0-0.6-0.3-0.6-0.6V118h8.2c0.4,0,0.7-0.3,0.7-0.7c0-0.4-0.3-0.7-0.7-0.7h-8.6
	c-4.2-2.6-7.5-6.4-9.4-11l-0.2-0.6H-14L-14.3,105.6z"/>
<path class="st6" d="M-35.7,88.7c-1.4,0-2.6,0.7-3.4,1.8c-0.8-1.1-2-1.8-3.4-1.8c-0.4,0-0.7,0.3-0.7,0.7s0.3,0.7,0.7,0.7
	c1.5,0,2.7,1.2,2.7,2.7c0,0.4,0.3,0.7,0.7,0.7s0.7-0.3,0.7-0.7c0-1.5,1.2-2.7,2.7-2.7c0.4,0,0.7-0.3,0.7-0.7S-35.3,88.7-35.7,88.7
	L-35.7,88.7z"/>
<path class="st6" d="M-17.9,94.1l-1-0.3l1.3-1.3c0.3-0.3,0.3-0.7,0-1s-0.7-0.3-1,0l-1.3,1.3l-0.3-1c-0.1-0.4-0.5-0.5-0.9-0.4
	s-0.5,0.5-0.4,0.9l0.7,2l0,0l0,0c0,0,0,0,0,0.1c0,0,0,0.1,0.1,0.1l0,0l0,0l0,0c0.1,0,0.1,0.1,0.2,0.1l0,0l0,0l0,0l0,0l2,0.7
	c0.4,0.1,0.7-0.1,0.9-0.4C-17.3,94.6-17.5,94.3-17.9,94.1L-17.9,94.1z"/>
<path class="st1" d="M-42,24.6c-1.1-0.4-2.3-0.6-3.5-0.5c-0.7,0-0.8,1,0,0.9c1.1-0.1,2.2,0.1,3.2,0.5c0.3-0.4,0.6-0.7,0.8-0.9
	c0.3-0.2,0.7-0.5,1.2-0.7c0-0.1-0.1-0.1-0.2-0.2c-1.9-1.1-2.8-2.8-3.7-4.5c-0.3-0.5-1.3-0.1-1,0.5c0.4,0.8,0.9,1.6,1.4,2.4
	c-0.7-0.6-1.3-1.3-1.9-2c-0.4-0.5-1.4,0-1,0.5C-45.3,22.1-43.8,23.5-42,24.6L-42,24.6z"/>
<path class="st1" d="M-41.9,25.7c-0.4,0.5-0.7,1.2-0.7,1.8c0,0.5,0.3,1,0.8,1.3l0.6,0.3c0.1-1,0.4-1.9,1.3-2.7
	c0.5-0.4,1.3,0.2,0.8,0.7c-0.8,0.7-1,1.7-1,2.6l1.3,0.8c0.2-0.8,0.5-1.5,1.3-2.2c0.5-0.4,1.3,0.2,0.8,0.7c-0.7,0.6-0.9,1.4-1,2.2
	l1.3,0.8c0.2-0.6,0.5-1.2,1.1-1.8c0.5-0.4,1.3,0.2,0.8,0.7c-0.6,0.5-0.8,1.1-0.9,1.7l6.3,3.7c0.4,0.3,0.8,0.4,1.2,0.4
	c0.5,0,1-0.2,1.2-0.6c0.3-0.4,0.1-1-0.4-1.4l-9.1-10.6c-0.4-0.4-0.9-0.5-1.5-0.5c-0.9,0-2.4-1.2-3.1-0.8c-0.4,0.2-0.2,2-0.4,2.2
	C-41.4,25-41.7,25.3-41.9,25.7L-41.9,25.7z"/>
<path class="st1" d="M-90.5,45c-12.2,0-22.1-9.9-22.1-22.1s9.9-22.1,22.1-22.1s22.1,9.9,22.1,22.1S-78.3,45-90.5,45z M-90.5,1.8
	c-11.6,0-21.1,9.5-21.1,21.1S-102.2,44-90.5,44s21.1-9.5,21.1-21.1S-78.9,1.8-90.5,1.8z"/>
<path class="st1" d="M-148.4,45.6c-12.2,0-22.1-9.9-22.1-22.1s9.9-22.1,22.1-22.1s22.1,9.9,22.1,22.1S-136.2,45.6-148.4,45.6z
	 M-148.4,2.4c-11.6,0-21.1,9.5-21.1,21.1s9.5,21.1,21.1,21.1s21.1-9.5,21.1-21.1C-127.3,11.8-136.7,2.4-148.4,2.4z"/>
<g class="st2">
	<path class="st7" d="M-138.3,16.8c-1.6-0.2-5.3-2.7-8-1.8s-2.5,1.5-3.8,2c-1.3,0.4-1.6-0.2-4.2,0.6c-2.7,0.9-4.3,5.1-5.4,6.2
		c0,0-1.1,1.1-0.7,2.4c0.4,1.3,1.8,0.9,1.8,0.9c4.7-1.5,6.2-3.5,6.2-3.5s2.4,0.7,4.4,0s3.6-2.7,3.6-2.7s2.4,0.7,7.1-0.9
		c0,0,1.3-0.5,0.9-1.8C-136.8,17.1-138.3,16.8-138.3,16.8"/>
	<path class="st7" d="M-139,21.5c-4,1.3-3.1,4-7.8,5.5s-5.6-1.1-9.6,0.2c-1.3,0.4-1.8,1.3-1.6,2c0.7,2,6,6.9,13.3,4.5
		c7.4-2.4,8.7-9.5,8.1-11.5C-136.8,21.5-137.7,21.1-139,21.5"/>
</g>
<g class="st2">
	<path class="st3" d="M-150.3,94.4c2,0.4,2.9,1.4,3.1,2.7c0,1.2-0.9,2.6-1.6,3.4c-1.5,1.8-4,3.7-6.5,3.5c-2-0.1-2.1-2.3-2.1-2
		c0,0.9,0.5,1.8,1.4,2.2c0.8,0.4,1.9,0.2,2.7,0c0.7-0.2,1.4-0.5,2.1-0.9c-0.4,0.3-0.8,0.7-1.2,1c-1.7,1.2-3.4,1.3-4.9,2.2
		c-2.8,1.5-3.2,4.6-3.2,4.6s0.6-3.2,6.1-4.5h0.2c-1.8,2-2.4,4.3,0.8,8.3c-2.1-6.5,4-8.6,6.9-11.3C-142,99.6-143,94-150.3,94.4z"/>
	<path class="st3" d="M-139.4,106.9c1.1,0.3,1.8,0.3,3.2-0.1l-0.5-0.1c-0.7-0.1-0.8-0.2-1.5-0.4c-2.3-0.9-2.9-4-3.6-6.1
		c-0.4-1.2-0.9-2.3-1.5-3.2c-0.2-0.2-0.7-0.7-0.7-0.7c1.1,1.8,1.3,2.9,0.8,5.6c-0.6,2.9,2.1,3.8,0.5,4.5c-1.2,0.5-0.8,0.6-0.5,1.2
		c0.1,0.4-0.1,0.5-0.6,0.7c0.3,0.8,0.3,0.7-0.4,0.9c-0.7,0.3,0.4,1.8-1.1,1.9c-1,0-1.8-0.7-3-0.4c-2.3,3.9,3.3,4.7,6.3,8.7
		c-0.2-2-3.2-4.1-0.8-6.7c-0.2,2.5,0.4,5.4,3,6.5c-0.3-0.6-0.8-1.1-1.1-1.8c-0.4-1-0.6-2.2-0.6-3.3c0.2-4.9,0.3,2.9,5.3,2.5
		c-1.3-0.8-2-1.3-2.4-3.2c-0.6-3.2-0.8-3.5-1.7-4.7c0.2,0.3,1.6,0.7,2.8,1.9c1.3,1.4,1,2.1,1.3,3.8
		C-135.1,108.6-139,109-139.4,106.9L-139.4,106.9z"/>
	<path class="st3" d="M-160.7,106.3c0,0,0.7-0.3,0.9-0.6c0.3-0.3-0.2-0.6-0.8,0.3C-160.6,106.1-160.6,106.2-160.7,106.3z"/>
</g>
<g class="st2">
	<g class="st3">
		<path d="M-87.8,99.5l-4.6,5.5c-1.3-0.7-2.7-1.1-4.3-1.1c-1.5,0-3,0.4-4.3,1.1l-4.5-5.5v13.9c0,0.4,0,0.7,0,1.1
			c0,5.3,2.2,9.9,5.3,11.8c-1.7-2.3-3.3-4.7-2.6-7.1c4-0.2,4.4-0.2,4.4-0.2l1.4,1.2l1.7-1.2c2.9,0,4.3,0.1,4.3,0.1
			c0.2,1.5-0.1,4.7-2.6,7.2c3.1-1.9,5.3-6.5,5.3-11.9c0-0.4,0-0.7,0-1.1L-87.8,99.5z M-98.6,115.2c-0.4,0.2-1.4,0.7-1.8,0.9
			c-0.4,0.1-1,0.2-1.3,0c-0.2-0.2-1-0.9-1.1-1.1c-0.2-0.2-0.3-1.5,0.6-1.4s3.4,1.1,3.5,1.1C-98.6,114.7-98.2,115-98.6,115.2
			L-98.6,115.2z M-90.6,114.9c-0.2,0.2-0.9,0.9-1.1,1.1s-0.8,0.1-1.3,0c-0.4-0.1-1.4-0.7-1.8-0.9c-0.4-0.2-0.1-0.5,0.1-0.6
			s2.6-1.1,3.5-1.1C-90.4,113.4-90.5,114.8-90.6,114.9L-90.6,114.9z"/>
	</g>
</g>
<g class="st2">
	<path class="st7" d="M-88.2,27.6c0-0.2-0.2-0.4-0.4-0.3c0,0-1,0.3-1.8,0.3s-1.8-0.3-1.8-0.3c-0.2-0.1-0.4,0.1-0.4,0.3v1.2
		c0,0.2,0.2,0.4,0.4,0.4h3.5c0.2,0,0.4-0.2,0.4-0.4v-1.2H-88.2z"/>
	<path class="st7" d="M-84.1,12.3c0-0.5-0.4-0.8-0.8-0.8h-10.8c-0.5,0-0.8,0.4-0.8,0.8v6.8c0,2.1,0.6,4,1.8,5.4
		c1.1,1.4,2.7,2.2,4.5,2.2c1.7,0,3.3-0.8,4.5-2.2c1.1-1.4,1.8-3.3,1.8-5.4v-6.8H-84.1z"/>
	<path class="st7" d="M-97.3,20.7c-1.1-0.4-1.6-1.4-1.6-3V14h1.5v-1.6h-2.3c-0.5,0-0.8,0.4-0.8,0.8v4.5c0,2.7,1.3,4.4,3.7,4.8
		C-97.1,21.9-97.2,21.3-97.3,20.7L-97.3,20.7z"/>
	<path class="st7" d="M-95.7,30.4c-0.5,0-0.8,0.4-0.8,0.8v4.1c0,0.5,0.4,0.8,0.8,0.8h10.8c0.5,0,0.8-0.4,0.8-0.8v-4.1
		c0-0.5-0.4-0.8-0.8-0.8H-95.7z"/>
	<path class="st7" d="M-80.9,12.4h-2.3V14h1.5v3.7c0,1.6-0.5,2.6-1.6,3c-0.1,0.6-0.2,1.2-0.4,1.8c2.4-0.4,3.7-2.1,3.7-4.8v-4.5
		C-80.1,12.8-80.4,12.4-80.9,12.4L-80.9,12.4z"/>
</g>
</svg>
