<?xml version="1.0" encoding="utf-8"?>
<!-- Generator: Adobe Illustrator 22.0.1, SVG Export Plug-In . SVG Version: 6.00 Build 0)  -->
<svg version="1.1" id="Layer_1" xmlns="http://www.w3.org/2000/svg" xmlns:xlink="http://www.w3.org/1999/xlink" x="0px" y="0px"
	 viewBox="0 0 47.8 46.5" style="enable-background:new 0 0 47.8 46.5;" xml:space="preserve">
<style type="text/css">
	.st0{display:none;}
	.st1{display:inline;fill:#D24A43;}
	.st2{display:none;fill:#D24A43;}
	.st3{fill:#BF1E2E;}
	.st4{display:inline;}
	.st5{display:inline;fill:#FFFFFF;}
	.st6{display:none;fill:#090E0D;}
</style>
<g class="st0">
	<path class="st1" d="M-23.8,17.1c0-0.2,0-0.5,0-0.7c0-3.3-2.7-6-6-6s-6,2.7-6,6c0,0.2,0,0.5,0,0.7c-2.8,1.9-4.6,5.1-4.6,8.7
		c0,2.5,0.9,4.7,2.3,6.5c0.6,0.8,1.6,1.3,2.7,1.3h11.2c1,0,2-0.5,2.7-1.3c1.4-1.8,2.3-4,2.3-6.5C-19.3,22.2-21.1,19-23.8,17.1
		L-23.8,17.1z M-29.8,12.7c1.9,0,3.4,1.4,3.7,3.2c-1.1-0.4-2.4-0.7-3.7-0.7c-1.3,0-2.5,0.2-3.7,0.7C-33.2,14.1-31.6,12.7-29.8,12.7
		L-29.8,12.7z M-30.5,27.7c-0.1,0.2-0.4,0.4-0.6,0.4s-0.5-0.1-0.6-0.3l-0.9-1.5l-0.4,0.4v0.7c0,0.4-0.3,0.7-0.7,0.7
		s-0.7-0.3-0.7-0.7v-5.1c0-0.4,0.3-0.7,0.7-0.7s0.7,0.3,0.7,0.7v3.2l1-1.6c0.1-0.2,0.3-0.3,0.6-0.3c0.2,0,0.4,0.1,0.5,0.3
		c0.1,0.2,0.1,0.5-0.1,0.6l-0.7,0.8l1.1,1.6C-30.4,27.2-30.4,27.5-30.5,27.7L-30.5,27.7z M-25.2,25v2.5c0,0.9-0.2,1.6-0.7,2
		s-1.2,0.6-1.8,0.6c-0.4,0-0.8,0-1.1-0.1c-0.3-0.1-0.5-0.4-0.4-0.7c0-0.1,0.1-0.2,0.2-0.3c0.1-0.1,0.3-0.1,0.4,0
		c0.2,0.1,0.5,0.1,0.8,0.1c0.7,0,1.2-0.4,1.2-1.2v-0.3l0,0c-0.3,0.4-0.7,0.6-1.2,0.6c-1.1,0-1.9-0.9-1.9-2.2c0-1.4,0.9-2.4,2-2.4
		c0.6,0,1,0.3,1.2,0.6l0,0c0-0.3,0.3-0.5,0.6-0.5h0.1c0.2,0,0.3,0.1,0.4,0.2s0.2,0.3,0.2,0.4C-25.2,24.4-25.2,24.7-25.2,25L-25.2,25
		z"/>
	<path class="st1" d="M-27.4,24.6c-0.5,0-0.9,0.5-0.9,1.3c0,0.7,0.3,1.2,0.9,1.2c0.4,0,0.6-0.2,0.7-0.6c0-0.1,0-0.2,0-0.4v-0.7
		c0-0.1,0-0.2,0-0.3C-26.7,24.8-27,24.6-27.4,24.6L-27.4,24.6z"/>
</g>
<path class="st2" d="M-30,45c-12.2,0-22.1-9.9-22.1-22.1S-42.2,0.8-30,0.8s22.1,9.9,22.1,22.1S-17.8,45-30,45z M-30,1.8
	c-11.6,0-21.1,9.5-21.1,21.1S-41.7,44-30,44s21.1-9.5,21.1-21.1S-18.4,1.8-30,1.8z"/>
<path class="st3" d="M24,45C11.8,45,1.9,35.1,1.9,22.9S11.8,0.8,24,0.8s22.1,9.9,22.1,22.1S36.2,45,24,45z M24,1.8
	c-11.6,0-21.1,9.5-21.1,21.1S12.3,44,24,44c11.6,0,21.1-9.5,21.1-21.1S35.6,1.8,24,1.8z"/>
<path class="st2" d="M-85.3,45.6c-12.2,0-22.1-9.9-22.1-22.1s9.9-22.1,22.1-22.1s22.1,9.9,22.1,22.1S-73.1,45.6-85.3,45.6z
	 M-85.3,2.4c-11.6,0-21.1,9.5-21.1,21.1s9.5,21.1,21.1,21.1s21.1-9.5,21.1-21.1C-64.2,11.8-73.7,2.4-85.3,2.4z"/>
<g>
	<g>
		<path class="st3" d="M22.3,30.9h-4.7c-0.9,0-1.6-0.7-1.6-1.6V14.7c0-0.9,0.7-1.6,1.6-1.6H29c0.9,0,1.6,0.7,1.6,1.6V27l2.1-2.5
			V13.1c0-1.2-0.9-2.1-2.1-2.1H15.9c-1.1,0-2,0.9-2,2.1V31c0,1.2,0.9,2.1,2.1,2.1h8.3l-1-0.8C22.8,31.8,22.5,31.4,22.3,30.9
			L22.3,30.9z"/>
		<path class="st3" d="M28.1,15.8h-9.5c-0.6,0-1.1,0.5-1.1,1.1S18,18,18.6,18h9.5c0.6,0,1-0.5,1-1.1C29.2,16.2,28.7,15.8,28.1,15.8
			L28.1,15.8z"/>
		<path class="st3" d="M28.1,19.3h-9.5c-0.6,0-1.1,0.5-1.1,1.1s0.5,1.1,1.1,1.1h9.5c0.6,0,1-0.5,1-1.1
			C29.2,19.7,28.7,19.3,28.1,19.3L28.1,19.3z"/>
		<path class="st3" d="M28.1,22.8h-9.5c-0.6,0-1.1,0.4-1.1,1s0.5,1,1.1,1h9.5c0.6,0,1-0.4,1-1C29.2,23.2,28.7,22.8,28.1,22.8
			L28.1,22.8z"/>
		<path class="st3" d="M17.6,27.2c0,0.6,0.5,1,1.1,1h3.5c0.1-0.4,0.4-0.8,0.7-1.2c0.3-0.4,0.7-0.7,1.1-0.9h-5.3
			C18.1,26.1,17.6,26.6,17.6,27.2L17.6,27.2z"/>
		<path class="st3" d="M28.1,26.1h-0.8c0.3,0.1,0.5,0.3,0.7,0.5l1.1,0.9c0-0.1,0.1-0.2,0.1-0.4C29.2,26.6,28.7,26.1,28.1,26.1
			L28.1,26.1z"/>
		<path class="st3" d="M38.5,23.3c-0.8-0.7-1.9-0.6-2.6,0.2l-6.1,7.1l-3-2.6c-0.8-0.7-1.9-0.6-2.6,0.2c-0.7,0.8-0.6,1.9,0.2,2.6
			l4.4,3.8c0.3,0.3,0.8,0.4,1.2,0.4h0.1c0.5,0,0.9-0.3,1.3-0.6l7.3-8.5C39.4,25.1,39.3,24,38.5,23.3L38.5,23.3z"/>
	</g>
</g>
<g class="st0">
	<path class="st4" d="M-26.6,108.7c-2.4-2.4-6.3-2.4-8.6,0c-1.2,1.2-1.8,2.7-1.8,4.3s0.6,3.2,1.8,4.3c0.6,0.6,1.3,1,2,1.3
		c-0.3,0.4-0.5,0.6-0.7,0.8c-0.9,0.6-1.7,1.4-2.3,2.3c-0.1-0.5-0.2-0.9-0.4-1.4c-0.8-1.9-2.3-3.2-4.3-3.7l-0.7-0.2
		c0-0.1,0-0.1,0-0.2c-0.8-3.4-3.7-6-7.2-6.5c-0.3,0-0.6,0.2-0.7,0.5c0,0.3,0.2,0.6,0.5,0.7c3,0.4,5.5,2.6,6.1,5.5
		c0.3,1.3,0.6,2.5,0.9,3.4c0.1,0.3,0.3,0.4,0.6,0.4c0.1,0,0.1,0,0.2,0c0.3-0.1,0.5-0.5,0.4-0.8c-0.2-0.5-0.4-1.1-0.5-1.8h0.1
		c1.6,0.4,2.8,1.4,3.4,2.9c0.6,1.5,0.5,3.1-0.3,4.4l-0.1,0.1c-0.2,0.3-0.1,0.7,0.2,0.8c0.1,0.1,0.2,0.1,0.3,0.1
		c0.2,0,0.4-0.1,0.5-0.3l0.1-0.1c0.3-0.5,0.6-1.1,0.7-1.7c0.7-1.4,1.8-2.7,3.1-3.7c0.4-0.3,0.9-0.8,1.2-1.4c0.3,0.1,0.7,0.1,1,0.1
		c0.4,0,0.8,0,1.2-0.1c-0.5,1.8-0.9,3.4-1.3,4.8c-0.8,3.1-2.8,7.1-4.7,8.1c-0.4,0.2-0.7,0.3-1,0.2c-8.8-4-10.6-8.2-10.9-9.8
		c-0.1-0.3-0.4-0.5-0.7-0.5c-1.5-0.4-2.8-1.3-3.6-2.6c-0.9-1.3-1.2-2.9-0.9-4.5c0.1-0.3-0.1-0.7-0.5-0.7c-0.3-0.1-0.7,0.1-0.7,0.5
		c-0.4,1.9,0,3.8,1,5.4c1,1.5,2.5,2.6,4.2,3.1c0.3,1,1,2.4,2.4,4.1c2,2.3,5.1,4.4,9.1,6.2l0,0c0.2,0.1,0.5,0.1,0.7,0.1
		c0.4,0,0.8-0.1,1.3-0.3c1.3-0.7,2.5-2.4,3.2-3.7c0.9-1.6,1.6-3.5,2.1-5.2c0.4-1.5,0.9-3.4,1.5-5.5c0.6-0.3,1.2-0.7,1.7-1.2
		C-24.3,114.9-24.3,111-26.6,108.7L-26.6,108.7z M-31,117.9c-1.3,0-2.5-0.5-3.5-1.4c-0.9-0.9-1.4-2.1-1.4-3.5c0-1.3,0.5-2.5,1.4-3.5
		c1-1,2.2-1.4,3.5-1.4s2.5,0.5,3.5,1.4c1.9,1.9,1.9,5,0,6.9C-28.4,117.3-29.6,117.9-31,117.9L-31,117.9z"/>
	<path class="st4" d="M-32.1,111.8c-0.6,0.6-0.6,1.6,0,2.3c0.3,0.3,0.7,0.5,1.1,0.5s0.8-0.2,1.1-0.5c0.6-0.6,0.6-1.6,0-2.3
		C-30.4,111.2-31.5,111.2-32.1,111.8L-32.1,111.8z M-30.7,113.2c-0.1,0.1-0.4,0.1-0.5,0s-0.1-0.4,0-0.5s0.2-0.1,0.3-0.1
		c0.1,0,0.2,0,0.3,0.1C-30.5,112.8-30.5,113.1-30.7,113.2L-30.7,113.2z"/>
	<path class="st4" d="M-31,117.3L-31,117.3c-2.4,0-4.3-2-4.3-4.3l0,0c0-2.4,2-4.3,4.3-4.3l0,0c2.4,0,4.3,2,4.3,4.3l0,0
		C-26.6,115.4-28.6,117.3-31,117.3z"/>
	<path class="st5" d="M-29.8,113c0,0.6-0.5,1.1-1.1,1.1s-1.1-0.5-1.1-1.1s0.5-1.1,1.1-1.1C-30.3,111.8-29.8,112.3-29.8,113z"/>
</g>
<path class="st6" d="M-25.9,82.6h-1v-2.5c0-0.8-0.7-1.5-1.5-1.5h-2c-0.8,0-1.5,0.7-1.5,1.5V84H-33l-0.1-0.3
	c-0.5-1.3-1.8-2.2-3.2-2.2l0,0c-0.2-0.6-0.7-1-1.4-1c-0.4,0-0.7,0.1-1,0.4c-0.3-0.2-0.6-0.4-1-0.4s-0.7,0.1-1,0.4
	c-0.3-0.2-0.6-0.4-1-0.4s-0.7,0.1-1,0.4c-0.3-0.2-0.6-0.4-1-0.4c-0.8,0-1.5,0.7-1.5,1.5v2h-1.5v-3.9c0-0.8-0.7-1.5-1.5-1.5h-2
	c-0.8,0-1.5,0.7-1.5,1.5v2.5h-1c-0.8,0-1.5,0.7-1.5,1.5V89c0,0.8,0.7,1.5,1.5,1.5h1V93c0,0.8,0.7,1.5,1.5,1.5h2
	c0.8,0,1.5-0.7,1.5-1.5v-4h1.1l0.4,1.2c0,0.1,0,0.1,0.1,0.2l1.3,1.7l-0.8,8.8c0,0.4,0.1,0.7,0.3,1s0.6,0.4,0.9,0.4h6.7
	c0.4,0,0.7-0.2,0.9-0.4c0.2-0.3,0.4-0.6,0.3-1l-0.9-8.6c0-0.1,0-0.2,0.1-0.2l2.7-2.3c0.2-0.2,0.4-0.5,0.5-0.8h1.1v4
	c0,0.8,0.7,1.5,1.5,1.5h2c0.8,0,1.5-0.7,1.5-1.5v-2.5h1c0.8,0,1.5-0.7,1.5-1.5v-4.9C-24.4,83.3-25.1,82.6-25.9,82.6z M-37.7,81.6
	c0.3,0,0.5,0.2,0.5,0.5v2.5V85c0,0.2-0.1,0.4-0.2,0.5l0,0h-0.1h-0.1h-0.1h-0.1c0,0-0.1,0-0.1-0.1c0,0,0,0-0.1,0l-0.1-0.1l0,0
	c0-0.1,0-0.1,0-0.2v-3C-38.2,81.9-38,81.6-37.7,81.6z M-39.7,81.6c0.3,0,0.5,0.2,0.5,0.5v3c0,0.3-0.2,0.5-0.5,0.5s-0.5-0.2-0.5-0.5
	v-3C-40.2,81.9-40,81.6-39.7,81.6z M-41.7,81.6c0.3,0,0.5,0.2,0.5,0.5v3c0,0.3-0.2,0.5-0.5,0.5s-0.5-0.2-0.5-0.5v-3
	C-42.2,81.9-42,81.6-41.7,81.6z M-44.1,82.1c0-0.3,0.2-0.5,0.5-0.5s0.5,0.2,0.5,0.5v3c0,0.1,0,0.1,0,0.2l0,0c0,0,0,0.1-0.1,0.1
	c0,0,0,0-0.1,0c0,0-0.1,0-0.1,0.1h-0.1h-0.1h-0.1h-0.1l0,0c-0.1-0.1-0.2-0.3-0.2-0.5v-0.4v-2.5H-44.1z M-36.8,91.3
	c-0.3,0.3-0.5,0.7-0.4,1.1l0.9,8.6c0,0.1,0,0.2-0.1,0.2c0,0-0.1,0.1-0.2,0.1h-6.7c-0.1,0-0.2-0.1-0.2-0.1s-0.1-0.1-0.1-0.2l0.9-9
	c0-0.1,0-0.2-0.1-0.3l-1.4-1.8l-0.3-0.8h7.5c0.3,0,0.5-0.1,0.7-0.3l0.7-0.7c0.2-0.2,0.3-0.4,0.3-0.7v-1.8c0-0.6-0.4-1.2-1-1.4v-1.6
	c1,0,1.9,0.6,2.2,1.6l0.2,0.5v0.1v3.7c0,0.2-0.1,0.4-0.3,0.6L-36.8,91.3z"/>
<path class="st0" d="M7.2,88.3c-0.1-0.2,0-0.1-0.2-0.3c-0.3-1.2-0.2-2.6-1.1-3.9c-1.4-2.2-5-5.7-6.4-6.3c-0.1,0-0.1,0-0.2-0.1
	c0-0.3-0.2-0.7-0.7-0.9c-1.4-0.7-3-1.4-3.9-1c-0.5,0.2-0.9-0.2-1.1,0.3c0,0.3-0.6,0.9-0.5,1.6c0,0.2,0.4,1.1,0.8,1.3
	c0.1,0.2-0.5-0.1-0.2,0.6c0.4,0.7,3.5-0.6,4.2,0.2c0.7,1.1,0.8,4.6,2.1,6.8c-0.2,0-1.5-2-3.8-1.4s-2.9,2.5-2.9,2.5
	c-2.2-2.1-5.8-0.6-6.3,1.4v9.4h2.2L-10,97c1.5-0.6,2.6-3,3.8-4.5c1.6,0.2,4.1-0.2,5.1-0.3c0.9-0.1,4.3-1.1,5.3-1.4
	C6.6,89.8,7.8,89.9,7.2,88.3L7.2,88.3z"/>
<path class="st2" d="M-75.9,22.7c0.1-0.6,0.1-1.1-0.1-1.7c0.2-0.3,0.3-0.6,0.4-1c0.3-1.5-0.3-2.9-1.5-3.7c0.1-1.1-0.4-2.2-1.2-2.9
	c0.7-0.7,1.5-1.1,2.2-0.8c0.5,0.2,0.8,0.6,1,1.3c0.5-0.1,1-0.1,1.4,0.2s0.7,0.7,0.8,1.2c0.1,0.7,0,1.6-0.5,2.3
	C-73.2,18-73,18.5-73,19c0.1,0.9-0.2,1.8-0.8,2.6c-0.1,0.1-0.1,0.2-0.2,0.3c0.3,0.3,0.5,0.8,0.6,1.3c0.1,0.8-0.2,1.7-0.8,2.4
	c-0.3,0.3-0.6,0.6-1,0.8c0,0.5-0.2,1-0.5,1.4c-0.5,0.6-1.2,0.9-1.9,0.8c-1.3,1.6-2.6,2.3-4.4,2.8c2.4-1.9,3.8-3.7,4.5-6.6
	C-76.7,24.4-76.1,23.6-75.9,22.7L-75.9,22.7z"/>
<path class="st2" d="M-89.9,17c0.3-1.3,1.3-2.4,2.5-2.7c0.4-1.1,1.5-1.8,2.6-1.7c0-0.1,0.1-0.2,0.1-0.3c0.3-0.6,1-1,1.7-1
	c0.5,0,0.8,0.2,1.1,0.6c0.3-0.1,0.7-0.2,1.1-0.1c0.9,0.2,1.6,1.1,1.5,2.1c1,0.4,1.6,1.6,1.4,2.8c0,0.1,0,0.1,0,0.2
	c1.2,0.5,1.9,1.8,1.6,3.2c-0.1,0.4-0.2,0.8-0.5,1.1c0.3,0.5,0.4,1,0.2,1.6c-0.2,0.8-0.8,1.5-1.5,1.7c-0.6,3.1-2.1,4.8-4.7,6.9
	l-0.1,0.1l0,0c-0.4,0.3-0.9,0.4-1.4,0.3c-0.1,0-0.2,0-0.3-0.1l0.2-0.2c1.1-1.6,1.8-3.1,2.4-4.4c1-0.1,1.5-0.8,1.5-0.8
	c0.1-0.1,0.1-0.4,0-0.5s-0.4-0.1-0.5,0.1c0,0-0.3,0.3-0.7,0.5c0.3-0.9,0.5-1.7,0.6-2.4v-0.1c0.2-1.1,0.2-2,0.1-2.8
	c1.2-0.5,1.6-1.7,1.7-2.4c0-0.2-0.1-0.4-0.3-0.4c-0.2,0-0.3,0.1-0.4,0.3c0,0.1-0.1,1.2-1.1,1.7c0-0.1,0-0.2-0.1-0.3
	c-0.5-2-1.5-3.2-1.9-3.6c0.1-0.7-0.2-1.4-0.2-1.4c-0.1-0.2-0.3-0.2-0.4-0.2c-0.2,0.1-0.2,0.3-0.2,0.5c0.1,0.1,0.1,0.4,0.1,0.7
	c-0.7-0.2-1.6,0-1.6,0.1c-0.2,0.1-0.3,0.3-0.2,0.4c0,0.1,0.1,0.2,0.2,0.2s0.1,0,0.2,0c0.3-0.1,1-0.3,1.4,0.1
	c0.1,0.1,0.6,0.5,1.1,1.3C-84,17.7-85,17.9-85,18c-0.2,0-0.3,0.2-0.3,0.4c0,0.1,0.1,0.2,0.3,0.3h0.1c0,0,1.2-0.3,2.6,0.4
	c0.2,0.5,0.4,1.1,0.5,1.7v0.1V21c0.1,0.6,0.1,1.2,0.1,1.9c-0.6-0.6-1.6-0.9-1.6-0.9l0,0c-0.2,0-0.4,0.1-0.4,0.3
	c0,0.2,0.1,0.4,0.3,0.4c0,0,1.4,0.3,1.6,1.2c-0.1,0.8-0.4,1.8-0.8,2.8l0,0c-0.5,1.3-1.3,2.8-2.4,4.4l-0.2,0.3
	c-0.2-0.2-0.4-0.4-0.5-0.6c-0.2-0.4-0.1-0.9,0.1-1.3c1-1.7,1.2-3.1,0.8-4.1c-0.6-1.4-2.2-1.9-3.2-2.1c-0.5-0.1-0.8-0.1-0.8-0.1h-0.3
	v-0.4c0,0,0.1-1.2,0.9-1.8l0.1-0.1c-0.2-0.1-0.3-0.2-0.5-0.3C-89.6,19.6-90.2,18.3-89.9,17L-89.9,17z"/>
<path class="st6" d="M-70.4,100c-0.3,1.3-0.8,2.6-1.7,3.7h-1.5l0,0c-0.1-0.2-0.2-0.5-0.3-0.7c0,0,0-0.1-0.1-0.1
	c-0.1-0.2-0.2-0.4-0.4-0.6c0,0,0,0,0-0.1c-0.3-0.5-0.7-0.9-1.1-1.3C-74.2,99.6-72.2,99.2-70.4,100L-70.4,100z"/>
<path class="st6" d="M-83.8,101.2C-83.7,101.2-83.7,101.1-83.8,101.2c0.3-0.2,0.5-0.3,0.8-0.4c0.1,0,0.1,0,0.2-0.1
	c0.2-0.1,0.4-0.2,0.7-0.2c0.1,0,0.2,0,0.2,0c0.2,0,0.4-0.1,0.6-0.1c0.1,0,0.2,0,0.3,0c0.2,0,0.4,0,0.6,0c0.1,0,0.2,0,0.2,0
	c0.2,0,0.5,0,0.7,0.1c0.1,0,0.1,0,0.2,0c0.3,0.1,0.5,0.1,0.8,0.2h0.1c0.3,0.1,0.5,0.2,0.8,0.3c0.3,0.1,0.5,0.3,0.8,0.5
	c0.2,0.2,0.4,0.3,0.6,0.5l0.1,0.1c0.2,0.2,0.4,0.4,0.5,0.6l0.1,0.1c0.2,0.3,0.3,0.5,0.5,0.8h-11C-85.6,102.6-84.8,101.8-83.8,101.2
	L-83.8,101.2z"/>
<path class="st6" d="M-75.3,93.4c1-0.1,1.9,0.5,2.2,1.4c0.3,0.9,0,2-0.8,2.5c0,0,0,0-0.1,0l-7,6.2c-0.8-0.4-1.7-0.6-2.7-0.7l0,0
	c0.1-0.1,0.1-0.2,0.2-0.3c0-0.1,0.1-0.2,0.1-0.2c0.1-0.2,0.1-0.3,0.2-0.5c0-0.1,0.1-0.2,0.1-0.3c0-0.1,0-0.1,0.1-0.2
	c0-0.1,0.1-0.2,0.1-0.4l0,0l1.2-1.4l1.1,1.1c0.3,0.3,0.7,0.3,1,0s0.3-0.7,0-1l-1.1-1.1l1.3-1.5l0.9,0.9c0.3,0.3,0.7,0.3,1,0
	s0.3-0.7,0-1l-0.9-0.9l1-1.1l1,1c0.3,0.3,0.7,0.3,1,0s0.3-0.7,0-1l-1-1C-76.1,93.7-75.7,93.5-75.3,93.4z"/>
<path class="st6" d="M-80.6,96.7c0,0.1-0.1,0.3-0.1,0.4s0,0.1-0.1,0.2c-0.1,0.2-0.1,0.3-0.2,0.5c0,0,0,0.1-0.1,0.1
	c-0.1,0.2-0.2,0.4-0.3,0.5c0,0,0,0.1-0.1,0.1c-0.1,0.2-0.2,0.3-0.3,0.5c-0.3,0-0.6,0.1-1,0.2l0,0c-1.9,0.5-3.5,1.8-4.4,3.5
	c0,0,0,0.1-0.1,0.1c-0.1,0.3-0.3,0.5-0.4,0.8l0,0H-89c0-0.1,0-0.2-0.1-0.2v-0.1c0-0.2,0-0.5-0.1-0.7c0,0,0,0,0-0.1
	c0-1,0.3-2,0.9-2.9c0,0,0,0,0-0.1c0.3-0.5,0.7-0.9,1.1-1.3c1.8-1.5,3.9-2.6,6.1-3.3C-80.5,95.5-80.5,96.1-80.6,96.7L-80.6,96.7z"/>
<path class="st6" d="M-92.8,92.8c2.6,0,4.7,2.1,4.8,4.6c0,0,0,0.1-0.1,0.1c-0.2,0.2-0.3,0.3-0.5,0.5c0,0.1-0.1,0.1-0.1,0.2
	c-0.1,0.2-0.3,0.4-0.4,0.5c0,0.1-0.1,0.1-0.1,0.2c-0.1,0.1-0.1,0.2-0.2,0.2c-0.5,0.9-0.8,1.8-0.9,2.8l0,0c0,0.2,0,0.5,0,0.7v0.1
	c0,0.2,0,0.4,0.1,0.7v0.1h-0.9c0-0.1-0.1-0.1-0.1-0.2c-0.1-0.1-0.1-0.2-0.2-0.3c-0.1-0.1-0.2-0.3-0.2-0.4c-0.1-0.1-0.1-0.2-0.2-0.3
	c-0.1-0.1-0.2-0.2-0.3-0.4c-0.1-0.1-0.2-0.2-0.3-0.3c-0.1-0.1-0.2-0.2-0.4-0.3c-0.1-0.1-0.2-0.2-0.3-0.2c-0.1-0.1-0.3-0.2-0.4-0.3
	c-0.1-0.1-0.2-0.1-0.3-0.2c-0.1-0.1-0.3-0.1-0.5-0.2c-0.1,0-0.2-0.1-0.3-0.1c-0.2-0.1-0.4-0.1-0.5-0.1s-0.2,0-0.3-0.1
	c-0.3,0-0.6-0.1-0.9-0.1c-0.1,0-0.2,0-0.3,0c-0.1-0.1-0.2-0.3-0.3-0.4c-0.1-0.1-0.1-0.2-0.2-0.2c-0.1-0.2-0.3-0.4-0.4-0.5
	c-0.5-1.5-0.2-3,0.6-4.3C-95.8,93.5-94.4,92.8-92.8,92.8L-92.8,92.8z"/>
<path class="st6" d="M-99.7,103.6c0-0.1,0.1-0.2,0.2-0.2c0.1-0.1,0.1-0.1,0.2-0.2s0.1-0.1,0.2-0.2s0.1-0.1,0.2-0.2s0.1-0.1,0.2-0.2
	s0.2-0.1,0.2-0.2c0.1,0,0.1-0.1,0.2-0.1c0.1-0.1,0.2-0.1,0.3-0.2c0.1,0,0.1-0.1,0.2-0.1c0.2-0.1,0.3-0.1,0.5-0.2l0,0
	c0.2-0.1,0.4-0.1,0.6-0.1c0.1,0,0.1,0,0.2,0c0.3,0,0.7,0,1,0c0.1,0,0.1,0,0.2,0s0.3,0.1,0.4,0.1s0.1,0,0.2,0.1
	c0.1,0,0.2,0.1,0.4,0.2c0.1,0,0.1,0.1,0.2,0.1c0.1,0.1,0.3,0.2,0.4,0.2l0.1,0.1c0.2,0.1,0.3,0.2,0.4,0.4l0.1,0.1
	c0.1,0.1,0.2,0.2,0.3,0.4c0,0.1,0.1,0.1,0.1,0.2s0.1,0.1,0.1,0.2L-99.7,103.6C-99.7,103.7-99.7,103.6-99.7,103.6z"/>
<path class="st6" d="M-102,97.5c0.5,0,1.9,0.2,3.5,2.3c0.1,0.2,0.2,0.3,0.4,0.5c0,0.1,0.1,0.1,0.1,0.2c0,0,0,0,0,0.1h-0.1
	c-0.2,0.1-0.4,0.2-0.6,0.3c-0.1,0-0.1,0.1-0.2,0.1c-0.5,0.2-0.9,0.6-1.2,0.9l-0.1,0.1c-0.2,0.2-0.3,0.4-0.5,0.6l0,0
	c-0.1,0.2-0.3,0.4-0.4,0.7c0,0.1-0.1,0.1-0.1,0.2s-0.1,0.2-0.1,0.2h-1.3C-103.4,101.7-103.2,99.3-102,97.5L-102,97.5z"/>
<path class="st6" d="M-68,105.6c-1.9,4.6-5.2,8.4-9.4,11h-1.8c-0.4,0-0.7,0.3-0.7,0.7c0,0.4,0.3,0.7,0.7,0.7h1.4v0.8
	c0,0.3-0.3,0.6-0.6,0.6h-16.5c-0.3,0-0.6-0.3-0.6-0.6V118h8.2c0.4,0,0.7-0.3,0.7-0.7c0-0.4-0.3-0.7-0.7-0.7H-96
	c-4.2-2.6-7.5-6.4-9.4-11l-0.2-0.6h37.8L-68,105.6z"/>
<path class="st6" d="M-89.4,88.7c-1.4,0-2.6,0.7-3.4,1.8c-0.8-1.1-2-1.8-3.4-1.8c-0.4,0-0.7,0.3-0.7,0.7s0.3,0.7,0.7,0.7
	c1.5,0,2.7,1.2,2.7,2.7c0,0.4,0.3,0.7,0.7,0.7c0.4,0,0.7-0.3,0.7-0.7c0-1.5,1.2-2.7,2.7-2.7c0.4,0,0.7-0.3,0.7-0.7
	S-89.1,88.7-89.4,88.7L-89.4,88.7z"/>
<path class="st6" d="M-71.6,94.1l-1-0.3l1.3-1.3c0.3-0.3,0.3-0.7,0-1s-0.7-0.3-1,0l-1.3,1.3l-0.3-1c-0.1-0.4-0.5-0.5-0.9-0.4
	s-0.5,0.5-0.4,0.9l0.7,2l0,0l0,0c0,0,0,0,0,0.1c0,0,0,0.1,0.1,0.1l0,0l0,0l0,0c0.1,0,0.1,0.1,0.2,0.1l0,0l0,0l0,0l0,0l2,0.7
	c0.4,0.1,0.7-0.1,0.9-0.4S-71.3,94.3-71.6,94.1L-71.6,94.1z"/>
<path class="st2" d="M-95.7,24.6c-1.1-0.4-2.3-0.6-3.5-0.5c-0.7,0-0.8,1,0,0.9c1.1-0.1,2.2,0.1,3.2,0.5c0.3-0.4,0.6-0.7,0.8-0.9
	c0.3-0.2,0.7-0.5,1.2-0.7c0-0.1-0.1-0.1-0.2-0.2c-1.9-1.1-2.8-2.8-3.7-4.5c-0.3-0.5-1.3-0.1-1,0.5c0.4,0.8,0.9,1.6,1.4,2.4
	c-0.7-0.6-1.3-1.3-1.9-2c-0.4-0.5-1.4,0-1,0.5C-99.1,22.1-97.6,23.5-95.7,24.6L-95.7,24.6z"/>
<path class="st2" d="M-95.7,25.7c-0.4,0.5-0.7,1.2-0.7,1.8c0,0.5,0.3,1,0.8,1.3l0.6,0.3c0.1-1,0.4-1.9,1.3-2.7
	c0.5-0.4,1.3,0.2,0.8,0.7c-0.8,0.7-1,1.7-1,2.6l1.3,0.8c0.2-0.8,0.5-1.5,1.3-2.2c0.5-0.4,1.3,0.2,0.8,0.7c-0.7,0.6-0.9,1.4-1,2.2
	l1.3,0.8c0.2-0.6,0.5-1.2,1.1-1.8c0.5-0.4,1.3,0.2,0.8,0.7c-0.6,0.5-0.8,1.1-0.9,1.7l6.3,3.7c0.4,0.3,0.8,0.4,1.2,0.4
	c0.5,0,1-0.2,1.2-0.6c0.3-0.4,0.1-1-0.4-1.4L-90,24.1c-0.4-0.4-0.9-0.5-1.5-0.5c-0.9,0-2.4-1.2-3.1-0.8c-0.4,0.2-0.2,2-0.4,2.2
	C-95.2,25-95.4,25.3-95.7,25.7L-95.7,25.7z"/>
<path class="st2" d="M-144.3,45c-12.2,0-22.1-9.9-22.1-22.1s9.9-22.1,22.1-22.1s22.1,9.9,22.1,22.1S-132.1,45-144.3,45z M-144.3,1.8
	c-11.6,0-21.1,9.5-21.1,21.1s9.5,21.1,21.1,21.1s21.1-9.5,21.1-21.1S-132.6,1.8-144.3,1.8z"/>
<path class="st2" d="M-202.1,45.6c-12.2,0-22.1-9.9-22.1-22.1s9.9-22.1,22.1-22.1s22.1,9.9,22.1,22.1S-189.9,45.6-202.1,45.6z
	 M-202.1,2.4c-11.6,0-21.1,9.5-21.1,21.1s9.5,21.1,21.1,21.1s21.1-9.5,21.1-21.1C-181,11.8-190.5,2.4-202.1,2.4z"/>
<g class="st0">
	<path class="st1" d="M-192.1,16.8c-1.6-0.2-5.3-2.7-8-1.8s-2.5,1.5-3.8,2c-1.3,0.4-1.6-0.2-4.2,0.6c-2.7,0.9-4.3,5.1-5.4,6.2
		c0,0-1.1,1.1-0.7,2.4c0.4,1.3,1.8,0.9,1.8,0.9c4.7-1.5,6.2-3.5,6.2-3.5s2.4,0.7,4.4,0s3.6-2.7,3.6-2.7s2.4,0.7,7.1-0.9
		c0,0,1.3-0.5,0.9-1.8C-190.5,17.1-192.1,16.8-192.1,16.8"/>
	<path class="st1" d="M-192.8,21.5c-4,1.3-3.1,4-7.8,5.5s-5.6-1.1-9.6,0.2c-1.3,0.4-1.8,1.3-1.6,2c0.7,2,6,6.9,13.3,4.5
		c7.4-2.4,8.7-9.5,8.1-11.5C-190.5,21.5-191.4,21.1-192.8,21.5"/>
</g>
<g class="st0">
	<path class="st4" d="M-204,94.4c2,0.4,2.9,1.4,3.1,2.7c0,1.2-0.9,2.6-1.6,3.4c-1.5,1.8-4,3.7-6.5,3.5c-2-0.1-2.1-2.3-2.1-2
		c0,0.9,0.5,1.8,1.4,2.2c0.8,0.4,1.9,0.2,2.7,0c0.7-0.2,1.4-0.5,2.1-0.9c-0.4,0.3-0.8,0.7-1.2,1c-1.7,1.2-3.4,1.3-4.9,2.2
		c-2.8,1.5-3.2,4.6-3.2,4.6s0.6-3.2,6.1-4.5h0.2c-1.8,2-2.4,4.3,0.8,8.3c-2.1-6.5,4-8.6,6.9-11.3C-195.7,99.6-196.8,94-204,94.4z"/>
	<path class="st4" d="M-193.2,106.9c1.1,0.3,1.8,0.3,3.2-0.1l-0.5-0.1c-0.7-0.1-0.8-0.2-1.5-0.4c-2.3-0.9-2.9-4-3.6-6.1
		c-0.4-1.2-0.9-2.3-1.5-3.2c-0.2-0.2-0.7-0.7-0.7-0.7c1.1,1.8,1.3,2.9,0.8,5.6c-0.6,2.9,2.1,3.8,0.5,4.5c-1.2,0.5-0.8,0.6-0.5,1.2
		c0.1,0.4-0.1,0.5-0.6,0.7c0.3,0.8,0.3,0.7-0.4,0.9c-0.7,0.3,0.4,1.8-1.1,1.9c-1,0-1.8-0.7-3-0.4c-2.3,3.9,3.3,4.7,6.3,8.7
		c-0.2-2-3.2-4.1-0.8-6.7c-0.2,2.5,0.4,5.4,3,6.5c-0.3-0.6-0.8-1.1-1.1-1.8c-0.4-1-0.6-2.2-0.6-3.3c0.2-4.9,0.3,2.9,5.3,2.5
		c-1.3-0.8-2-1.3-2.4-3.2c-0.6-3.2-0.8-3.5-1.7-4.7c0.2,0.3,1.6,0.7,2.8,1.9c1.3,1.4,1,2.1,1.3,3.8
		C-188.9,108.6-192.8,109-193.2,106.9L-193.2,106.9z"/>
	<path class="st4" d="M-214.4,106.3c0,0,0.7-0.3,0.9-0.6c0.3-0.3-0.2-0.6-0.8,0.3C-214.3,106.1-214.4,106.2-214.4,106.3z"/>
</g>
<g class="st0">
	<g class="st4">
		<path d="M-141.6,99.5l-4.6,5.5c-1.3-0.7-2.7-1.1-4.3-1.1c-1.5,0-3,0.4-4.3,1.1l-4.5-5.5v13.9c0,0.4,0,0.7,0,1.1
			c0,5.3,2.2,9.9,5.3,11.8c-1.7-2.3-3.3-4.7-2.6-7.1c4-0.2,4.4-0.2,4.4-0.2l1.4,1.2l1.7-1.2c2.9,0,4.3,0.1,4.3,0.1
			c0.2,1.5-0.1,4.7-2.6,7.2c3.1-1.9,5.3-6.5,5.3-11.9c0-0.4,0-0.7,0-1.1L-141.6,99.5z M-152.4,115.2c-0.4,0.2-1.4,0.7-1.8,0.9
			c-0.4,0.1-1,0.2-1.3,0c-0.2-0.2-1-0.9-1.1-1.1c-0.2-0.2-0.3-1.5,0.6-1.4c0.9,0.1,3.4,1.1,3.5,1.1
			C-152.3,114.7-152,115-152.4,115.2L-152.4,115.2z M-144.4,114.9c-0.2,0.2-0.9,0.9-1.1,1.1c-0.2,0.2-0.8,0.1-1.3,0
			c-0.4-0.1-1.4-0.7-1.8-0.9c-0.4-0.2-0.1-0.5,0.1-0.6c0.2-0.1,2.6-1.1,3.5-1.1S-144.2,114.8-144.4,114.9L-144.4,114.9z"/>
	</g>
</g>
<g class="st0">
	<path class="st1" d="M-141.9,27.6c0-0.2-0.2-0.4-0.4-0.3c0,0-1,0.3-1.8,0.3s-1.8-0.3-1.8-0.3c-0.2-0.1-0.4,0.1-0.4,0.3v1.2
		c0,0.2,0.2,0.4,0.4,0.4h3.5c0.2,0,0.4-0.2,0.4-0.4v-1.2H-141.9z"/>
	<path class="st1" d="M-137.9,12.3c0-0.5-0.4-0.8-0.8-0.8h-10.8c-0.5,0-0.8,0.4-0.8,0.8v6.8c0,2.1,0.6,4,1.8,5.4
		c1.1,1.4,2.7,2.2,4.5,2.2c1.7,0,3.3-0.8,4.5-2.2c1.1-1.4,1.8-3.3,1.8-5.4v-6.8H-137.9z"/>
	<path class="st1" d="M-151.1,20.7c-1.1-0.4-1.6-1.4-1.6-3V14h1.5v-1.6h-2.3c-0.5,0-0.8,0.4-0.8,0.8v4.5c0,2.7,1.3,4.4,3.7,4.8
		C-150.8,21.9-151,21.3-151.1,20.7L-151.1,20.7z"/>
	<path class="st1" d="M-149.5,30.4c-0.5,0-0.8,0.4-0.8,0.8v4.1c0,0.5,0.4,0.8,0.8,0.8h10.8c0.5,0,0.8-0.4,0.8-0.8v-4.1
		c0-0.5-0.4-0.8-0.8-0.8H-149.5z"/>
	<path class="st1" d="M-134.6,12.4h-2.3V14h1.5v3.7c0,1.6-0.5,2.6-1.6,3c-0.1,0.6-0.2,1.2-0.4,1.8c2.4-0.4,3.7-2.1,3.7-4.8v-4.5
		C-133.8,12.8-134.2,12.4-134.6,12.4L-134.6,12.4z"/>
</g>
</svg>
