<?xml version="1.0" encoding="utf-8"?>
<!-- Generator: Adobe Illustrator 22.0.1, SVG Export Plug-In . SVG Version: 6.00 Build 0)  -->
<svg version="1.1" id="Layer_1" xmlns="http://www.w3.org/2000/svg" xmlns:xlink="http://www.w3.org/1999/xlink" x="0px" y="0px"
	 viewBox="0 0 41.2 40.5" style="enable-background:new 0 0 41.2 40.5;" xml:space="preserve">
<style type="text/css">
	.st0{fill:#505358;}
	.st1{fill:#BE1E2D;}
</style>
<g>
	<path d="M55,34.7h-7.5V9.6h6.9v2.7c1-2.1,2.8-3.1,5.4-3.1c2.3,0,4.1,0.9,5.4,2.7s1.9,4.2,1.9,7.2c0,3.1-0.7,5.5-2,7.3
		s-3.1,2.7-5.2,2.7c-2.1,0-3.8-0.8-4.9-2.4L55,34.7L55,34.7z M55,21.7c0,0.9,0.2,1.5,0.6,2s0.9,0.7,1.4,0.7c0.9,0,1.5-0.4,1.9-1.2
		c0.3-0.8,0.5-2.1,0.5-3.8c0-2-0.2-3.4-0.6-4.2c-0.4-0.8-1-1.2-1.7-1.2c-0.5,0-0.9,0.2-1.4,0.5c-0.5,0.4-0.7,1-0.7,1.8V21.7L55,21.7
		z"/>
	<path d="M79.4,29.1c-3.2,0-5.7-1-7.6-3S69,21.8,69,19.2c0-2.9,1-5.2,2.9-7.1s4.5-2.9,7.6-2.9s5.7,0.9,7.6,2.8s2.9,4.2,2.9,7.1
		s-1,5.2-2.9,7.1C85.2,28.1,82.6,29.1,79.4,29.1z M79.5,24.5c1.2,0,1.9-0.6,2.1-1.8c0.3-1.2,0.4-2.5,0.4-3.8c0-1.8-0.2-3.1-0.5-3.9
		c-0.4-0.8-1-1.2-2-1.2c-0.9,0-1.5,0.4-1.9,1.2c-0.4,0.8-0.6,2.2-0.6,4c0,2.2,0.2,3.6,0.6,4.3C78,24.2,78.7,24.5,79.5,24.5z"/>
	<path d="M100.1,28.7h-7.2V9.6h6.2v3.9c0.7-2.9,2.4-4.3,5-4.3c0.3,0,0.6,0,1.1,0.1V16c-0.5-0.1-1-0.2-1.4-0.2
		c-2.5,0-3.7,1.4-3.7,4.2V28.7L100.1,28.7z"/>
	<path d="M120.2,9.6v4.9h-3.8v7c0,1,0.2,1.5,0.5,1.7c0.4,0.2,0.7,0.3,1.1,0.3c0.6,0,1.3-0.1,2.1-0.3v5.3c-1.5,0.3-2.9,0.4-4.4,0.4
		c-2.3,0-4-0.5-5.1-1.5s-1.6-2.6-1.6-4.7v-2.2v-6h-2.9V9.6h2.9l0.1-6.2l7.1-0.1v6.3C116.2,9.6,120.2,9.6,120.2,9.6z"/>
</g>
<g>
	<path class="st0" d="M31.8,28.8h-7.3v-12c0-0.8-0.1-1.4-0.3-1.7c-0.2-0.3-0.6-0.5-1.2-0.5c-1.4,0-2.1,1-2.1,3.1v11h-7.2v-12
		c0-1.5-0.6-2.3-1.8-2.3s-1.8,0.8-1.8,2.3v12H2.9V9.6h6.7v2.6c1.2-2,3-3,5.2-3c2.5,0,4.3,1,5.4,3c1.2-2,3.1-3,5.7-3
		c1.2,0,2.3,0.3,3.2,0.8s1.6,1.2,2,2s0.6,2.1,0.6,3.7L31.8,28.8L31.8,28.8L31.8,28.8z"/>
</g>
<rect x="37.3" y="1.1" class="st1" width="2.8" height="38.3"/>
</svg>
