<?xml version="1.0" encoding="utf-8"?>
<!-- Generator: Adobe Illustrator 18.0.0, SVG Export Plug-In . SVG Version: 6.00 Build 0)  -->
<!DOCTYPE svg PUBLIC "-//W3C//DTD SVG 1.1//EN" "http://www.w3.org/Graphics/SVG/1.1/DTD/svg11.dtd">
<svg version="1.1" id="Layer_1" xmlns="http://www.w3.org/2000/svg" xmlns:xlink="http://www.w3.org/1999/xlink" x="0px" y="0px"
	 viewBox="0 0 255.1 141.7" enable-background="new 0 0 255.1 141.7" xml:space="preserve">
<g>
	<path fill="#FFFFFF" d="M124.8,77.2h-7.5V52.1h6.9v2.7c1-2.1,2.8-3.1,5.4-3.1c2.3,0,4.1,0.9,5.4,2.7c1.3,1.8,1.9,4.2,1.9,7.2
		c0,3.1-0.7,5.5-2,7.3c-1.3,1.8-3.1,2.7-5.2,2.7c-2.1,0-3.8-0.8-4.9-2.4V77.2z M124.8,64.2c0,0.9,0.2,1.5,0.6,2
		c0.4,0.5,0.9,0.7,1.4,0.7c0.9,0,1.5-0.4,1.9-1.2c0.3-0.8,0.5-2.1,0.5-3.8c0-2-0.2-3.4-0.6-4.2c-0.4-0.8-1-1.2-1.7-1.2
		c-0.5,0-0.9,0.2-1.4,0.5c-0.5,0.4-0.7,1-0.7,1.8V64.2z"/>
	<path fill="#FFFFFF" d="M149.2,71.6c-3.2,0-5.7-1-7.6-3c-1.9-2-2.8-4.3-2.8-6.9c0-2.9,1-5.2,2.9-7.1c1.9-1.9,4.5-2.9,7.6-2.9
		c3.1,0,5.7,0.9,7.6,2.8c1.9,1.9,2.9,4.2,2.9,7.1c0,2.9-1,5.2-2.9,7.1C155,70.6,152.4,71.6,149.2,71.6z M149.3,67
		c1.2,0,1.9-0.6,2.1-1.8c0.3-1.2,0.4-2.5,0.4-3.8c0-1.8-0.2-3.1-0.5-3.9c-0.4-0.8-1-1.2-2-1.2c-0.9,0-1.5,0.4-1.9,1.2
		c-0.4,0.8-0.6,2.2-0.6,4c0,2.2,0.2,3.6,0.6,4.3C147.8,66.7,148.5,67,149.3,67z"/>
	<path fill="#FFFFFF" d="M169.9,71.2h-7.2V52.1h6.2V56c0.7-2.9,2.4-4.3,5-4.3c0.3,0,0.6,0,1.1,0.1v6.7c-0.5-0.1-1-0.2-1.4-0.2
		c-2.5,0-3.7,1.4-3.7,4.2V71.2z"/>
	<path fill="#FFFFFF" d="M190,52.1v4.9h-3.8v7c0,1,0.2,1.5,0.5,1.7c0.4,0.2,0.7,0.3,1.1,0.3c0.6,0,1.3-0.1,2.1-0.3V71
		c-1.5,0.3-2.9,0.4-4.4,0.4c-2.3,0-4-0.5-5.1-1.5c-1.1-1-1.6-2.6-1.6-4.7l0-2.2v-6h-2.9v-4.9h2.9l0.1-6.2l7.1-0.1v6.3H190z"/>
</g>
<g>
	<path fill="#FFFFFF" d="M101.6,71.3h-7.3v-12c0-0.8-0.1-1.4-0.3-1.7c-0.2-0.3-0.6-0.5-1.2-0.5c-1.4,0-2.1,1-2.1,3.1v11h-7.2v-12
		c0-1.5-0.6-2.3-1.8-2.3c-1.2,0-1.8,0.8-1.8,2.3v12h-7.2V52.1h6.7v2.6c1.2-2,3-3,5.2-3c2.5,0,4.3,1,5.4,3c1.2-2,3.1-3,5.7-3
		c1.2,0,2.3,0.3,3.2,0.8c0.9,0.5,1.6,1.2,2,2c0.4,0.8,0.6,2.1,0.6,3.7V71.3z"/>
</g>
<rect x="107.1" y="43.7" fill="#BE1E2D" width="2.8" height="47.5"/>
<path fill="#FFFFFF" d="M121,87.4l-0.1-0.7h0c-0.3,0.4-0.9,0.8-1.7,0.8c-1.1,0-1.7-0.8-1.7-1.6c0-1.3,1.2-2.1,3.3-2.1v-0.1
	c0-0.5-0.1-1.3-1.3-1.3c-0.5,0-1.1,0.2-1.4,0.4l-0.2-0.7c0.5-0.3,1.1-0.5,1.8-0.5c1.7,0,2.1,1.2,2.1,2.3v2.1c0,0.5,0,1,0.1,1.3H121z
	 M120.8,84.6c-1.1,0-2.4,0.2-2.4,1.3c0,0.7,0.4,1,1,1c0.7,0,1.2-0.5,1.3-0.9c0-0.1,0.1-0.2,0.1-0.3V84.6z"/>
<path fill="#FFFFFF" d="M123.7,81.8l1.2,3.3c0.1,0.4,0.3,0.8,0.4,1.1h0c0.1-0.3,0.2-0.8,0.4-1.2l1.1-3.3h1.1l-1.5,4
	c-0.7,1.9-1.2,2.9-1.9,3.5c-0.5,0.4-1,0.6-1.2,0.7l-0.3-0.9c0.3-0.1,0.6-0.2,0.9-0.5c0.3-0.2,0.6-0.6,0.9-1.1c0-0.1,0.1-0.2,0.1-0.2
	c0-0.1,0-0.1-0.1-0.3l-2.1-5.1H123.7z"/>
<path fill="#FFFFFF" d="M132.8,81.8v4.8l0.6,0l-0.1,2.5h-0.8l0-1.8h-3.9l0,1.8h-0.8l0-2.5l0.5,0c0.2-0.4,0.4-0.7,0.6-1.1
	c0.2-0.7,0.3-1.4,0.3-2.2v-1.5H132.8z M130,83.5c0,0.7-0.1,1.5-0.3,2.1c-0.1,0.4-0.3,0.7-0.4,1h2.6v-4H130V83.5z"/>
<path fill="#FFFFFF" d="M135.6,81.8v2.3c0,0.9,0,1.4-0.1,2.2l0,0c0.3-0.7,0.5-1.1,0.9-1.7l1.7-2.9h1.2v5.6h-1V85
	c0-0.9,0-1.4,0.1-2.3h0c-0.4,0.7-0.6,1.2-0.9,1.7c-0.5,0.9-1.1,1.9-1.7,2.9h-1.2v-5.6H135.6z"/>
<path fill="#FFFFFF" d="M144.7,81.8v0.8H143v4.8h-1v-4.8h-1.7v-0.8H144.7z"/>
<path fill="#FFFFFF" d="M150.5,84.6c0,2.1-1.4,3-2.8,3c-1.5,0-2.7-1.1-2.7-2.9c0-1.9,1.2-3,2.8-3C149.4,81.7,150.5,82.9,150.5,84.6z
	 M146.1,84.6c0,1.2,0.7,2.1,1.7,2.1c1,0,1.7-0.9,1.7-2.2c0-0.9-0.5-2.1-1.7-2.1C146.6,82.5,146.1,83.6,146.1,84.6z"/>
<path fill="#FFFFFF" d="M151.8,83.6c0-0.7,0-1.3,0-1.8h0.9l0,1h0c0.4-0.7,1.1-1.1,2-1.1c1.3,0,2.4,1.1,2.4,2.8c0,2-1.2,3-2.5,3
	c-0.7,0-1.4-0.3-1.7-0.9h0v3h-1V83.6z M152.8,85.1c0,0.1,0,0.3,0,0.4c0.2,0.7,0.8,1.2,1.5,1.2c1.1,0,1.7-0.9,1.7-2.2
	c0-1.1-0.6-2.1-1.7-2.1c-0.7,0-1.3,0.5-1.5,1.3c0,0.1-0.1,0.3-0.1,0.4V85.1z"/>
<path fill="#FFFFFF" d="M159.3,81.8v2.3c0,0.9,0,1.4-0.1,2.2l0,0c0.3-0.7,0.5-1.1,0.9-1.7l1.7-2.9h1.2v5.6h-1V85
	c0-0.9,0-1.4,0.1-2.3h0c-0.4,0.7-0.6,1.2-0.9,1.7c-0.5,0.9-1.1,1.9-1.7,2.9h-1.2v-5.6H159.3z"/>
<path fill="#FFFFFF" d="M168.8,87.4h-1v-2.3h-0.7c-0.4,0-0.7,0.1-0.9,0.3c-0.4,0.3-0.6,1-0.8,1.6c-0.1,0.2-0.1,0.3-0.2,0.5h-1.1
	c0.1-0.2,0.2-0.4,0.3-0.6c0.2-0.5,0.4-1.3,0.9-1.7c0.2-0.1,0.4-0.3,0.6-0.3v0c-0.7-0.1-1.5-0.5-1.5-1.4c0-0.6,0.3-1,0.7-1.2
	c0.5-0.3,1.1-0.4,1.9-0.4c0.7,0,1.3,0.1,1.8,0.1V87.4z M167.8,82.5c-0.3,0-0.5-0.1-0.8-0.1c-0.7,0-1.5,0.2-1.5,1c0,0.7,0.9,1,1.5,1
	c0.4,0,0.6,0,0.9,0V82.5z"/>
<path fill="#BE1E2D" d="M172.6,87.4v-0.6l0.8-0.8c1.9-1.8,2.8-2.8,2.8-3.9c0-0.8-0.4-1.5-1.5-1.5c-0.7,0-1.2,0.3-1.6,0.6l-0.3-0.7
	c0.5-0.4,1.3-0.8,2.1-0.8c1.6,0,2.3,1.1,2.3,2.2c0,1.4-1,2.5-2.6,4l-0.6,0.6v0h3.4v0.8H172.6z"/>
<path fill="#BE1E2D" d="M180.7,80.9L180.7,80.9l-1.3,0.7l-0.2-0.8l1.6-0.9h0.9v7.5h-1V80.9z"/>
<path fill="#BE1E2D" d="M187.7,81.3V84h2.6v0.7h-2.6v2.7H187v-2.7h-2.6V84h2.6v-2.7H187.7z"/>
</svg>
